<?xml version="1.0" encoding="UTF-8"?>
<svg xmlns="http://www.w3.org/2000/svg" xmlns:xlink="http://www.w3.org/1999/xlink" viewBox="0 0 382.08 562.32">
   <defs>
      <style>
      .neck{
          <!-- fill:blue; -->
      }

      .arm {
         <!-- fill:red; -->
      }
      </style>
   </defs>
   <title>Asset 22</title>
   <g id="f7720310-f072-4511-9d7e-e7dcf37e0a3b" data-name="Layer 2">
      <g id="edcee251-0186-45c3-906a-716b4da3515e" data-name="Layer 1">
         <path class="" d="M194.06,87.24l54.79,0s-3.37-35.13-5.67-54.77c-.17-5-38.6-.94-52-.3-13.38-.64-51.81-4.66-52,.3-2.3,19.64-5.67,54.77-5.67,54.77l54.79,0h5.73Z" />
         <path class="base-sash" d="M346.06,520H233.7c5.25-133.66,10.68-268,15.65-401.66.38-10.3-1.12-38.12-1.63-42.65-1.63-14.39-6.19-28.51-4.54-43.24,9.28-.1,86.83,43.2,87.28,57.68C334.41,213.56,346.68,518,346.06,520Z" />
         <path class="base-sash" d="M36.32,520H148.69C143.43,386.31,138,252,133,118.31c-.39-10.3,1.11-38.12,1.63-42.65,1.63-14.39,6.18-28.51,4.54-43.24-9.29-.1-86.83,43.2-87.29,57.68C48,213.56,35.71,518,36.32,520Z" />
      </g>
   </g>
</svg>