<?xml version="1.0" encoding="UTF-8"?>
<svg xmlns="http://www.w3.org/2000/svg" xmlns:xlink="http://www.w3.org/1999/xlink" viewBox="0 0 382.08 562.32">
   <defs>
      <style>
         .b6611480-864d-4055-93c9-aeb7d8ae555a {
            opacity: 0.53;
         }

         .base-stole {
            fill: #8a2026;
         }

         .e9002090-b01a-4960-bb2f-c3a097bd156b {
            fill: #ffe4b5;
         }

         .stripe-1 {
            fill: #002b3a;
         }

         .stripe-4 {
            fill: #fff;
         }
      </style>
   </defs>
   <title>Asset 4</title>
   <g id="aa47fd9c-da56-4920-8d18-723311700d36" data-name="Layer 2">
      <g id="aff0cea8-3ad1-4632-8126-56d97dab9cfd" data-name="Layer 1">
         <g class="b6611480-864d-4055-93c9-aeb7d8ae555a" />
         <path class="base-stole" d="M345.62,518.32H233.26c5.26-133.65,10.68-268,15.65-401.66.39-10.3-1.11-38.12-1.63-42.65-1.63-14.39-6.18-28.5-4.54-43.23C252,30.68,329.57,74,330,88.46,334,211.91,346.24,516.38,345.62,518.32Z" />
         <path class="base-stole" d="M35.89,518.32H148.25c-5.26-133.65-10.68-268-15.65-401.66-.39-10.3,1.12-38.12,1.63-42.65,1.63-14.39,6.19-28.5,4.54-43.23-9.28-.1-86.83,43.19-87.29,57.68C47.54,211.91,35.27,516.38,35.89,518.32Z" />
         
         <path d="M193.62,85.59c22.11,0,54.79,0,54.79,0S245,50.42,242.74,30.79c-.17-5-38.6-.94-52-.3-13.39-.64-51.82-4.67-52,.3-2.3,19.63-5.67,54.77-5.67,54.77s32.88,0,54.79,0h5.73Z" />
         
         <polyline class="stripe-2 e9002090-b01a-4960-bb2f-c3a097bd156b" points="132.54 108.57 50.53 108.43 48.96 158.23 134.12 158.25" />
         
         <polygon class="stripe-2 e9002090-b01a-4960-bb2f-c3a097bd156b" points="343.25 433.97 236.34 433.96 236.41 431.81 343.13 431.61 343.25 433.97" />
         <polygon class="stripe-2 e9002090-b01a-4960-bb2f-c3a097bd156b" points="343 440.93 236.02 440.93 236.13 438.77 342.98 438.77 343 440.93" />
         <polygon class="stripe-2 e9002090-b01a-4960-bb2f-c3a097bd156b" points="343.18 447.89 235.7 447.89 235.83 445.73 343.07 445.73 343.18 447.89" />
         <polygon class="stripe-2 e9002090-b01a-4960-bb2f-c3a097bd156b" points="343.52 454.85 235.36 454.85 235.51 452.69 343.44 452.69 343.52 454.85" />
         <polygon class="stripe-2 e9002090-b01a-4960-bb2f-c3a097bd156b" points="343.93 461.81 235.06 461.81 235.24 459.65 343.77 459.65 343.93 461.81" />
         <polygon class="stripe-2 e9002090-b01a-4960-bb2f-c3a097bd156b" points="344.29 468.77 234.77 468.77 234.89 466.61 344.09 466.61 344.29 468.77" />
         <polygon class="stripe-2 e9002090-b01a-4960-bb2f-c3a097bd156b" points="341.63 392.35 238.48 392.34 238.55 390.19 341.51 389.99 341.63 392.35" />
         <polygon class="stripe-2 e9002090-b01a-4960-bb2f-c3a097bd156b" points="341.38 399.31 238.17 399.31 238.28 397.15 341.36 397.15 341.38 399.31" />
         <polygon class="stripe-2 e9002090-b01a-4960-bb2f-c3a097bd156b" points="341.56 406.27 237.86 406.27 237.99 404.11 341.45 404.11 341.56 406.27" />
         <polygon class="stripe-2 e9002090-b01a-4960-bb2f-c3a097bd156b" points="341.89 413.23 237.54 413.23 237.68 411.07 341.81 411.07 341.89 413.23" />
         <polygon class="stripe-2 e9002090-b01a-4960-bb2f-c3a097bd156b" points="342.28 420.19 237.24 420.19 237.42 418.03 342.13 418.03 342.28 420.19" />
         <polygon class="stripe-2 e9002090-b01a-4960-bb2f-c3a097bd156b" points="342.63 427.15 236.97 427.15 237.08 424.99 342.44 424.99 342.63 427.15" />
         <polygon class="stripe-2 e9002090-b01a-4960-bb2f-c3a097bd156b" points="336.37 254.33 243.17 254.32 243.24 252.17 336.26 251.97 336.37 254.33" />
         <polygon class="stripe-2 e9002090-b01a-4960-bb2f-c3a097bd156b" points="336.15 261.29 242.89 261.29 242.99 259.13 336.13 259.13 336.15 261.29" />
         <polygon class="stripe-2 e9002090-b01a-4960-bb2f-c3a097bd156b" points="336.31 268.25 242.61 268.25 242.73 266.09 336.21 266.09 336.31 268.25" />
         <polygon class="stripe-2 e9002090-b01a-4960-bb2f-c3a097bd156b" points="336.61 275.21 242.32 275.21 242.45 273.05 336.54 273.05 336.61 275.21" />
         <polygon class="stripe-2 e9002090-b01a-4960-bb2f-c3a097bd156b" points="336.96 282.17 242.06 282.17 242.21 280.01 336.82 280.01 336.96 282.17" />
         <polygon class="stripe-2 e9002090-b01a-4960-bb2f-c3a097bd156b" points="337.28 289.13 241.8 289.13 241.91 286.97 337.11 286.97 337.28 289.13" />
         <polygon class="stripe-2 e9002090-b01a-4960-bb2f-c3a097bd156b" points="334.96 212.71 245.04 212.7 245.1 210.55 334.85 210.36 334.96 212.71" />
         <polygon class="stripe-2 e9002090-b01a-4960-bb2f-c3a097bd156b" points="334.74 219.67 244.77 219.67 244.86 217.51 334.73 217.51 334.74 219.67" />
         <polygon class="stripe-2 e9002090-b01a-4960-bb2f-c3a097bd156b" points="334.89 226.63 244.5 226.63 244.61 224.47 334.8 224.47 334.89 226.63" />
         <polygon class="stripe-2 e9002090-b01a-4960-bb2f-c3a097bd156b" points="335.18 233.59 244.22 233.59 244.34 231.43 335.12 231.43 335.18 233.59" />
         <polygon class="stripe-2 e9002090-b01a-4960-bb2f-c3a097bd156b" points="335.52 240.55 243.96 240.55 244.11 238.39 335.39 238.39 335.52 240.55" />
         <polygon class="stripe-2 e9002090-b01a-4960-bb2f-c3a097bd156b" points="335.83 247.51 243.72 247.51 243.82 245.35 335.67 245.35 335.83 247.51" />
         <polygon class="stripe-2 e9002090-b01a-4960-bb2f-c3a097bd156b" points="333.52 169.97 246.65 169.97 246.71 167.81 333.42 167.62 333.52 169.97" />
         <polygon class="stripe-2 e9002090-b01a-4960-bb2f-c3a097bd156b" points="333.31 176.93 246.39 176.93 246.48 174.77 333.3 174.77 333.31 176.93" />
         <polygon class="stripe-2 e9002090-b01a-4960-bb2f-c3a097bd156b" points="333.46 183.89 246.13 183.89 246.24 181.73 333.37 181.73 333.46 183.89" />
         <polygon class="stripe-2 e9002090-b01a-4960-bb2f-c3a097bd156b" points="333.74 190.85 245.86 190.85 245.98 188.69 333.67 188.69 333.74 190.85" />
         <polygon class="stripe-2 e9002090-b01a-4960-bb2f-c3a097bd156b" points="334.06 197.81 245.61 197.81 245.76 195.65 333.94 195.65 334.06 197.81" />
         <polygon class="stripe-2 e9002090-b01a-4960-bb2f-c3a097bd156b" points="334.37 204.77 245.38 204.77 245.48 202.61 334.2 202.61 334.37 204.77" />
         <polygon class="stripe-2 e9002090-b01a-4960-bb2f-c3a097bd156b" points="138.26 254.33 45.54 254.32 45.6 252.17 138.15 251.97 138.26 254.33" />
         <polygon class="stripe-2 e9002090-b01a-4960-bb2f-c3a097bd156b" points="138.04 261.29 45.26 261.29 45.35 259.13 138.02 259.13 138.04 261.29" />
         <polygon class="stripe-2 e9002090-b01a-4960-bb2f-c3a097bd156b" points="138.2 268.25 44.98 268.25 45.1 266.09 138.1 266.09 138.2 268.25" />
         <polygon class="stripe-2 e9002090-b01a-4960-bb2f-c3a097bd156b" points="138.5 275.21 44.69 275.21 44.82 273.05 138.43 273.05 138.5 275.21" />
         <polygon class="stripe-2 e9002090-b01a-4960-bb2f-c3a097bd156b" points="138.85 282.17 44.43 282.17 44.58 280.01 138.71 280.01 138.85 282.17" />
         <polygon class="stripe-2 e9002090-b01a-4960-bb2f-c3a097bd156b" points="139.16 289.13 44.17 289.13 44.28 286.97 138.99 286.97 139.16 289.13" />
         <polygon class="stripe-2 e9002090-b01a-4960-bb2f-c3a097bd156b" points="136.45 212.71 46.53 212.7 46.6 210.55 136.35 210.36 136.45 212.71" />
         <polygon class="stripe-2 e9002090-b01a-4960-bb2f-c3a097bd156b" points="136.24 219.67 46.26 219.67 46.36 217.51 136.22 217.51 136.24 219.67" />
         <polygon class="stripe-2 e9002090-b01a-4960-bb2f-c3a097bd156b" points="136.39 226.63 45.99 226.63 46.11 224.47 136.3 224.47 136.39 226.63" />
         <polygon class="stripe-2 e9002090-b01a-4960-bb2f-c3a097bd156b" points="136.68 233.59 45.71 233.59 45.84 231.43 136.61 231.43 136.68 233.59" />
         <polygon class="stripe-2 e9002090-b01a-4960-bb2f-c3a097bd156b" points="137.02 240.55 45.46 240.55 45.61 238.39 136.89 238.39 137.02 240.55" />
         <polygon class="stripe-2 e9002090-b01a-4960-bb2f-c3a097bd156b" points="137.33 247.51 45.21 247.51 45.31 245.35 137.16 245.35 137.33 247.51" />
         <polygon class="stripe-2 e9002090-b01a-4960-bb2f-c3a097bd156b" points="135.01 169.97 48.15 169.97 48.21 167.81 134.91 167.62 135.01 169.97" />
         <polygon class="stripe-2 e9002090-b01a-4960-bb2f-c3a097bd156b" points="134.81 176.93 47.88 176.93 47.98 174.77 134.79 174.77 134.81 176.93" />
         <polygon class="stripe-2 e9002090-b01a-4960-bb2f-c3a097bd156b" points="134.95 183.89 47.63 183.89 47.74 181.73 134.86 181.73 134.95 183.89" />
         <polygon class="stripe-2 e9002090-b01a-4960-bb2f-c3a097bd156b" points="135.23 190.85 47.35 190.85 47.47 188.69 135.17 188.69 135.23 190.85" />
         <polygon class="stripe-2 e9002090-b01a-4960-bb2f-c3a097bd156b" points="135.56 197.81 47.11 197.81 47.25 195.65 135.44 195.65 135.56 197.81" />
         <polygon class="stripe-2 e9002090-b01a-4960-bb2f-c3a097bd156b" points="135.86 204.77 46.87 204.77 46.97 202.61 135.7 202.61 135.86 204.77" />
         <polygon class="stripe-2 e9002090-b01a-4960-bb2f-c3a097bd156b" points="145.53 433.97 38.13 433.96 38.2 431.81 145.4 431.61 145.53 433.97" />
         <polygon class="stripe-2 e9002090-b01a-4960-bb2f-c3a097bd156b" points="145.27 440.93 37.8 440.93 37.92 438.77 145.25 438.77 145.27 440.93" />
         <polygon class="stripe-2 e9002090-b01a-4960-bb2f-c3a097bd156b" points="145.45 447.89 37.49 447.89 37.62 445.73 145.34 445.73 145.45 447.89" />
         <polygon class="stripe-2 e9002090-b01a-4960-bb2f-c3a097bd156b" points="145.79 454.85 37.15 454.85 37.3 452.69 145.72 452.69 145.79 454.85" />
         <polygon class="stripe-2 e9002090-b01a-4960-bb2f-c3a097bd156b" points="146.2 461.81 36.84 461.81 37.02 459.65 146.05 459.65 146.2 461.81" />
         <polygon class="stripe-2 e9002090-b01a-4960-bb2f-c3a097bd156b" points="146.57 468.77 36.55 468.77 36.67 466.61 146.37 466.61 146.57 468.77" />
         <polygon class="stripe-2 e9002090-b01a-4960-bb2f-c3a097bd156b" points="143.9 392.35 40.28 392.34 40.35 390.19 143.77 389.99 143.9 392.35" />
         <polygon class="stripe-2 e9002090-b01a-4960-bb2f-c3a097bd156b" points="143.65 399.31 39.97 399.31 40.08 397.15 143.63 397.15 143.65 399.31" />
         <polygon class="stripe-2 e9002090-b01a-4960-bb2f-c3a097bd156b" points="143.82 406.27 39.66 406.27 39.79 404.11 143.72 404.11 143.82 406.27" />
         <polygon class="stripe-2 e9002090-b01a-4960-bb2f-c3a097bd156b" points="144.15 413.23 39.33 413.23 39.48 411.07 144.08 411.07 144.15 413.23" />
         <polygon class="stripe-2 e9002090-b01a-4960-bb2f-c3a097bd156b" points="144.55 420.19 39.04 420.19 39.21 418.03 144.4 418.03 144.55 420.19" />
         <polygon class="stripe-2 e9002090-b01a-4960-bb2f-c3a097bd156b" points="144.9 427.15 38.76 427.15 38.88 424.99 144.71 424.99 144.9 427.15" />
         <polygon class="stripe-3 e6100245-155f-4d0d-8341-d7dc98421189" points="50.51 108.43 88.98 108.43 81.41 114.77 50.18 114.69 50.51 108.43" />
         <polygon class="stripe-1" points="132.83 108.44 93.99 108.46 101.33 114.77 133.09 114.77 132.83 108.44" />
         <polygon class="stripe-1" points="81.44 114.77 101.34 114.74 98.21 120.93 84.69 120.93 81.44 114.77" />
         <polygon class="stripe-1" points="49.99 121.01 88.98 121.02 81.31 127.35 49.66 127.27 49.99 121.01" />
         <polygon class="stripe-3 e6100245-155f-4d0d-8341-d7dc98421189" points="133.27 121.02 93.99 121.04 101.42 127.35 133.53 127.35 133.27 121.02" />
         <polygon class="stripe-1" points="81.44 127.35 101.34 127.33 98.21 133.52 84.69 133.52 81.44 127.35" />
         <polygon class="stripe-3 e6100245-155f-4d0d-8341-d7dc98421189" points="50.51 133.33 88.98 133.33 81.41 139.67 50.18 139.59 50.51 133.33" />
         <polygon class="stripe-1" points="132.83 133.34 93.99 133.36 101.33 139.67 133.09 139.67 132.83 133.34" />
         <polygon class="stripe-1" points="81.44 139.67 101.34 139.65 98.21 145.83 84.69 145.83 81.44 139.67" />
         <polygon class="stripe-1" points="49.99 145.91 88.98 145.92 81.31 152.25 49.66 152.17 49.99 145.91" />
         <polygon class="stripe-3 e6100245-155f-4d0d-8341-d7dc98421189" points="133.27 145.92 93.99 145.94 101.42 152.25 133.53 152.25 133.27 145.92" />
         <polygon class="stripe-1" points="81.44 152.25 101.34 152.23 98.21 158.42 84.69 158.42 81.44 152.25" />
         <polyline class="stripe-2 e9002090-b01a-4960-bb2f-c3a097bd156b" points="330.5 108.57 248.49 108.43 246.92 158.23 332.08 158.25" />
         <polygon class="stripe-3 e6100245-155f-4d0d-8341-d7dc98421189" points="248.47 108.43 286.94 108.43 279.37 114.77 248.15 114.69 248.47 108.43" />
         <polygon class="stripe-1" points="330.8 108.44 291.95 108.46 299.3 114.77 331.05 114.77 330.8 108.44" />
         <polygon class="stripe-1" points="279.4 114.77 299.3 114.74 296.17 120.93 282.65 120.93 279.4 114.77" />
         <polygon class="stripe-1" points="247.95 121.01 286.94 121.02 279.27 127.35 247.62 127.27 247.95 121.01" />
         <polygon class="stripe-3 e6100245-155f-4d0d-8341-d7dc98421189" points="331.23 121.02 291.95 121.04 299.38 127.35 331.49 127.35 331.23 121.02" />
         <polygon class="stripe-1" points="279.4 127.35 299.3 127.33 296.17 133.52 282.65 133.52 279.4 127.35" />
         <polygon class="stripe-3 e6100245-155f-4d0d-8341-d7dc98421189" points="248.47 133.33 286.94 133.33 279.37 139.67 248.15 139.59 248.47 133.33" />
         <polygon class="stripe-1" points="330.8 133.34 291.95 133.36 299.3 139.67 331.05 139.67 330.8 133.34" />
         <polygon class="stripe-1" points="279.4 139.67 299.3 139.65 296.17 145.83 282.65 145.83 279.4 139.67" />
         <polygon class="stripe-1" points="247.95 145.91 286.94 145.92 279.27 152.25 247.62 152.17 247.95 145.91" />
         <polygon class="stripe-3 e6100245-155f-4d0d-8341-d7dc98421189" points="331.23 145.92 291.95 145.94 299.38 152.25 331.49 152.25 331.23 145.92" />
         <polygon class="stripe-1" points="279.4 152.25 299.3 152.23 296.17 158.42 282.65 158.42 279.4 152.25" />
         <polyline class="stripe-2 e9002090-b01a-4960-bb2f-c3a097bd156b" points="333.48 188.99 245.76 188.85 244.08 238.66 335.18 238.68" />
         <polygon class="stripe-3 e6100245-155f-4d0d-8341-d7dc98421189" points="245.74 188.85 286.89 188.85 278.79 195.19 245.39 195.11 245.74 188.85" />
         <polygon class="stripe-1" points="333.8 188.86 292.25 188.88 300.11 195.19 334.08 195.19 333.8 188.86" />
         <polygon class="stripe-1" points="278.82 195.19 300.11 195.17 296.76 201.35 282.3 201.35 278.82 195.19" />
         <polygon class="stripe-1" points="245.18 201.44 286.89 201.44 278.68 207.78 244.83 207.69 245.18 201.44" />
         <polygon class="stripe-3 e6100245-155f-4d0d-8341-d7dc98421189" points="334.27 201.44 292.25 201.47 300.19 207.78 334.55 207.78 334.27 201.44" />
         <polygon class="stripe-1" points="278.82 207.78 300.11 207.75 296.76 213.94 282.3 213.94 278.82 207.78" />
         <polygon class="stripe-3 e6100245-155f-4d0d-8341-d7dc98421189" points="245.74 213.75 286.89 213.75 278.79 220.09 245.39 220.01 245.74 213.75" />
         <polygon class="stripe-1" points="333.8 213.76 292.25 213.78 300.11 220.09 334.08 220.09 333.8 213.76" />
         <polygon class="stripe-1" points="278.82 220.09 300.11 220.07 296.76 226.25 282.3 226.25 278.82 220.09" />
         <polygon class="stripe-1" points="245.18 226.34 286.89 226.34 278.68 232.68 244.83 232.59 245.18 226.34" />
         <polygon class="stripe-3 e6100245-155f-4d0d-8341-d7dc98421189" points="334.27 226.34 292.25 226.37 300.19 232.68 334.55 232.68 334.27 226.34" />
         <polygon class="stripe-1" points="278.82 232.68 300.11 232.65 296.76 238.84 282.3 238.84 278.82 232.68" />
         <polyline class="stripe-2 e9002090-b01a-4960-bb2f-c3a097bd156b" points="135.38 188.99 47.66 188.85 45.99 238.66 137.08 238.68" />
         <polygon class="stripe-3 e6100245-155f-4d0d-8341-d7dc98421189" points="47.64 188.85 88.79 188.85 80.69 195.19 47.29 195.11 47.64 188.85" />
         <polygon class="stripe-1" points="135.7 188.86 94.15 188.88 102.01 195.19 135.98 195.19 135.7 188.86" />
         <polygon class="stripe-1" points="80.73 195.19 102.01 195.17 98.66 201.35 84.2 201.35 80.73 195.19" />
         <polygon class="stripe-1" points="47.09 201.44 88.79 201.44 80.58 207.78 46.73 207.69 47.09 201.44" />
         <polygon class="stripe-3 e6100245-155f-4d0d-8341-d7dc98421189" points="136.17 201.44 94.15 201.47 102.09 207.78 136.45 207.78 136.17 201.44" />
         <polygon class="stripe-1" points="80.73 207.78 102.01 207.75 98.66 213.94 84.2 213.94 80.73 207.78" />
         <polygon class="stripe-3 e6100245-155f-4d0d-8341-d7dc98421189" points="47.64 213.75 88.79 213.75 80.69 220.09 47.29 220.01 47.64 213.75" />
         <polygon class="stripe-1" points="135.7 213.76 94.15 213.78 102.01 220.09 135.98 220.09 135.7 213.76" />
         <polygon class="stripe-1" points="80.73 220.09 102.01 220.07 98.66 226.25 84.2 226.25 80.73 220.09" />
         <polygon class="stripe-1" points="47.09 226.34 88.79 226.34 80.58 232.68 46.73 232.59 47.09 226.34" />
         <polygon class="stripe-3 e6100245-155f-4d0d-8341-d7dc98421189" points="136.17 226.34 94.15 226.37 102.09 232.68 136.45 232.68 136.17 226.34" />
         <polygon class="stripe-1" points="80.73 232.68 102.01 232.65 98.66 238.84 84.2 238.84 80.73 232.68" />
        
         <path class="symbol-left e9002090-b01a-4960-bb2f-c3a097bd156b" d="M76.36,360.1c.29-4.48.71-8.91.78-13.33,0-1-1-2.23-1.83-3-1.29-1.16-3-1.86-4.26-3.07a3.24,3.24,0,0,1-.76-2.89,2.42,2.42,0,0,1,3.58-1.17c1.33.7,2.63,1.46,4,2.07,9.83,4.37,19.22,3.4,28.23-2.33,1-.65,2-1.57,3.24-.14,1.75,1.94,2,3-.23,4.45-3.89,2.46-4.79,5.81-4.31,10a28.06,28.06,0,0,1,0,6.28c-.27,2.32.83,3.13,2.86,3.44a23.42,23.42,0,0,1,3.39.87c1.28.39,2.76.71,2.43,2.58s-1.62,2.65-3.45,2.57c-3.68-.15-7.36-.52-11-.45-8.12.16-16.24.54-24.36.81a15.93,15.93,0,0,1-4.74-.12,4.56,4.56,0,0,1-2.3-2.49c-.17-.39.88-1.73,1.61-2C71.41,361.38,73.78,360.84,76.36,360.1ZM82,346.53c0,4.44,0,8.34,0,12.24,0,.24.12.67.23.68a17.43,17.43,0,0,0,4.35.35A2.75,2.75,0,0,0,88.46,358a87.77,87.77,0,0,0-.08-9,1.87,1.87,0,0,0-1.09-1.34C85.87,347.18,84.38,347,82,346.53Zm17.29.2c-5.13.35-5.27.52-5.09,4.8.08,2.09.15,4.18.07,6.26-.07,1.84,1.22,1.94,2.44,2.14s2.51-.1,2.55-1.63C99.32,354.5,99.25,350.7,99.25,346.73Z" />
         <path class="symbol-left e9002090-b01a-4960-bb2f-c3a097bd156b" d="M122.24,334.5c.09,1.47-2.27,2.9-3.66,2.41a22.48,22.48,0,0,1-3.16-1.54c-7.43-4-14.87-8.06-22.27-12.16a5.15,5.15,0,0,0-5.24-.34q-11,5.75-22.11,11.46c-1.11.57-2.29,1.45-3.42,1.44a7.16,7.16,0,0,1-3.56-1.53,4.09,4.09,0,0,1,1-2.49,151.4,151.4,0,0,1,27.86-17c1.32-.63,3.55-.84,4.69-.14,9.34,5.76,18.53,11.75,27.73,17.73A12.37,12.37,0,0,1,122.24,334.5Z" />
         <path class="symbol-left e9002090-b01a-4960-bb2f-c3a097bd156b" d="M94.74,332.07a4.74,4.74,0,0,1-4.25,4.5c-2.16.05-4.55-2-4.55-3.88a4,4,0,0,1,4-4.24C92.84,328.37,94.69,329.77,94.74,332.07Z" />
         
         <path class="symbol-right e9002090-b01a-4960-bb2f-c3a097bd156b" d="M278.58,360.1c.29-4.48.7-8.91.77-13.33,0-1-1-2.23-1.82-3-1.3-1.16-3-1.86-4.27-3.07a3.3,3.3,0,0,1-.76-2.89,2.43,2.43,0,0,1,3.59-1.17c1.33.7,2.63,1.46,4,2.07,9.82,4.37,19.22,3.4,28.22-2.33,1-.65,2-1.57,3.25-.14,1.75,1.94,2,3-.23,4.45-3.89,2.46-4.79,5.81-4.32,10a27.48,27.48,0,0,1,0,6.28c-.27,2.32.83,3.13,2.86,3.44a24.1,24.1,0,0,1,3.39.87c1.28.39,2.76.71,2.42,2.58s-1.61,2.65-3.44,2.57c-3.68-.15-7.36-.52-11-.45-8.12.16-16.24.54-24.37.81a16,16,0,0,1-4.74-.12,4.54,4.54,0,0,1-2.29-2.49c-.17-.39.88-1.73,1.61-2C273.62,361.38,276,360.84,278.58,360.1Zm5.6-13.57c0,4.44,0,8.34,0,12.24,0,.24.12.67.22.68a17.55,17.55,0,0,0,4.36.35,2.75,2.75,0,0,0,1.9-1.83,85,85,0,0,0-.07-9,1.88,1.88,0,0,0-1.1-1.34C288.08,347.18,286.59,347,284.18,346.53Zm17.29.2c-5.13.35-5.27.52-5.1,4.8.09,2.09.16,4.18.08,6.26-.08,1.84,1.21,1.94,2.44,2.14s2.51-.1,2.55-1.63C301.54,354.5,301.47,350.7,301.47,346.73Z" />
         <path class="symbol-right e9002090-b01a-4960-bb2f-c3a097bd156b" d="M324.46,334.5c.09,1.47-2.27,2.9-3.66,2.41a22.6,22.6,0,0,1-3.17-1.54c-7.43-4-14.87-8.06-22.26-12.16a5.15,5.15,0,0,0-5.24-.34L268,334.33c-1.12.57-2.29,1.45-3.43,1.44a7.17,7.17,0,0,1-3.55-1.53,4.09,4.09,0,0,1,1-2.49,151.4,151.4,0,0,1,27.86-17c1.32-.63,3.55-.84,4.68-.14,9.35,5.76,18.54,11.75,27.74,17.73A12.37,12.37,0,0,1,324.46,334.5Z" />
         <path class="symbol-right e9002090-b01a-4960-bb2f-c3a097bd156b" d="M297,332.07a4.75,4.75,0,0,1-4.26,4.5c-2.15.05-4.54-2-4.54-3.88a4,4,0,0,1,4-4.24C295.05,328.37,296.91,329.77,297,332.07Z" />
        
         <polygon class="stripe-4" points="142.88 384.85 39.27 384.85 39.34 382.69 142.76 382.5 142.88 384.85" />
         <polygon class="stripe-4" points="139.61 296.74 44.03 296.73 44.09 294.58 139.5 294.38 139.61 296.74" />
         <polygon class="stripe-4" points="341.68 384.85 238.07 384.85 238.14 382.69 341.56 382.5 341.68 384.85" />
         <polygon class="stripe-4" points="338.41 296.74 242.83 296.73 242.9 294.58 338.3 294.38 338.41 296.74" />
      </g>
   </g>
</svg>