<?xml version="1.0" encoding="UTF-8"?>
<svg xmlns="http://www.w3.org/2000/svg" xmlns:xlink="http://www.w3.org/1999/xlink" viewBox="0 0 382.08 562.32">
   <defs>
      <style>.f66981fc-91dd-4301-a1a7-9754f47be7e0{opacity:0.53;}.f4d3561b-a046-4294-99c3-aa62c61872f0{fill:#d96227;}.a241e1ed-f7b2-4b75-a130-b56866c68f2a,.abf21f5c-6c80-4fc1-ab5a-453f83108a12,.b958a854-4cda-46c7-bad4-f85cb892c6ca{fill:#323333;}.b958a854-4cda-46c7-bad4-f85cb892c6ca{font-size:17.15px;}.abf21f5c-6c80-4fc1-ab5a-453f83108a12,.b958a854-4cda-46c7-bad4-f85cb892c6ca{font-family:Montserrat-Black, Montserrat;font-weight:800;}.a5158463-ceaf-493e-a270-e49101758b9a{letter-spacing:0.01em;}.f57441d4-e9b9-4f7d-8776-edf1c8296b0a{letter-spacing:-0.01em;}.abf21f5c-6c80-4fc1-ab5a-453f83108a12{writing-mode:tb;text-orientation:upright;glyph-orientation-vertical:0deg;font-size:25.84px;}</style>
   </defs>
   <title>Asset 9</title>
   <g id="b0c108e0-4003-497f-b4b1-88a6cd0049c3" data-name="Layer 2">
      <g id="bdc71470-4c2d-43a9-9de2-77b37aa96d91" data-name="Layer 1">
         <g class="f66981fc-91dd-4301-a1a7-9754f47be7e0" />
         <path class="base-stole f4d3561b-a046-4294-99c3-aa62c61872f0" d="M346,520.06H233.61c5.25-133.66,10.68-268,15.65-401.66.38-10.3-1.12-38.12-1.63-42.65-1.63-14.39-6.19-28.51-4.54-43.24,9.28-.1,86.83,43.19,87.28,57.68C334.32,213.65,346.59,518.11,346,520.06Z" />
         <path class="base-stole f4d3561b-a046-4294-99c3-aa62c61872f0" d="M36.23,520.06H148.6c-5.26-133.66-10.68-268-15.65-401.66-.39-10.3,1.11-38.12,1.63-42.65,1.63-14.39,6.18-28.51,4.54-43.24-9.29-.1-86.83,43.19-87.29,57.68C47.89,213.65,35.62,518.11,36.23,520.06Z" />
         <path d="M194,87.33l54.8,0s-3.37-35.13-5.67-54.77c-.17-5-38.6-.94-52-.3-13.38-.64-51.81-4.67-52,.3-2.3,19.64-5.67,54.77-5.67,54.77l54.79,0H194Z" />
         <polygon class="stripe-1 a241e1ed-f7b2-4b75-a130-b56866c68f2a" points="133.11 107.09 51.26 107.08 51.32 104.93 133.01 104.73 133.11 107.09" />
         <polygon class="stripe-2 a241e1ed-f7b2-4b75-a130-b56866c68f2a" points="132.91 114.05 51.02 114.05 51.1 111.89 132.9 111.89 132.91 114.05" />
         <polygon class="stripe-3 a241e1ed-f7b2-4b75-a130-b56866c68f2a" points="133.05 121.01 50.77 121.01 50.88 118.85 132.97 118.85 133.05 121.01" />
         <polygon class="stripe-4 a241e1ed-f7b2-4b75-a130-b56866c68f2a" points="133.31 127.97 50.51 127.97 50.63 125.81 133.25 125.81 133.31 127.97" />
         <polygon class="stripe-5 a241e1ed-f7b2-4b75-a130-b56866c68f2a" points="133.62 134.93 50.28 134.93 50.42 132.77 133.5 132.77 133.62 134.93" />
         <polygon class="stripe-6 a241e1ed-f7b2-4b75-a130-b56866c68f2a" points="133.9 141.89 50.06 141.89 50.15 139.73 133.75 139.73 133.9 141.89" />
         
         <polygon class="stripe-1 a241e1ed-f7b2-4b75-a130-b56866c68f2a" points="138.31 238.89 46.09 238.88 46.15 236.73 138.19 236.54 138.31 238.89" />
         <polygon class="stripe-2 a241e1ed-f7b2-4b75-a130-b56866c68f2a" points="138.08 245.85 45.81 245.85 45.91 243.69 138.07 243.69 138.08 245.85" />
         <polygon class="stripe-3 a241e1ed-f7b2-4b75-a130-b56866c68f2a" points="138.24 252.81 45.54 252.81 45.65 250.65 138.15 250.65 138.24 252.81" />
         <polygon class="stripe-4 a241e1ed-f7b2-4b75-a130-b56866c68f2a" points="138.53 259.77 45.24 259.77 45.37 257.61 138.47 257.61 138.53 259.77" />
         <polygon class="stripe-5 a241e1ed-f7b2-4b75-a130-b56866c68f2a" points="138.88 266.73 44.98 266.73 45.14 264.57 138.75 264.57 138.88 266.73" />
         <polygon class="stripe-6 a241e1ed-f7b2-4b75-a130-b56866c68f2a" points="139.2 273.69 44.73 273.69 44.84 271.53 139.03 271.53 139.2 273.69" />
         
         <polygon class="stripe-1 a241e1ed-f7b2-4b75-a130-b56866c68f2a" points="146.75 462.11 38.07 462.1 38.14 459.95 146.62 459.75 146.75 462.11" />
         <polygon class="stripe-2 a241e1ed-f7b2-4b75-a130-b56866c68f2a" points="146.49 469.06 37.74 469.06 37.85 466.91 146.46 466.91 146.49 469.06" />
         <polygon class="stripe-3 a241e1ed-f7b2-4b75-a130-b56866c68f2a" points="146.67 476.02 37.42 476.02 37.55 473.87 146.56 473.87 146.67 476.02" />
         <polygon class="stripe-4 a241e1ed-f7b2-4b75-a130-b56866c68f2a" points="147.02 482.99 37.07 482.99 37.22 480.83 146.94 480.83 147.02 482.99" />
         <polygon class="stripe-5 a241e1ed-f7b2-4b75-a130-b56866c68f2a" points="147.43 489.94 36.77 489.94 36.95 487.79 147.27 487.79 147.43 489.94" />
         <polygon class="stripe-6 a241e1ed-f7b2-4b75-a130-b56866c68f2a" points="147.8 496.9 36.47 496.9 36.59 494.75 147.6 494.75 147.8 496.9" />
         
         <polygon class="stripe-1 a241e1ed-f7b2-4b75-a130-b56866c68f2a" points="330.42 107.09 248.58 107.08 248.63 104.93 330.32 104.73 330.42 107.09" />
         <polygon class="stripe-2 a241e1ed-f7b2-4b75-a130-b56866c68f2a" points="330.23 114.05 248.33 114.05 248.42 111.89 330.21 111.89 330.23 114.05" />
         <polygon class="stripe-3 a241e1ed-f7b2-4b75-a130-b56866c68f2a" points="330.36 121.01 248.09 121.01 248.19 118.85 330.28 118.85 330.36 121.01" />
         <polygon class="stripe-4 a241e1ed-f7b2-4b75-a130-b56866c68f2a" points="330.63 127.97 247.83 127.97 247.94 125.81 330.57 125.81 330.63 127.97" />
         <polygon class="stripe-5 a241e1ed-f7b2-4b75-a130-b56866c68f2a" points="330.94 134.93 247.6 134.93 247.73 132.77 330.82 132.77 330.94 134.93" />
         <polygon class="stripe-6 a241e1ed-f7b2-4b75-a130-b56866c68f2a" points="331.22 141.89 247.38 141.89 247.47 139.73 331.07 139.73 331.22 141.89" />
        
         <polygon class="stripe-1 a241e1ed-f7b2-4b75-a130-b56866c68f2a" points="335.62 238.89 243.4 238.88 243.47 236.73 335.51 236.54 335.62 238.89" />
         <polygon class="stripe-2 a241e1ed-f7b2-4b75-a130-b56866c68f2a" points="335.4 245.85 243.12 245.85 243.22 243.69 335.38 243.69 335.4 245.85" />
         <polygon class="stripe-3 a241e1ed-f7b2-4b75-a130-b56866c68f2a" points="335.55 252.81 242.85 252.81 242.97 250.65 335.46 250.65 335.55 252.81" />
         <polygon class="stripe-4 a241e1ed-f7b2-4b75-a130-b56866c68f2a" points="335.85 259.77 242.56 259.77 242.69 257.61 335.78 257.61 335.85 259.77" />
         <polygon class="stripe-5 a241e1ed-f7b2-4b75-a130-b56866c68f2a" points="336.2 266.73 242.3 266.73 242.45 264.57 336.07 264.57 336.2 266.73" />
         <polygon class="stripe-6 a241e1ed-f7b2-4b75-a130-b56866c68f2a" points="336.52 273.69 242.05 273.69 242.15 271.53 336.35 271.53 336.52 273.69" />
         
         <polygon class="stripe-1 a241e1ed-f7b2-4b75-a130-b56866c68f2a" points="344.06 462.11 235.38 462.1 235.46 459.95 343.93 459.75 344.06 462.11" />
         <polygon class="stripe-2 a241e1ed-f7b2-4b75-a130-b56866c68f2a" points="343.8 469.06 235.05 469.06 235.17 466.91 343.78 466.91 343.8 469.06" />
         <polygon class="stripe-3 a241e1ed-f7b2-4b75-a130-b56866c68f2a" points="343.98 476.02 234.73 476.02 234.87 473.87 343.87 473.87 343.98 476.02" />
         <polygon class="stripe-4 a241e1ed-f7b2-4b75-a130-b56866c68f2a" points="344.33 482.99 234.39 482.99 234.54 480.83 344.25 480.83 344.33 482.99" />
         <polygon class="stripe-5 a241e1ed-f7b2-4b75-a130-b56866c68f2a" points="344.74 489.94 234.08 489.94 234.26 487.79 344.59 487.79 344.74 489.94" />
         <polygon class="stripe-6 a241e1ed-f7b2-4b75-a130-b56866c68f2a" points="345.12 496.9 233.78 496.9 233.91 494.75 344.91 494.75 345.12 496.9" />
         
         <!-- <text class="b958a854-4cda-46c7-bad4-f85cb892c6ca" transform="translate(260.69 352.35)">
            C
            <tspan class="a5158463-ceaf-493e-a270-e49101758b9a" x="12.76" y="0">L</tspan>
            <tspan x="23.51" y="0">ASS</tspan>
            <tspan x="17.14" y="20.58">OF</tspan>
            <tspan x="9.76" y="41.15">2</tspan>
            <tspan class="f57441d4-e9b9-4f7d-8776-edf1c8296b0a" x="20.18" y="41.15">0</tspan>
            <tspan x="31.88" y="41.15">17</tspan>
         </text>
         <text class="abf21f5c-6c80-4fc1-ab5a-453f83108a12" transform="translate(91.41 306.32)">KOFI</text> -->
         
         <path class="symbol-left a241e1ed-f7b2-4b75-a130-b56866c68f2a" d="M115.87,182.06V187c-.53.14-1.06.3-1.6.42-2.53.61-5.09,1.17-7.6,1.84-1.57.43-1.93,1-1.93,2.46s0,1.5,1.84,2.14c1.68.58,1.86,1.32,1,2.92a3.43,3.43,0,0,0-.23,2c.06.39.59.74,1,1,1.25,1.09,1.28,1.69.14,2.84a6.54,6.54,0,0,0-1.06,1.18c-.57,1,0,1.79.5,2.59s.44,1.8-.25,2.1a9.23,9.23,0,0,1-1.49.47,1.79,1.79,0,0,0-1.41,2.48c.18.71.38,1.27,1.3,1.18a19.81,19.81,0,0,1,2,0h7.84v4.71H64.5v-4.71c2.78,0,5.57,0,8.36,0a1.51,1.51,0,0,0,.89-.2,2.34,2.34,0,0,0,.54-2.44c-.1-.41-.74-.72-1.19-1a4,4,0,0,0-1-.27,1.41,1.41,0,0,1-.88-2.26c1.15-1.9,1.17-2.37-.49-3.73s-1-2.1.32-3.09a1.93,1.93,0,0,0,.9-2.06,4.09,4.09,0,0,0-.52-1.24c-.75-1.27-.51-1.92.91-2.39.23-.07.51-.05.69-.19.44-.32,1-.63,1.19-1.08a2.68,2.68,0,0,0-2-3.61c-.9-.14-1.8-.21-2.68-.42-1.69-.39-3.36-.85-5-1.29v-5.14a4,4,0,0,0,.58.21c2.6.52,5.18,1.07,7.79,1.52,3.18.54,6.36,1.19,9.56,1.43a94.33,94.33,0,0,0,10.09,0,88,88,0,0,0,8.88-.65c3.52-.47,7-1.2,10.5-1.85C113.24,182.71,114.55,182.36,115.87,182.06ZM81.65,201.85a24.37,24.37,0,0,0,.81,4.63A21.32,21.32,0,0,0,85,211a5.55,5.55,0,0,0,7.72,1.27,9.45,9.45,0,0,0,3.83-5.84A31.17,31.17,0,0,0,97,200.1,11,11,0,0,0,92.58,191a4.63,4.63,0,0,0-4-.91,6.43,6.43,0,0,0-3.5,2.3A15,15,0,0,0,81.65,201.85Zm21.84-.43a11,11,0,0,0-2.42-7,4.73,4.73,0,0,0-1.39-.75,14,14,0,0,0-.05,1.44c0,.23.21.44.3.67a14.72,14.72,0,0,1,.93,8.44c-.28,1.34-.85,2.62-1.24,3.94a3.23,3.23,0,0,0,0,1c.37-.12.85-.13,1.09-.38C102.77,206.75,103.34,204.16,103.49,201.42ZM79.4,194l-.34-.32a4.17,4.17,0,0,0-1.06.67,10.59,10.59,0,0,0-2.39,6.35,10.94,10.94,0,0,0,2.59,8.08,4.69,4.69,0,0,0,1,.63c.08-.42.32-.9.2-1.24a19.74,19.74,0,0,1-1.44-6.94,22.91,22.91,0,0,1,1-5.37C79,195.25,79.23,194.64,79.4,194Z" />
         <path class="symbol-right a241e1ed-f7b2-4b75-a130-b56866c68f2a" d="M316.87,182.06V187c-.54.14-1.07.3-1.61.42-2.53.61-5.08,1.17-7.6,1.84-1.56.43-1.93,1-1.93,2.46s0,1.5,1.85,2.14c1.68.58,1.86,1.32,1,2.92a3.36,3.36,0,0,0-.24,2c.06.39.59.74.95,1,1.25,1.09,1.29,1.69.15,2.84a6.6,6.6,0,0,0-1.07,1.18c-.57,1-.05,1.79.5,2.59s.44,1.8-.24,2.1a9.9,9.9,0,0,1-1.49.47,1.79,1.79,0,0,0-1.41,2.48c.17.71.38,1.27,1.29,1.18a20,20,0,0,1,2,0h7.84v4.71H265.49v-4.71c2.79,0,5.58,0,8.36,0a1.51,1.51,0,0,0,.89-.2,2.32,2.32,0,0,0,.54-2.44c-.1-.41-.74-.72-1.19-1a3.87,3.87,0,0,0-1-.27,1.41,1.41,0,0,1-.88-2.26c1.15-1.9,1.18-2.37-.49-3.73s-1-2.1.33-3.09a1.92,1.92,0,0,0,.89-2.06,3.85,3.85,0,0,0-.52-1.24c-.74-1.27-.51-1.92.91-2.39.23-.07.52-.05.7-.19a3.57,3.57,0,0,0,1.19-1.08,2.69,2.69,0,0,0-2-3.61c-.89-.14-1.8-.21-2.68-.42-1.68-.39-3.35-.85-5-1.29v-5.14a4,4,0,0,0,.58.21c2.6.52,5.19,1.07,7.79,1.52,3.18.54,6.36,1.19,9.57,1.43a94.13,94.13,0,0,0,10.08,0,87.74,87.74,0,0,0,8.88-.65c3.52-.47,7-1.2,10.51-1.85C314.23,182.71,315.54,182.36,316.87,182.06Zm-34.23,19.79a24.37,24.37,0,0,0,.81,4.63A21.76,21.76,0,0,0,286,211a5.55,5.55,0,0,0,7.72,1.27,9.47,9.47,0,0,0,3.84-5.84,32.67,32.67,0,0,0,.46-6.34,11,11,0,0,0-4.43-9.06,4.63,4.63,0,0,0-4-.91,6.42,6.42,0,0,0-3.51,2.3A15,15,0,0,0,282.64,201.85Zm21.84-.43a11,11,0,0,0-2.42-7,4.67,4.67,0,0,0-1.38-.75,11.64,11.64,0,0,0-.06,1.44c0,.23.21.44.3.67a14.72,14.72,0,0,1,.93,8.44c-.28,1.34-.85,2.62-1.24,3.94a3.23,3.23,0,0,0,.05,1c.37-.12.86-.13,1.1-.38C303.76,206.75,304.33,204.16,304.48,201.42ZM280.4,194l-.35-.32a4.17,4.17,0,0,0-1.06.67,10.52,10.52,0,0,0-2.38,6.35,10.93,10.93,0,0,0,2.58,8.08,4.76,4.76,0,0,0,1,.63c.07-.42.32-.9.19-1.24a20,20,0,0,1-1.44-6.94,22.91,22.91,0,0,1,1-5.37C280,195.25,280.22,194.64,280.4,194Z" />
      </g>
   </g>
</svg>