<?xml version="1.0" encoding="UTF-8"?>
<svg xmlns="http://www.w3.org/2000/svg" xmlns:xlink="http://www.w3.org/1999/xlink" viewBox="0 0 382.08 562.08">
   <defs>
      <style>.b283c72e-248a-4b0b-8484-5b7266abee7c{opacity:0.53;}.a9618dcd-327c-4098-8379-6b2f1bb2d300{fill:#d0ac2b;}.a286f74e-5f82-4654-a32e-098226a06a75{font-size:17.15px;}.a286f74e-5f82-4654-a32e-098226a06a75,.f2d04528-ff95-4b20-a50c-54370dd96a5b{font-family:Montserrat-Black, Montserrat;font-weight:800;}.a11636fb-f60a-4f3e-89d0-221d7256f0ad{letter-spacing:0.01em;}.a8ab4136-18f9-4354-9bce-c755679ff6f6{letter-spacing:-0.01em;}.f2d04528-ff95-4b20-a50c-54370dd96a5b{writing-mode:tb;text-orientation:upright;glyph-orientation-vertical:0deg;font-size:25.84px;fill:#1e1e1e;}</style>
   </defs>
   <title>Asset 10</title>
   <g id="e1d7e225-a768-4387-a2c7-fb76f17cee54" data-name="Layer 2">
      <g id="a73b6fe8-64c1-4e92-a869-9d90b4d30fb5" data-name="Layer 1">
         <g class="b283c72e-248a-4b0b-8484-5b7266abee7c" />
         <path class="base-stole a9618dcd-327c-4098-8379-6b2f1bb2d300" d="M346,520H233.61c5.25-133.66,10.68-268,15.65-401.66.38-10.3-1.12-38.12-1.63-42.65-1.63-14.39-6.19-28.51-4.54-43.24,9.28-.1,86.83,43.19,87.28,57.68C334.32,213.55,346.59,518,346,520Z" />
         <path class="base-stole a9618dcd-327c-4098-8379-6b2f1bb2d300" d="M36.23,520H148.6C143.34,386.3,137.92,252,133,118.3c-.39-10.3,1.11-38.12,1.63-42.65,1.63-14.39,6.18-28.51,4.54-43.24-9.29-.1-86.83,43.19-87.29,57.68C47.89,213.55,35.62,518,36.23,520Z" />
         
         <path d="M194,87.23l54.8,0s-3.37-35.13-5.67-54.77c-.17-5-38.6-.94-52-.3-13.38-.64-51.81-4.67-52,.3-2.3,19.64-5.67,54.77-5.67,54.77l54.79,0H194Z" />
         
         <polygon class="stripe-1 " points="133.11 106.99 51.26 106.98 51.32 104.83 133.01 104.63 133.11 106.99" />
         <polygon class="stripe-2 " points="132.91 113.95 51.02 113.95 51.1 111.79 132.9 111.79 132.91 113.95" />
         <polygon class="stripe-3 " points="133.05 120.91 50.77 120.91 50.88 118.75 132.97 118.75 133.05 120.91" />
         <polygon class="stripe-4 " points="133.31 127.87 50.51 127.87 50.63 125.71 133.25 125.71 133.31 127.87" />
         <polygon class="stripe-5 " points="133.62 134.83 50.28 134.83 50.42 132.67 133.5 132.67 133.62 134.83" />
         <polygon class="stripe-6 " points="133.9 141.79 50.06 141.79 50.15 139.63 133.75 139.63 133.9 141.79" />
         <polygon class="stripe-1 " points="138.31 238.79 46.09 238.78 46.15 236.63 138.19 236.44 138.31 238.79" />
         <polygon class="stripe-2 " points="138.08 245.75 45.81 245.75 45.91 243.59 138.07 243.59 138.08 245.75" />
         <polygon class="stripe-3 " points="138.24 252.71 45.54 252.71 45.65 250.55 138.15 250.55 138.24 252.71" />
         <polygon class="stripe-4 " points="138.53 259.67 45.24 259.67 45.37 257.51 138.47 257.51 138.53 259.67" />
         <polygon class="stripe-5 " points="138.88 266.63 44.98 266.63 45.14 264.47 138.75 264.47 138.88 266.63" />
         <polygon class="stripe-6 " points="139.2 273.59 44.73 273.59 44.84 271.43 139.03 271.43 139.2 273.59" />
         <polygon class="stripe-1 " points="146.75 462 38.07 462 38.14 459.85 146.62 459.65 146.75 462" />
         <polygon class="stripe-2 " points="146.49 468.96 37.74 468.96 37.85 466.81 146.46 466.81 146.49 468.96" />
         <polygon class="stripe-3 " points="146.67 475.93 37.42 475.93 37.55 473.77 146.56 473.77 146.67 475.93" />
         <polygon class="stripe-4 " points="147.02 482.89 37.07 482.89 37.22 480.73 146.94 480.73 147.02 482.89" />
         <polygon class="stripe-5 " points="147.43 489.85 36.77 489.85 36.95 487.69 147.27 487.69 147.43 489.85" />
         <polygon class="stripe-6 " points="147.8 496.81 36.47 496.81 36.59 494.65 147.6 494.65 147.8 496.81" />
         <polygon class="stripe-1 " points="330.42 106.99 248.58 106.98 248.63 104.83 330.32 104.63 330.42 106.99" />
         <polygon class="stripe-2 " points="330.23 113.95 248.33 113.95 248.42 111.79 330.21 111.79 330.23 113.95" />
         <polygon class="stripe-3 " points="330.36 120.91 248.09 120.91 248.19 118.75 330.28 118.75 330.36 120.91" />
         <polygon class="stripe-4 " points="330.63 127.87 247.83 127.87 247.94 125.71 330.57 125.71 330.63 127.87" />
         <polygon class="stripe-5 " points="330.94 134.83 247.6 134.83 247.73 132.67 330.82 132.67 330.94 134.83" />
         <polygon class="stripe-6 " points="331.22 141.79 247.38 141.79 247.47 139.63 331.07 139.63 331.22 141.79" />
         <polygon class="stripe-1 " points="335.62 238.79 243.4 238.78 243.47 236.63 335.51 236.44 335.62 238.79" />
         <polygon class="stripe-2 " points="335.4 245.75 243.12 245.75 243.22 243.59 335.38 243.59 335.4 245.75" />
         <polygon class="stripe-3 "  points="335.55 252.71 242.85 252.71 242.97 250.55 335.46 250.55 335.55 252.71" />
         <polygon class="stripe-4 " points="335.85 259.67 242.56 259.67 242.69 257.51 335.78 257.51 335.85 259.67" />
         <polygon class="stripe-5 " points="336.2 266.63 242.3 266.63 242.45 264.47 336.07 264.47 336.2 266.63" />
         <polygon class="stripe-6 " points="336.52 273.59 242.05 273.59 242.15 271.43 336.35 271.43 336.52 273.59" />
         <polygon class="stripe-1 " points="344.06 462 235.38 462 235.46 459.85 343.93 459.65 344.06 462" />
         <polygon class="stripe-2 " points="343.8 468.96 235.05 468.96 235.17 466.81 343.78 466.81 343.8 468.96" />
         <polygon class="stripe-3 " points="343.98 475.93 234.73 475.93 234.87 473.77 343.87 473.77 343.98 475.93" />
         <polygon class="stripe-4 " points="344.33 482.89 234.39 482.89 234.54 480.73 344.25 480.73 344.33 482.89" />
         <polygon class="stripe-5 " points="344.74 489.85 234.08 489.85 234.26 487.69 344.59 487.69 344.74 489.85" />
         <polygon class="stripe-6 " points="345.12 496.81 233.78 496.81 233.91 494.65 344.91 494.65 345.12 496.81" />
      
         <path class="symbol-left " d="M111.27,174.74h-9.75V191h4.84V179.21h4.9v17.56H91.69v8.71h12.19v5.36H74.51v-5.33H86.7v-8.72H67.12V179.21H72V191h4.86V174.75H67.12V169h44.15Zm-24.54,4.48h5V191h4.83v-16.2H81.88V191h4.85Z" />
         <path class="symbol-right " d="M312.4,174.74h-9.75V191h4.84V179.21h4.9v17.56H292.82v8.71H305v5.36H275.64v-5.33h12.19v-8.72H268.25V179.21h4.89V191H278V174.75h-9.75V169H312.4Zm-24.54,4.48h4.95V191h4.83v-16.2H283V191h4.85Z" />
      </g>
   </g>
</svg>