<svg xmlns="http://www.w3.org/2000/svg" viewBox="0 0 382.08 562.32"><defs><style>.prefix__prefix__ecf11356-f0ef-42db-badf-3e4db2eb2c80{fill:#64ccf5}</style></defs><g id="prefix__prefix__bfea3d02-1f41-4383-a9db-9c0e15255d9a" data-name="Layer 2"><g id="prefix__prefix__ad58f192-b126-4df7-82c2-5689d2a711a8" data-name="Layer 1"><path class="prefix__prefix__stripe-2 prefix__prefix__ecf11356-f0ef-42db-badf-3e4db2eb2c80" d="M49.96 136.11h39.02l-7.68 6.34-31.68-.08.34-6.26zM133.9 148.7l-39.84.02 7.53 6.31h32.57l-.26-6.33zM48.99 161.27h39.87l-7.85 6.34-32.37-.08.35-6.26zM134.76 173.86l-40.71.02 7.7 6.31h33.29l-.28-6.33zM48.04 186.5h41.05l-8.08 6.34-33.32-.08.35-6.26zM136.34 199.09l-41.91.02 7.92 6.31h34.27l-.28-6.33zM47.41 212.3h41.9l-8.25 6.34-34-.08.35-6.26zM137.54 224.89l-42.77.02 8.08 6.32h34.97l-.28-6.34zM46.15 237.46h42.92l-8.45 6.34-34.84-.08.37-6.26zM138.48 250.05l-43.82.02 8.28 6.31h35.83l-.29-6.33zM45.2 262.69h43.81l-8.62 6.34-35.57-.08.38-6.26zM139.46 275.28l-44.74.02 8.45 6.32h36.58l-.29-6.34zM44.57 287.77h44.68l-8.8 6.34-36.26-.08.38-6.26zM140.69 300.36l-45.62.02 8.62 6.31h37.3l-.3-6.33zM43.34 313h45.72l-9 6.34-37.12-.08.4-6.26zM141.71 325.59l-46.69.02 8.82 6.31h38.18l-.31-6.33zM42.37 338.26h46.57l-9.17 6.34-37.8-.08.4-6.26zM142.54 350.85l-47.54.02 8.99 6.31h38.87l-.32-6.33zM38.51 452.87h50.24l-9.89 6.34-40.78-.08.43-6.26zM146.59 465.46l-51.3.03 9.7 6.31h41.94l-.34-6.34zM37.28 477.97h51.15l-10.07 6.34-41.52-.08.44-6.26zM37.28 503.29h51.15l-10.07 6.34-41.52-.08.44-6.26zM147.32 490.56l-52.23.02 9.88 6.31h42.7l-.35-6.33zM247.44 136.11h39.02l-7.68 6.34-31.67-.08.33-6.26zM331.38 148.7l-39.84.02 7.53 6.31h32.58l-.27-6.33zM246.47 161.27h39.87l-7.84 6.34-32.37-.08.34-6.26zM332.25 173.86l-40.71.02 7.69 6.31h33.29l-.27-6.33zM245.53 186.5h41.04l-8.08 6.34-33.31-.08.35-6.26zM333.82 199.09l-41.9.02 7.92 6.31h34.26l-.28-6.33zM244.9 212.3h41.89l-8.24 6.34-34.01-.08.36-6.26zM335.02 224.89l-42.77.02 8.08 6.32h34.98l-.29-6.34zM243.63 237.46h42.92l-8.45 6.34-34.84-.08.37-6.26zM335.97 250.05l-43.83.02 8.29 6.31h35.83l-.29-6.33zM242.68 262.69h43.82l-8.63 6.34-35.57-.08.38-6.26zM336.94 275.28l-44.74.02 8.46 6.32h36.58l-.3-6.34zM242.05 287.77h44.68l-8.79 6.34-36.27-.08.38-6.26zM338.17 300.36l-45.62.02 8.63 6.31h37.3l-.31-6.33zM240.82 313h45.73l-9 6.34-37.12-.08.39-6.26zM339.19 325.59l-46.69.02 8.83 6.31h38.17l-.31-6.33zM239.85 338.26h46.57l-9.17 6.34-37.79-.08.39-6.26zM340.03 350.85l-47.55.02 8.99 6.31h38.87l-.31-6.33zM235.99 452.87h50.25l-9.89 6.34-40.79-.08.43-6.26zM344.07 465.46l-51.29.03 9.69 6.31h41.95l-.35-6.34zM234.77 477.97h51.15l-10.07 6.34-41.52-.08.44-6.26zM234.77 503.29h51.15l-10.07 6.34-41.52-.08.44-6.26zM344.8 490.56l-52.22.02 9.87 6.31h42.7l-.35-6.33z"/></g></g></svg>