<?xml version="1.0" encoding="UTF-8"?>
<svg xmlns="http://www.w3.org/2000/svg" xmlns:xlink="http://www.w3.org/1999/xlink" viewBox="0 0 382.08 562.08">
   <defs>
      <style>
        .abb7a4ff-6749-40b3-9442-d2ab41598658 {
            opacity: 0.53;
        }

        .base-stole {
            fill: #592d85;
        }

        .adaedbda-01f0-4041-98f0-557e5088538d,
        .b0d6e95a-22d9-4047-bd2e-bb0f2bc97ba2,
        .f8f45fe2-1729-49da-a1b7-48e5fbb7723a {
            fill: #e19326;
        }

        .f8f45fe2-1729-49da-a1b7-48e5fbb7723a {
            writing-mode: tb;
            text-orientation: upright;
            glyph-orientation-vertical: 0deg;
            font-size: 15.29px;
        }

        .b0d6e95a-22d9-4047-bd2e-bb0f2bc97ba2,
        .f8f45fe2-1729-49da-a1b7-48e5fbb7723a {
            font-family: Montserrat-Black, Montserrat;
            font-weight: 800;
        }

        .b0d6e95a-22d9-4047-bd2e-bb0f2bc97ba2 {
            font-size: 17.15px;
        }

        .ac44db49-5700-494c-8564-f2fbfa7d282d {
            letter-spacing: -0.01em;
        }

        .a520acd2-2cbe-4380-a419-2951aeb0dc81 {
            letter-spacing: -0.04em;
        }

        .b0c58af0-3968-4408-bba1-dbc62e8201a6 {
            letter-spacing: 0.02em;
        }

        .e2fb0ae0-b075-4901-ab88-593b51cf2936 {
            letter-spacing: -0.01em;
        }

        .a1df952e-eaeb-4565-b5bd-75ce7eb68459 {
            letter-spacing: 0em;
        }

        .a21aee93-197b-4272-99b9-7a10b0210612 {
            letter-spacing: -0.03em;
        }
      </style>
   </defs>
   <title>Asset 6</title>
   <g id="e2c06805-81bb-4c7a-98d9-5bb8b2953204" data-name="Layer 2">
      <g id="a0d11621-1873-439d-8b20-582f669d5dbc" data-name="Layer 1">
         <g class="abb7a4ff-6749-40b3-9442-d2ab41598658" />
         <path class="base-stole" d="M346.34,520.59H234c5.26-133.65,10.68-268,15.65-401.66.39-10.3-1.11-38.12-1.63-42.65-1.63-14.39-6.18-28.5-4.54-43.24,9.29-.1,86.83,43.2,87.29,57.69C334.68,214.18,347,518.65,346.34,520.59Z" />
         <path class="base-stole" d="M36.6,520.59H149c-5.25-133.65-10.68-268-15.65-401.66-.38-10.3,1.12-38.12,1.63-42.65,1.63-14.39,6.19-28.5,4.54-43.24-9.28-.1-86.83,43.2-87.28,57.69C48.25,214.18,36,518.65,36.6,520.59Z" />
         
         <path d="M194.33,87.86c22.11,0,54.79,0,54.79,0s-3.37-35.14-5.67-54.78c-.17-5-38.6-.93-52-.3-13.39-.63-51.82-4.66-52,.3-2.3,19.64-5.67,54.78-5.67,54.78s32.88,0,54.79,0h5.73Z" />
         
         <polygon class="stripe-1 adaedbda-01f0-4041-98f0-557e5088538d" points="331.98 121.22 249.32 121.22 249.77 114.97 331.53 114.97 331.98 121.22" />
         <polygon class="stripe-2 adaedbda-01f0-4041-98f0-557e5088538d" points="332.27 131.22 248.94 131.22 249.4 124.97 331.82 124.97 332.27 131.22" />
         <polygon class="stripe-3 adaedbda-01f0-4041-98f0-557e5088538d" points="332.73 141.58 248.58 141.58 249.04 135.33 332.27 135.33 332.73 141.58" />
         <polygon class="stripe-4 adaedbda-01f0-4041-98f0-557e5088538d" points="332.73 151.95 248.17 151.95 248.64 145.7 332.27 145.7 332.73 151.95" />
         <polygon class="stripe-1 adaedbda-01f0-4041-98f0-557e5088538d" points="336.69 243.15 244.9 243.15 245.41 236.9 336.19 236.9 336.69 243.15" />
         <polygon class="stripe-2 adaedbda-01f0-4041-98f0-557e5088538d" points="337.02 253.15 244.48 253.15 244.99 246.9 336.52 246.9 337.02 253.15" />
         <polygon class="stripe-3 adaedbda-01f0-4041-98f0-557e5088538d" points="337.52 263.51 244.08 263.51 244.6 257.26 337.02 257.26 337.52 263.51" />
         <polygon class="stripe-4 adaedbda-01f0-4041-98f0-557e5088538d" points="337.52 273.89 243.63 273.89 244.15 267.64 337.02 267.64 337.52 273.89" />
         <polygon class="stripe-1 adaedbda-01f0-4041-98f0-557e5088538d" points="344.78 464.4 236.14 464.4 236.74 458.15 344.19 458.15 344.78 464.4" />
         <polygon class="stripe-2 adaedbda-01f0-4041-98f0-557e5088538d" points="345.17 474.4 235.64 474.4 236.24 468.15 344.58 468.15 345.17 474.4" />
         <polygon class="stripe-3 adaedbda-01f0-4041-98f0-557e5088538d" points="345.77 484.77 235.17 484.77 235.78 478.52 345.17 478.52 345.77 484.77" />
         <polygon class="stripe-4 adaedbda-01f0-4041-98f0-557e5088538d" points="345.77 495.14 234.63 495.14 235.24 488.89 345.17 488.89 345.77 495.14" />
         <polygon class="stripe-1 adaedbda-01f0-4041-98f0-557e5088538d" points="133.23 121.22 50.57 121.22 51.02 114.97 132.78 114.97 133.23 121.22" />
         <polygon class="stripe-2 adaedbda-01f0-4041-98f0-557e5088538d" points="133.52 131.22 50.19 131.22 50.65 124.97 133.07 124.97 133.52 131.22" />
         <polygon class="stripe-3 adaedbda-01f0-4041-98f0-557e5088538d" points="133.98 141.58 49.83 141.58 50.29 135.33 133.52 135.33 133.98 141.58" />
         <polygon class="stripe-4 adaedbda-01f0-4041-98f0-557e5088538d" points="133.98 151.95 49.42 151.95 49.89 145.7 133.52 145.7 133.98 151.95" />
         <polygon class="stripe-1 adaedbda-01f0-4041-98f0-557e5088538d" points="137.94 243.15 46.15 243.15 46.66 236.9 137.44 236.9 137.94 243.15" />
         <polygon class="stripe-2 adaedbda-01f0-4041-98f0-557e5088538d" points="138.27 253.15 45.73 253.15 46.24 246.9 137.77 246.9 138.27 253.15" />
         <polygon class="stripe-3 adaedbda-01f0-4041-98f0-557e5088538d" points="138.78 263.51 45.33 263.51 45.85 257.26 138.27 257.26 138.78 263.51" />
         <polygon class="stripe-4 adaedbda-01f0-4041-98f0-557e5088538d" points="138.78 273.89 44.88 273.89 45.4 267.64 138.27 267.64 138.78 273.89" />
         <polygon class="stripe-1 adaedbda-01f0-4041-98f0-557e5088538d" points="146.03 464.4 37.39 464.4 37.99 458.15 145.44 458.15 146.03 464.4" />
         <polygon class="stripe-2 adaedbda-01f0-4041-98f0-557e5088538d" points="146.42 474.4 36.89 474.4 37.49 468.15 145.83 468.15 146.42 474.4" />
         <polygon class="stripe-3 adaedbda-01f0-4041-98f0-557e5088538d" points="147.02 484.77 36.42 484.77 37.03 478.52 146.42 478.52 147.02 484.77" />
         <polygon class="stripe-4 adaedbda-01f0-4041-98f0-557e5088538d" points="147.02 495.14 35.88 495.14 36.49 488.89 146.42 488.89 147.02 495.14" />

         <path class="symbol-left adaedbda-01f0-4041-98f0-557e5088538d" d="M88.66,213.09c-.2-.56-.41-1.05-.55-1.55a13.27,13.27,0,0,0-2.83-5.13c-3.13-3.7-6.26-7.41-9.44-11.07a33.79,33.79,0,0,1-6.37-9.82,15.83,15.83,0,0,1-.89-9.1,9.16,9.16,0,0,1,6.55-7.31,11.15,11.15,0,0,1,13.37,4.22l.3.43c.51-.59,1-1.19,1.47-1.71a11.33,11.33,0,0,1,9.61-3.36c5.09.47,8.47,4.11,9.48,9.12a13,13,0,0,1-.83,8.66,41.12,41.12,0,0,1-3.07,5,57.16,57.16,0,0,1-6,6.76,73.17,73.17,0,0,0-8.44,10.16,40.62,40.62,0,0,0-2.12,4.16Zm.2-7.07a1.56,1.56,0,0,0,.13-.13,96.79,96.79,0,0,1,9.29-10.84,40.54,40.54,0,0,0,5.45-6.46,24.89,24.89,0,0,0,2.41-4.41,10.41,10.41,0,0,0,0-6.62,7.77,7.77,0,0,0-3.66-4.95A8.57,8.57,0,0,0,91.79,175a13.26,13.26,0,0,0-2.13,4.53c-.3,1-.64,2-1,3a14.21,14.21,0,0,1-.6-1.77,25.82,25.82,0,0,0-1.5-4.58c-2.82-5.42-8.59-5.72-12.66-3-1.89,1.25-2.41,3.3-2.58,5.42a14.92,14.92,0,0,0,2.07,8.29,41.55,41.55,0,0,0,5.79,7.74c2.57,3,5.1,5.93,7.62,8.92C87.55,204.28,88.19,205.16,88.86,206Z" />
         <path class="symbol-right adaedbda-01f0-4041-98f0-557e5088538d" d="M289.19,213.09c-.2-.56-.41-1.05-.55-1.55a13.16,13.16,0,0,0-2.84-5.13c-3.13-3.7-6.25-7.41-9.43-11.07a33.79,33.79,0,0,1-6.37-9.82,15.83,15.83,0,0,1-.89-9.1,9.15,9.15,0,0,1,6.54-7.31A11.16,11.16,0,0,1,289,173.33c.09.14.19.27.3.43.5-.59.95-1.19,1.47-1.71a11.32,11.32,0,0,1,9.61-3.36c5.08.47,8.46,4.11,9.47,9.12a13,13,0,0,1-.82,8.66,42.42,42.42,0,0,1-3.07,5,58.16,58.16,0,0,1-6,6.76,73.81,73.81,0,0,0-8.43,10.16,40.62,40.62,0,0,0-2.12,4.16Zm.2-7.07a.64.64,0,0,0,.12-.13,97.93,97.93,0,0,1,9.3-10.84,41.07,41.07,0,0,0,5.45-6.46,24.21,24.21,0,0,0,2.4-4.41,10.35,10.35,0,0,0,0-6.62,7.76,7.76,0,0,0-3.65-4.95A8.57,8.57,0,0,0,292.32,175a13.29,13.29,0,0,0-2.14,4.53c-.29,1-.63,2-.95,3a16,16,0,0,1-.59-1.77,26.66,26.66,0,0,0-1.5-4.58c-2.82-5.42-8.6-5.72-12.66-3-1.89,1.25-2.41,3.3-2.59,5.42A14.93,14.93,0,0,0,274,186.8a41.55,41.55,0,0,0,5.79,7.74c2.56,3,5.09,5.93,7.62,8.92C288.08,204.28,288.72,205.16,289.39,206Z" />
      </g>
   </g>
</svg>