<?xml version="1.0" encoding="UTF-8"?>
<svg xmlns="http://www.w3.org/2000/svg" xmlns:xlink="http://www.w3.org/1999/xlink" viewBox="0 0 382.08 562.32">
   <defs>
      <style>.b373131b-2e35-407b-99ea-0abe124385fb{opacity:0.53;}.b9ae1c97-7b10-4285-a24c-d5a8da08281e{fill:#d54756;}.ba0408c0-d075-4b04-81dd-7af3cc6b3c98,.be3d21c9-2232-468c-94db-23d5bbb96321,.ffe30014-675e-4036-8d19-08f5f107ceec{fill:#ffffff;}.be3d21c9-2232-468c-94db-23d5bbb96321{font-size:17.15px;}.be3d21c9-2232-468c-94db-23d5bbb96321,.ffe30014-675e-4036-8d19-08f5f107ceec{font-family:Montserrat-Black, Montserrat;font-weight:800;}.b34adbbb-87cb-4191-b427-1dfa808fd7a4{letter-spacing:0.01em;}.bbe43965-50b3-41d4-b6b1-2b7d2b67db6a{letter-spacing:-0.01em;}.ffe30014-675e-4036-8d19-08f5f107ceec{writing-mode:tb;text-orientation:upright;glyph-orientation-vertical:0deg;font-size:25.84px;}</style>
   </defs>
   <title>Asset 8</title>
   <g id="b7a3794e-5da7-4fa3-8e59-96d3a8ba1f3d" data-name="Layer 2">
      <g id="b6664324-7e1b-45e1-999d-188b3e1a811a" data-name="Layer 1">
         <g class="b373131b-2e35-407b-99ea-0abe124385fb" />
         <path class="base-stole b9ae1c97-7b10-4285-a24c-d5a8da08281e" d="M346,520H233.61c5.25-133.66,10.68-268,15.65-401.66.38-10.3-1.12-38.12-1.63-42.65-1.63-14.39-6.19-28.51-4.54-43.24,9.28-.1,86.83,43.19,87.28,57.68C334.32,213.6,346.59,518.06,346,520Z" />
         <path class="base-stole b9ae1c97-7b10-4285-a24c-d5a8da08281e" d="M36.23,520H148.6C143.34,386.35,137.92,252,133,118.35c-.39-10.3,1.11-38.12,1.63-42.65,1.63-14.39,6.18-28.51,4.54-43.24-9.29-.1-86.83,43.19-87.29,57.68C47.89,213.6,35.62,518.06,36.23,520Z" />
         <path d="M194,87.28l54.8,0s-3.37-35.13-5.67-54.77c-.17-5-38.6-.94-52-.3-13.38-.64-51.81-4.67-52,.3-2.3,19.64-5.67,54.77-5.67,54.77l54.79,0H194Z" />
         <polygon class="stripe-1 ba0408c0-d075-4b04-81dd-7af3cc6b3c98" points="133.11 107.04 51.26 107.03 51.32 104.88 133.01 104.68 133.11 107.04" />
         <polygon class="stripe-2 ba0408c0-d075-4b04-81dd-7af3cc6b3c98" points="132.91 114 51.02 114 51.1 111.84 132.9 111.84 132.91 114" />
         <polygon class="stripe-3 ba0408c0-d075-4b04-81dd-7af3cc6b3c98" points="133.05 120.96 50.77 120.96 50.88 118.8 132.97 118.8 133.05 120.96" />
         <polygon class="stripe-4 ba0408c0-d075-4b04-81dd-7af3cc6b3c98" points="133.31 127.92 50.51 127.92 50.63 125.76 133.25 125.76 133.31 127.92" />
         <polygon class="stripe-5 ba0408c0-d075-4b04-81dd-7af3cc6b3c98" points="133.62 134.88 50.28 134.88 50.42 132.72 133.5 132.72 133.62 134.88" />
         <polygon class="stripe-6 ba0408c0-d075-4b04-81dd-7af3cc6b3c98" points="133.9 141.84 50.06 141.84 50.15 139.68 133.75 139.68 133.9 141.84" />
         
         <polygon class="stripe-1 ba0408c0-d075-4b04-81dd-7af3cc6b3c98" points="138.31 238.84 46.09 238.83 46.15 236.68 138.19 236.49 138.31 238.84" />
         <polygon class="stripe-2 ba0408c0-d075-4b04-81dd-7af3cc6b3c98" points="138.08 245.8 45.81 245.8 45.91 243.64 138.07 243.64 138.08 245.8" />
         <polygon class="stripe-3 ba0408c0-d075-4b04-81dd-7af3cc6b3c98" points="138.24 252.76 45.54 252.76 45.65 250.6 138.15 250.6 138.24 252.76" />
         <polygon class="stripe-4 ba0408c0-d075-4b04-81dd-7af3cc6b3c98" points="138.53 259.72 45.24 259.72 45.37 257.56 138.47 257.56 138.53 259.72" />
         <polygon class="stripe-5 ba0408c0-d075-4b04-81dd-7af3cc6b3c98" points="138.88 266.68 44.98 266.68 45.14 264.52 138.75 264.52 138.88 266.68" />
         <polygon class="stripe-6 ba0408c0-d075-4b04-81dd-7af3cc6b3c98" points="139.2 273.64 44.73 273.64 44.84 271.48 139.03 271.48 139.2 273.64" />
         
         <polygon class="stripe-1 ba0408c0-d075-4b04-81dd-7af3cc6b3c98" points="146.75 462.06 38.07 462.05 38.14 459.9 146.62 459.7 146.75 462.06" />
         <polygon class="stripe-2 ba0408c0-d075-4b04-81dd-7af3cc6b3c98" points="146.49 469.01 37.74 469.01 37.85 466.86 146.46 466.86 146.49 469.01" />
         <polygon class="stripe-3 ba0408c0-d075-4b04-81dd-7af3cc6b3c98" points="146.67 475.98 37.42 475.98 37.55 473.82 146.56 473.82 146.67 475.98" />
         <polygon class="stripe-4 ba0408c0-d075-4b04-81dd-7af3cc6b3c98" points="147.02 482.94 37.07 482.94 37.22 480.78 146.94 480.78 147.02 482.94" />
         <polygon class="stripe-5 ba0408c0-d075-4b04-81dd-7af3cc6b3c98" points="147.43 489.89 36.77 489.89 36.95 487.74 147.27 487.74 147.43 489.89" />
         <polygon class="stripe-6 ba0408c0-d075-4b04-81dd-7af3cc6b3c98" points="147.8 496.86 36.47 496.86 36.59 494.7 147.6 494.7 147.8 496.86" />
         
         <polygon class="stripe-1 ba0408c0-d075-4b04-81dd-7af3cc6b3c98" points="330.42 107.04 248.58 107.03 248.63 104.88 330.32 104.68 330.42 107.04" />
         <polygon class="stripe-2 ba0408c0-d075-4b04-81dd-7af3cc6b3c98" points="330.23 114 248.33 114 248.42 111.84 330.21 111.84 330.23 114" />
         <polygon class="stripe-3 ba0408c0-d075-4b04-81dd-7af3cc6b3c98" points="330.36 120.96 248.09 120.96 248.19 118.8 330.28 118.8 330.36 120.96" />
         <polygon class="stripe-4 ba0408c0-d075-4b04-81dd-7af3cc6b3c98" points="330.63 127.92 247.83 127.92 247.94 125.76 330.57 125.76 330.63 127.92" />
         <polygon class="stripe-5 ba0408c0-d075-4b04-81dd-7af3cc6b3c98" points="330.94 134.88 247.6 134.88 247.73 132.72 330.82 132.72 330.94 134.88" />
         <polygon class="stripe-6 ba0408c0-d075-4b04-81dd-7af3cc6b3c98" points="331.22 141.84 247.38 141.84 247.47 139.68 331.07 139.68 331.22 141.84" />
        
         <polygon class="stripe-1 ba0408c0-d075-4b04-81dd-7af3cc6b3c98" points="335.62 238.84 243.4 238.83 243.47 236.68 335.51 236.49 335.62 238.84" />
         <polygon class="stripe-2 ba0408c0-d075-4b04-81dd-7af3cc6b3c98" points="335.4 245.8 243.12 245.8 243.22 243.64 335.38 243.64 335.4 245.8" />
         <polygon class="stripe-3 ba0408c0-d075-4b04-81dd-7af3cc6b3c98" points="335.55 252.76 242.85 252.76 242.97 250.6 335.46 250.6 335.55 252.76" />
         <polygon class="stripe-4 ba0408c0-d075-4b04-81dd-7af3cc6b3c98" points="335.85 259.72 242.56 259.72 242.69 257.56 335.78 257.56 335.85 259.72" />
         <polygon class="stripe-5 ba0408c0-d075-4b04-81dd-7af3cc6b3c98" points="336.2 266.68 242.3 266.68 242.45 264.52 336.07 264.52 336.2 266.68" />
         <polygon class="stripe-6 ba0408c0-d075-4b04-81dd-7af3cc6b3c98" points="336.52 273.64 242.05 273.64 242.15 271.48 336.35 271.48 336.52 273.64" />
         
         <polygon class="stripe-1 ba0408c0-d075-4b04-81dd-7af3cc6b3c98" points="344.06 462.06 235.38 462.05 235.46 459.9 343.93 459.7 344.06 462.06" />
         <polygon class="stripe-2 ba0408c0-d075-4b04-81dd-7af3cc6b3c98" points="343.8 469.01 235.05 469.01 235.17 466.86 343.78 466.86 343.8 469.01" />
         <polygon class="stripe-3 ba0408c0-d075-4b04-81dd-7af3cc6b3c98" points="343.98 475.98 234.73 475.98 234.87 473.82 343.87 473.82 343.98 475.98" />
         <polygon class="stripe-4 ba0408c0-d075-4b04-81dd-7af3cc6b3c98" points="344.33 482.94 234.39 482.94 234.54 480.78 344.25 480.78 344.33 482.94" />
         <polygon class="stripe-5 ba0408c0-d075-4b04-81dd-7af3cc6b3c98" points="344.74 489.89 234.08 489.89 234.26 487.74 344.59 487.74 344.74 489.89" />
         <polygon class="stripe-6 ba0408c0-d075-4b04-81dd-7af3cc6b3c98" points="345.12 496.86 233.78 496.86 233.91 494.7 344.91 494.7 345.12 496.86" />
         
         <!-- <text class="be3d21c9-2232-468c-94db-23d5bbb96321" transform="translate(260.69 352.3)">
            C
            <tspan class="b34adbbb-87cb-4191-b427-1dfa808fd7a4" x="12.76" y="0">L</tspan>
            <tspan x="23.51" y="0">ASS</tspan>
            <tspan x="17.14" y="20.58">OF</tspan>
            <tspan x="9.76" y="41.15">2</tspan>
            <tspan class="bbe43965-50b3-41d4-b6b1-2b7d2b67db6a" x="20.18" y="41.15">0</tspan>
            <tspan x="31.87" y="41.15">17</tspan>
         </text> -->
         <!-- <text class="ffe30014-675e-4036-8d19-08f5f107ceec" transform="translate(91.41 306.27)">KWEKU</text> -->
         
         <path class="symbol-left ba0408c0-d075-4b04-81dd-7af3cc6b3c98" d="M97.37,209.36l4.68-4.55L100,202.67q-1.47-1.48-2.91-3a1.06,1.06,0,0,0-.81-.36l-8.76-.07a.64.64,0,0,0-.43.16l-5.16,5s0,.07-.09.14l4.54,4.67A7.45,7.45,0,1,1,76,198.55l4.58,4.7c1.33-1.29,2.59-2.59,3.93-3.8a2.4,2.4,0,0,0,.83-2c0-3.16.06-6.31.09-9.47a.59.59,0,0,0-.13-.39c-1.44-1.5-2.88-3-4.33-4.47a.83.83,0,0,0-.15-.09l-4.67,4.54a7.45,7.45,0,1,1,10.68-10.4l-4.7,4.58L84,183.67c1.11,1.14,2.21,2.27,3.33,3.4a.7.7,0,0,0,.45.21c2.19.05,4.38.07,6.57.1.76,0,1.52,0,2.27,0a.65.65,0,0,0,.4-.14l5.28-5.15a.48.48,0,0,0,.06-.11l-4.56-4.69a7.47,7.47,0,0,1,12.38,3.26,7.31,7.31,0,0,1-1.94,7.47l-4.6-4.72-2.54,2.45c-.72.7-1.43,1.42-2.16,2.11a1,1,0,0,0-.35.76c0,3.22-.07,6.43-.1,9.65a.64.64,0,0,0,.15.42c1.51,1.57,3,3.13,4.56,4.68a1.74,1.74,0,0,0,.18.16L108,199a7.27,7.27,0,0,1,2,6.31,7.45,7.45,0,0,1-5.59,6.18A7.34,7.34,0,0,1,97.37,209.36Z" />
         <path class="symbol-right ba0408c0-d075-4b04-81dd-7af3cc6b3c98" d="M295.09,209.36l4.67-4.55-2.07-2.14c-1-1-1.95-2-2.9-3a1.08,1.08,0,0,0-.82-.36l-8.75-.07a.62.62,0,0,0-.43.16l-5.16,5a.68.68,0,0,0-.09.14l4.54,4.67a7.45,7.45,0,1,1-10.4-10.68l4.59,4.7c1.33-1.29,2.59-2.59,3.93-3.8a2.4,2.4,0,0,0,.82-2c0-3.16.07-6.31.1-9.47a.59.59,0,0,0-.13-.39c-1.44-1.5-2.89-3-4.34-4.47a.68.68,0,0,0-.14-.09l-4.67,4.54a7.45,7.45,0,1,1,10.68-10.4l-4.7,4.58,1.87,1.92c1.11,1.14,2.21,2.27,3.33,3.4a.7.7,0,0,0,.44.21c2.2.05,4.39.07,6.58.1.76,0,1.51,0,2.27,0a.6.6,0,0,0,.39-.14q2.66-2.56,5.29-5.15s0,0,.05-.11l-4.55-4.69a7.46,7.46,0,0,1,12.37,3.26,7.29,7.29,0,0,1-1.93,7.47l-4.61-4.72-2.53,2.45c-.72.7-1.44,1.42-2.16,2.11a1,1,0,0,0-.36.76c0,3.22-.07,6.43-.1,9.65a.65.65,0,0,0,.16.42c1.51,1.57,3,3.13,4.56,4.68a1.74,1.74,0,0,0,.18.16l4.69-4.57a7.3,7.3,0,0,1,2.05,6.31,7.45,7.45,0,0,1-5.59,6.18A7.34,7.34,0,0,1,295.09,209.36Z" />
      </g>
   </g>
</svg>