<?xml version="1.0" encoding="UTF-8"?>
<svg xmlns="http://www.w3.org/2000/svg" xmlns:xlink="http://www.w3.org/1999/xlink" viewBox="0 0 382.08 562.08">
   <defs>
      <style>.b979788d-5a1b-41a7-a657-25dc36791e68{opacity:0.53;}.b58dc973-2d23-4785-a0ea-890aea1a3744{fill:#1e1e1e;}.b477118d-f24c-46ac-aa45-79bbb2ae2117{fill:#df2127;}.b32205bf-1a9e-445b-afad-65a50a0205f3{fill:#e19326;}.a67405ff-82e3-4ff4-b12c-efafaea859e9{fill:#2b9948;}.bbb63fd1-c46d-4a72-bbca-0f2ce9209df8{writing-mode:tb;text-orientation:upright;glyph-orientation-vertical:0deg;font-size:25.84px;}.a27732fa-bd68-453a-9a2d-f8c2add9b4bf,.aba852b0-1ef8-4b8d-9ad1-5e90be362559,.bbb63fd1-c46d-4a72-bbca-0f2ce9209df8{fill:#ffc758;}.aba852b0-1ef8-4b8d-9ad1-5e90be362559,.bbb63fd1-c46d-4a72-bbca-0f2ce9209df8{font-family:Montserrat-Black, Montserrat;font-weight:800;}.aba852b0-1ef8-4b8d-9ad1-5e90be362559{font-size:17.15px;}.bacb5236-6489-4195-aa3a-944d6a86d03f{letter-spacing:0.01em;}.a34a6b02-d5f0-4f56-ab8e-85e5bdd5d64f{letter-spacing:-0.01em;}.ac30c089-d841-4cbe-9e88-6f4063cb651f{fill:#fdfefe;}</style>
   </defs>
   <title>Asset 7</title>
   <g id="babf68f3-cf47-428e-bcea-1c19609881d7" data-name="Layer 2">
      <g id="bffb2457-1973-43bf-8d44-5fa75375a03d" data-name="Layer 1">
         <g class="b979788d-5a1b-41a7-a657-25dc36791e68" />
         <path class="base-stole b58dc973-2d23-4785-a0ea-890aea1a3744" d="M346.06,520H233.69C239,386.3,244.37,252,249.34,118.3c.39-10.3-1.11-38.12-1.63-42.65-1.63-14.39-6.18-28.51-4.54-43.24,9.29-.1,86.83,43.19,87.29,57.68C334.4,213.55,346.67,518,346.06,520Z" />
         <path class="base-stole b58dc973-2d23-4785-a0ea-890aea1a3744" d="M36.32,520H148.68C143.43,386.3,138,252,133,118.3c-.38-10.3,1.12-38.12,1.63-42.65,1.63-14.39,6.19-28.51,4.54-43.24-9.28-.1-86.83,43.19-87.28,57.68C48,213.55,35.7,518,36.32,520Z" />
         <path d="M194.05,87.23l54.79,0s-3.37-35.13-5.67-54.77c-.17-5-38.6-.94-52-.3-13.39-.64-51.82-4.67-52,.3-2.3,19.64-5.67,54.77-5.67,54.77l54.8,0h5.72Z" />

         <polygon class="stripe-2 b477118d-f24c-46ac-aa45-79bbb2ae2117" points="133.79 120.58 50.7 120.58 51.15 104.83 133.14 104.82 133.79 120.58" />
         <polygon class="stripe-3 b32205bf-1a9e-445b-afad-65a50a0205f3" points="134.3 136.32 50.21 136.32 50.67 120.58 133.84 120.58 134.3 136.32" />
         <polygon class="stripe-5 a67405ff-82e3-4ff4-b12c-efafaea859e9" points="134.33 151.89 49.78 152.02 50.25 136.28 134.26 136.28 134.33 151.89" />
         <rect class="stripe-4 b58dc973-2d23-4785-a0ea-890aea1a3744" x="50.27" y="127.73" width="83.81" height="1.24" />
         <polygon class="stripe-1 ac30c089-d841-4cbe-9e88-6f4063cb651f" points="133.22 106.38 51.12 106.43 51.32 104.83 133.14 104.82 133.22 106.38" />
         <polygon class="stripe-1 ac30c089-d841-4cbe-9e88-6f4063cb651f" points="134.37 153.56 49.72 153.65 49.79 152.01 134.29 152 134.37 153.56" />

         <polygon class="stripe-2 b477118d-f24c-46ac-aa45-79bbb2ae2117" points="138.63 256.2 45.87 256.2 46.38 240.45 137.91 240.44 138.63 256.2" />
         <polygon class="stripe-3 b32205bf-1a9e-445b-afad-65a50a0205f3" points="139.2 271.94 45.32 271.94 45.84 256.2 138.69 256.2 139.2 271.94" />
         <polygon class="stripe-5 a67405ff-82e3-4ff4-b12c-efafaea859e9" points="139.23 287.51 44.84 287.64 45.37 271.89 139.16 271.89 139.23 287.51" />
         <rect class="stripe-4 b58dc973-2d23-4785-a0ea-890aea1a3744" x="45.4" y="263.35" width="93.56" height="1.24" />
         <polygon class="stripe-1 ac30c089-d841-4cbe-9e88-6f4063cb651f" points="138 242 46.34 242.05 46.56 240.45 137.91 240.44 138 242" />
         <polygon class="stripe-1 ac30c089-d841-4cbe-9e88-6f4063cb651f" points="139.28 289.19 44.78 289.27 44.86 287.63 139.19 287.62 139.28 289.19" />
         <polygon class="stripe-2 b477118d-f24c-46ac-aa45-79bbb2ae2117" points="147.04 471.89 37.81 471.89 38.42 456.14 146.19 456.14 147.04 471.89" />
         <polygon class="stripe-3 b32205bf-1a9e-445b-afad-65a50a0205f3" points="147.71 487.64 37.17 487.64 37.78 471.89 147.11 471.89 147.71 487.64" />
         <polygon class="stripe-5 a67405ff-82e3-4ff4-b12c-efafaea859e9" points="147.75 503.2 36.61 503.34 37.23 487.59 147.67 487.59 147.75 503.2" />
         <rect class="stripe-4 b58dc973-2d23-4785-a0ea-890aea1a3744" x="37.26" y="479.04" width="110.17" height="1.24" />
         <polygon class="stripe-1 ac30c089-d841-4cbe-9e88-6f4063cb651f" points="146.29 457.7 38.37 457.75 38.64 456.14 146.19 456.14 146.29 457.7" />
         <polygon class="stripe-1 ac30c089-d841-4cbe-9e88-6f4063cb651f" points="147.81 504.88 36.53 504.97 36.63 503.32 147.71 503.32 147.81 504.88" />
         <polygon class="stripe-2 b477118d-f24c-46ac-aa45-79bbb2ae2117" points="331.77 120.58 248.68 120.58 249.14 104.83 331.13 104.82 331.77 120.58" />
         <polygon class="stripe-3 b32205bf-1a9e-445b-afad-65a50a0205f3" points="332.28 136.32 248.19 136.32 248.66 120.58 331.83 120.58 332.28 136.32" />
         <polygon class="stripe-5 a67405ff-82e3-4ff4-b12c-efafaea859e9" points="332.31 151.89 247.76 152.02 248.23 136.28 332.25 136.28 332.31 151.89" />
         <rect class="stripe-4 b58dc973-2d23-4785-a0ea-890aea1a3744" x="248.26" y="127.73" width="83.81" height="1.24" />
         <polygon class="stripe-1 ac30c089-d841-4cbe-9e88-6f4063cb651f" points="331.2 106.38 249.1 106.43 249.31 104.83 331.13 104.82 331.2 106.38" />
         <polygon class="stripe-1 ac30c089-d841-4cbe-9e88-6f4063cb651f" points="332.36 153.56 247.71 153.65 247.78 152.01 332.28 152 332.36 153.56" />
         <polygon class="stripe-2 b477118d-f24c-46ac-aa45-79bbb2ae2117" points="336.61 256.2 243.85 256.2 244.36 240.45 335.89 240.44 336.61 256.2" />
         <polygon class="stripe-3 b32205bf-1a9e-445b-afad-65a50a0205f3" points="337.18 271.94 243.31 271.94 243.82 256.2 336.68 256.2 337.18 271.94" />
         <polygon class="stripe-5 a67405ff-82e3-4ff4-b12c-efafaea859e9" points="337.21 287.51 242.83 287.64 243.35 271.89 337.15 271.89 337.21 287.51" />
         <rect class="stripe-4 b58dc973-2d23-4785-a0ea-890aea1a3744" x="243.38" y="263.35" width="93.56" height="1.24" />
         <polygon class="stripe-1 ac30c089-d841-4cbe-9e88-6f4063cb651f" points="335.98 242 244.32 242.05 244.55 240.45 335.89 240.44 335.98 242" />
         <polygon class="stripe-1 ac30c089-d841-4cbe-9e88-6f4063cb651f" points="337.27 289.19 242.76 289.27 242.84 287.63 337.18 287.62 337.27 289.19" />
         <polygon class="stripe-2 b477118d-f24c-46ac-aa45-79bbb2ae2117" points="345.02 471.89 235.8 471.89 236.4 456.14 344.18 456.14 345.02 471.89" />
         <polygon class="stripe-3 b32205bf-1a9e-445b-afad-65a50a0205f3" points="345.7 487.64 235.16 487.64 235.77 471.89 345.1 471.89 345.7 487.64" />
         <polygon class="stripe-5 a67405ff-82e3-4ff4-b12c-efafaea859e9" points="345.73 503.2 234.59 503.34 235.21 487.59 345.65 487.59 345.73 503.2" />
         <rect class="stripe-4 b58dc973-2d23-4785-a0ea-890aea1a3744" x="235.25" y="479.04" width="110.17" height="1.24" />
         <polygon class="stripe-1 ac30c089-d841-4cbe-9e88-6f4063cb651f" points="344.28 457.7 236.35 457.75 236.62 456.14 344.18 456.14 344.28 457.7" />
         <polygon class="stripe-1 ac30c089-d841-4cbe-9e88-6f4063cb651f" points="345.8 504.88 234.52 504.97 234.61 503.32 345.69 503.32 345.8 504.88" />

         <path class="symbol-left a27732fa-bd68-453a-9a2d-f8c2add9b4bf" d="M117,180.91v4.92c-.53.14-1.06.29-1.6.42-2.53.61-5.08,1.16-7.6,1.84-1.57.42-1.93,1-1.93,2.45s0,1.51,1.84,2.15c1.68.58,1.86,1.32,1,2.92a3.35,3.35,0,0,0-.24,2c.06.39.59.73,1,1,1.25,1.09,1.29,1.69.15,2.84a6.6,6.6,0,0,0-1.07,1.18c-.57,1-.05,1.78.5,2.59s.44,1.8-.25,2.1a9.44,9.44,0,0,1-1.48.47,1.79,1.79,0,0,0-1.41,2.48c.17.71.37,1.27,1.29,1.18a20,20,0,0,1,2,0H117v4.71H65.67v-4.71c2.79,0,5.57,0,8.36,0a1.44,1.44,0,0,0,.89-.19,2.33,2.33,0,0,0,.54-2.45c-.1-.4-.74-.71-1.19-1a4.31,4.31,0,0,0-1-.28,1.4,1.4,0,0,1-.88-2.25c1.15-1.9,1.17-2.37-.49-3.73s-1-2.1.32-3.09a1.93,1.93,0,0,0,.9-2.06,3.85,3.85,0,0,0-.52-1.24c-.75-1.28-.51-1.92.91-2.39.23-.08.52-.06.7-.19a3.57,3.57,0,0,0,1.19-1.08,2.69,2.69,0,0,0-2-3.61c-.9-.14-1.8-.21-2.68-.42-1.69-.39-3.36-.86-5-1.29v-5.14a4,4,0,0,0,.58.21c2.6.52,5.19,1.07,7.79,1.52,3.18.54,6.36,1.19,9.57,1.43a94.13,94.13,0,0,0,10.08,0,88,88,0,0,0,8.88-.65c3.52-.47,7-1.2,10.5-1.85C114.41,181.56,115.72,181.21,117,180.91ZM82.82,200.7a24.13,24.13,0,0,0,.81,4.62,21.15,21.15,0,0,0,2.54,4.54,5.55,5.55,0,0,0,7.72,1.27,9.41,9.41,0,0,0,3.83-5.84,31.17,31.17,0,0,0,.46-6.34,11,11,0,0,0-4.43-9.07,4.61,4.61,0,0,0-4-.9,6.43,6.43,0,0,0-3.5,2.3A15,15,0,0,0,82.82,200.7Zm21.84-.43a10.94,10.94,0,0,0-2.42-7,4.57,4.57,0,0,0-1.38-.75,11.56,11.56,0,0,0-.06,1.44c0,.23.21.44.3.66a14.76,14.76,0,0,1,.93,8.45c-.28,1.34-.85,2.62-1.24,3.94a3.23,3.23,0,0,0,0,1c.37-.12.85-.13,1.09-.38C103.94,205.6,104.51,203,104.66,200.27Zm-24.08-7.4-.35-.32a3.91,3.91,0,0,0-1.06.67,10.5,10.5,0,0,0-2.38,6.35,10.89,10.89,0,0,0,2.58,8.08,4.52,4.52,0,0,0,1,.62c.08-.41.33-.89.2-1.23a19.74,19.74,0,0,1-1.44-6.94,22.81,22.81,0,0,1,1-5.37C80.19,194.1,80.4,193.49,80.58,192.87Z" />

         <path class="symbol-right a27732fa-bd68-453a-9a2d-f8c2add9b4bf" d="M315.66,180.91v4.92c-.53.14-1.06.29-1.6.42-2.54.61-5.09,1.16-7.6,1.84-1.57.42-1.93,1-1.93,2.45s0,1.51,1.84,2.15c1.68.58,1.86,1.32,1,2.92a3.42,3.42,0,0,0-.23,2c.06.39.59.73.95,1,1.25,1.09,1.28,1.69.14,2.84a6.54,6.54,0,0,0-1.06,1.18c-.58,1-.05,1.78.5,2.59a1.39,1.39,0,0,1-.25,2.1,9.23,9.23,0,0,1-1.49.47,1.79,1.79,0,0,0-1.41,2.48c.18.71.38,1.27,1.3,1.18a19.81,19.81,0,0,1,2,0h7.84v4.71H264.28v-4.71c2.79,0,5.58,0,8.37,0a1.44,1.44,0,0,0,.89-.19,2.35,2.35,0,0,0,.54-2.45c-.1-.4-.74-.71-1.19-1a4.61,4.61,0,0,0-1-.28,1.41,1.41,0,0,1-.89-2.25c1.16-1.9,1.18-2.37-.49-3.73s-1-2.1.33-3.09a1.93,1.93,0,0,0,.9-2.06,4.35,4.35,0,0,0-.52-1.24c-.75-1.28-.52-1.92.91-2.39.23-.08.51-.06.69-.19.44-.32,1-.63,1.19-1.08a2.68,2.68,0,0,0-2-3.61c-.89-.14-1.8-.21-2.67-.42-1.69-.39-3.36-.86-5-1.29v-5.14a4.63,4.63,0,0,0,.59.21c2.59.52,5.18,1.07,7.79,1.52,3.18.54,6.36,1.19,9.56,1.43a94.15,94.15,0,0,0,10.08,0,87.93,87.93,0,0,0,8.89-.65c3.52-.47,7-1.2,10.5-1.85C313,181.56,314.34,181.21,315.66,180.91ZM281.44,200.7a24.13,24.13,0,0,0,.81,4.62,21.15,21.15,0,0,0,2.54,4.54,5.55,5.55,0,0,0,7.72,1.27,9.45,9.45,0,0,0,3.83-5.84,31.9,31.9,0,0,0,.46-6.34,11,11,0,0,0-4.43-9.07,4.62,4.62,0,0,0-4-.9,6.43,6.43,0,0,0-3.5,2.3A15,15,0,0,0,281.44,200.7Zm21.84-.43a11,11,0,0,0-2.42-7,4.63,4.63,0,0,0-1.39-.75c0,.48-.08,1-.06,1.44,0,.23.22.44.31.66a14.76,14.76,0,0,1,.93,8.45c-.28,1.34-.86,2.62-1.25,3.94a3.24,3.24,0,0,0,.06,1c.37-.12.85-.13,1.09-.38C302.56,205.6,303.12,203,303.28,200.27Zm-24.09-7.4-.34-.32a4.13,4.13,0,0,0-1.07.67,10.62,10.62,0,0,0-2.38,6.35,10.94,10.94,0,0,0,2.59,8.08,4.28,4.28,0,0,0,1,.62c.08-.41.32-.89.19-1.23a20,20,0,0,1-1.43-6.94,22.81,22.81,0,0,1,1-5.37C278.81,194.1,279,193.49,279.19,192.87Z" />
      </g>
   </g>
</svg>