<?xml version="1.0" encoding="UTF-8"?>
<svg xmlns="http://www.w3.org/2000/svg" xmlns:xlink="http://www.w3.org/1999/xlink" viewBox="0 0 382.08 562.32">
   <defs>
      <style>.f95b5735-b443-401b-b5ba-c7044759a5c2{opacity:0.53;}.ecf11356-f0ef-42db-badf-3e4db2eb2c80{fill:#64ccf5;}.a8504367-3378-49f4-aa68-7e92432f3cdf{fill:#ffe4b5;}.acc38d96-6f17-4e90-9e17-0378d598bd10{fill:#002b3a;}</style>
   </defs>
   <title>Asset 5</title>
   <g id="bfea3d02-1f41-4383-a9db-9c0e15255d9a" data-name="Layer 2">
      <g id="ad58f192-b126-4df7-82c2-5689d2a711a8" data-name="Layer 1">
         <g class="f95b5735-b443-401b-b5ba-c7044759a5c2" />
         <path class="base-stole ecf11356-f0ef-42db-badf-3e4db2eb2c80" d="M345.71,518.27H233.35C238.6,384.62,244,250.28,249,116.61c.38-10.3-1.12-38.12-1.63-42.65-1.63-14.38-6.19-28.5-4.54-43.23,9.28-.1,86.83,43.19,87.28,57.68C334.06,211.86,346.33,516.33,345.71,518.27Z" />
        
         <path class="base-stole ecf11356-f0ef-42db-badf-3e4db2eb2c80" d="M36,518.27H148.34c-5.26-133.65-10.68-268-15.65-401.66-.39-10.3,1.11-38.12,1.63-42.65,1.63-14.38,6.18-28.5,4.54-43.23-9.29-.1-86.83,43.19-87.29,57.68C47.63,211.86,35.36,516.33,36,518.27Z" />

         <path d="M193.71,85.54c22.1,0,54.79,0,54.79,0s-3.37-35.14-5.67-54.77c-.17-5-38.6-.94-52-.3-13.38-.64-51.81-4.67-52,.3-2.3,19.63-5.67,54.77-5.67,54.77s32.88,0,54.79,0h5.73Z" />
         <polygon class="stripe-1 a8504367-3378-49f4-aa68-7e92432f3cdf" points="143.04 363.35 41.66 363.42 49.96 136.11 133.46 136.12 143.04 363.35" />
         <polygon class="stripe-1 a8504367-3378-49f4-aa68-7e92432f3cdf" points="35.61 518.38 148.08 518.38 146.03 452.76 38.13 452.76 35.61 518.38" />
         <polygon class="stripe-2 ecf11356-f0ef-42db-badf-3e4db2eb2c80" points="49.96 136.11 88.98 136.11 81.3 142.45 49.62 142.37 49.96 136.11" />
         <polygon class="stripe-3 acc38d96-6f17-4e90-9e17-0378d598bd10" points="133.46 136.12 94.06 136.14 101.5 142.45 133.72 142.45 133.46 136.12" />
         <polygon class="stripe-3 acc38d96-6f17-4e90-9e17-0378d598bd10" points="81.33 142.45 101.51 142.42 98.33 148.61 84.62 148.61 81.33 142.45" />
         <polygon class="stripe-3 acc38d96-6f17-4e90-9e17-0378d598bd10" points="49.43 148.69 88.98 148.7 81.19 155.03 49.09 154.95 49.43 148.69" />
         <polygon class="stripe-2 ecf11356-f0ef-42db-badf-3e4db2eb2c80" points="133.9 148.7 94.06 148.72 101.59 155.03 134.16 155.03 133.9 148.7" />
         <polygon class="stripe-3 acc38d96-6f17-4e90-9e17-0378d598bd10" points="81.33 155.03 101.51 155.01 98.33 161.2 84.62 161.2 81.33 155.03" />
         <polygon class="stripe-2 ecf11356-f0ef-42db-badf-3e4db2eb2c80" points="48.99 161.27 88.86 161.27 81.01 167.61 48.64 167.53 48.99 161.27" />
         <polygon class="stripe-3 acc38d96-6f17-4e90-9e17-0378d598bd10" points="134.31 161.28 94.05 161.3 101.66 167.61 134.58 167.61 134.31 161.28" />
         <polygon class="stripe-3 acc38d96-6f17-4e90-9e17-0378d598bd10" points="81.04 167.61 101.67 167.58 98.42 173.77 84.41 173.77 81.04 167.61" />
         <polygon class="stripe-3 acc38d96-6f17-4e90-9e17-0378d598bd10" points="48.45 173.85 88.86 173.86 80.91 180.19 48.1 180.11 48.45 173.85" />
         <polygon class="stripe-2 ecf11356-f0ef-42db-badf-3e4db2eb2c80" points="134.76 173.86 94.05 173.88 101.75 180.19 135.04 180.19 134.76 173.86" />
         <polygon class="stripe-3 acc38d96-6f17-4e90-9e17-0378d598bd10" points="81.04 180.19 101.67 180.17 98.42 186.36 84.41 186.36 81.04 180.19" />
         <polygon class="stripe-2 ecf11356-f0ef-42db-badf-3e4db2eb2c80" points="48.04 186.5 89.09 186.5 81.01 192.84 47.69 192.76 48.04 186.5" />
         <polygon class="stripe-3 acc38d96-6f17-4e90-9e17-0378d598bd10" points="135.87 186.51 94.43 186.53 102.27 192.84 136.15 192.84 135.87 186.51" />
         <polygon class="stripe-3 acc38d96-6f17-4e90-9e17-0378d598bd10" points="81.04 192.84 102.27 192.81 98.93 199 84.5 199 81.04 192.84" />
         <polygon class="stripe-3 acc38d96-6f17-4e90-9e17-0378d598bd10" points="47.48 199.08 89.09 199.09 80.9 205.42 47.13 205.34 47.48 199.08" />
         <polygon class="stripe-2 ecf11356-f0ef-42db-badf-3e4db2eb2c80" points="136.34 199.09 94.43 199.11 102.35 205.42 136.62 205.42 136.34 199.09" />
         <polygon class="stripe-3 acc38d96-6f17-4e90-9e17-0378d598bd10" points="81.04 205.42 102.27 205.4 98.93 211.59 84.5 211.59 81.04 205.42" />
         <polygon class="stripe-2 ecf11356-f0ef-42db-badf-3e4db2eb2c80" points="47.41 212.3 89.31 212.3 81.06 218.64 47.06 218.56 47.41 212.3" />
         <polygon class="stripe-3 acc38d96-6f17-4e90-9e17-0378d598bd10" points="137.07 212.31 94.77 212.33 102.76 218.64 137.35 218.64 137.07 212.31" />
         <polygon class="stripe-3 acc38d96-6f17-4e90-9e17-0378d598bd10" points="81.1 218.64 102.77 218.62 99.36 224.8 84.63 224.8 81.1 218.64" />
         <polygon class="stripe-3 acc38d96-6f17-4e90-9e17-0378d598bd10" points="46.85 224.88 89.31 224.89 80.95 231.23 46.48 231.14 46.85 224.88" />
         <polygon class="stripe-2 ecf11356-f0ef-42db-badf-3e4db2eb2c80" points="137.54 224.89 94.77 224.91 102.85 231.23 137.82 231.23 137.54 224.89" />
         <polygon class="stripe-3 acc38d96-6f17-4e90-9e17-0378d598bd10" points="81.1 231.23 102.77 231.2 99.36 237.39 84.63 237.39 81.1 231.23" />
         <polygon class="stripe-2 ecf11356-f0ef-42db-badf-3e4db2eb2c80" points="46.15 237.46 89.07 237.46 80.62 243.8 45.78 243.72 46.15 237.46" />
         <polygon class="stripe-3 acc38d96-6f17-4e90-9e17-0378d598bd10" points="138 237.47 94.66 237.49 102.85 243.8 138.28 243.8 138 237.47" />
         <polygon class="stripe-3 acc38d96-6f17-4e90-9e17-0378d598bd10" points="80.65 243.8 102.85 243.78 99.36 249.96 84.27 249.96 80.65 243.8" />
         <polygon class="stripe-3 acc38d96-6f17-4e90-9e17-0378d598bd10" points="45.56 250.04 89.07 250.05 80.5 256.38 45.19 256.3 45.56 250.04" />
         <polygon class="stripe-2 ecf11356-f0ef-42db-badf-3e4db2eb2c80" points="138.48 250.05 94.66 250.07 102.94 256.38 138.77 256.38 138.48 250.05" />
         <polygon class="stripe-3 acc38d96-6f17-4e90-9e17-0378d598bd10" points="80.65 256.38 102.85 256.36 99.36 262.55 84.27 262.55 80.65 256.38" />
         <polygon class="stripe-2 ecf11356-f0ef-42db-badf-3e4db2eb2c80" points="45.2 262.69 89.01 262.69 80.39 269.03 44.82 268.95 45.2 262.69" />
         <polygon class="stripe-3 acc38d96-6f17-4e90-9e17-0378d598bd10" points="138.96 262.7 94.72 262.72 103.08 269.03 139.25 269.03 138.96 262.7" />
         <polygon class="stripe-3 acc38d96-6f17-4e90-9e17-0378d598bd10" points="80.42 269.03 103.09 269.01 99.52 275.19 84.12 275.19 80.42 269.03" />
         <polygon class="stripe-3 acc38d96-6f17-4e90-9e17-0378d598bd10" points="44.6 275.27 89.01 275.28 80.27 281.62 44.22 281.53 44.6 275.27" />
         <polygon class="stripe-2 ecf11356-f0ef-42db-badf-3e4db2eb2c80" points="139.46 275.28 94.72 275.3 103.17 281.62 139.75 281.62 139.46 275.28" />
         <polygon class="stripe-3 acc38d96-6f17-4e90-9e17-0378d598bd10" points="80.42 281.62 103.09 281.59 99.52 287.78 84.12 287.78 80.42 281.62" />
         <polygon class="stripe-2 ecf11356-f0ef-42db-badf-3e4db2eb2c80" points="44.57 287.77 89.25 287.77 80.45 294.11 44.19 294.03 44.57 287.77" />
         <polygon class="stripe-3 acc38d96-6f17-4e90-9e17-0378d598bd10" points="140.18 287.78 95.07 287.8 103.6 294.11 140.48 294.11 140.18 287.78" />
         <polygon class="stripe-3 acc38d96-6f17-4e90-9e17-0378d598bd10" points="80.49 294.11 103.6 294.08 99.97 300.27 84.26 300.27 80.49 294.11" />
         <polygon class="stripe-3 acc38d96-6f17-4e90-9e17-0378d598bd10" points="43.96 300.35 89.25 300.36 80.33 306.69 43.57 306.61 43.96 300.35" />
         <polygon class="stripe-2 ecf11356-f0ef-42db-badf-3e4db2eb2c80" points="140.69 300.36 95.07 300.38 103.69 306.69 140.99 306.69 140.69 300.36" />
         <polygon class="stripe-3 acc38d96-6f17-4e90-9e17-0378d598bd10" points="80.49 306.69 103.6 306.67 99.97 312.86 84.26 312.86 80.49 306.69" />
         <polygon class="stripe-2 ecf11356-f0ef-42db-badf-3e4db2eb2c80" points="43.34 313 89.06 313 80.06 319.34 42.94 319.26 43.34 313" />
         <polygon class="stripe-3 acc38d96-6f17-4e90-9e17-0378d598bd10" points="141.19 313.01 95.02 313.03 103.75 319.34 141.5 319.34 141.19 313.01" />
         <polygon class="stripe-3 acc38d96-6f17-4e90-9e17-0378d598bd10" points="80.1 319.34 103.75 319.31 100.03 325.5 83.96 325.5 80.1 319.34" />
         <polygon class="stripe-3 acc38d96-6f17-4e90-9e17-0378d598bd10" points="42.71 325.58 89.06 325.59 79.94 331.92 42.32 331.84 42.71 325.58" />
         <polygon class="stripe-2 ecf11356-f0ef-42db-badf-3e4db2eb2c80" points="141.71 325.59 95.02 325.61 103.84 331.92 142.02 331.92 141.71 325.59" />
         <polygon class="stripe-3 acc38d96-6f17-4e90-9e17-0378d598bd10" points="80.1 331.92 103.75 331.9 100.03 338.09 83.96 338.09 80.1 331.92" />
         <polygon class="stripe-2 ecf11356-f0ef-42db-badf-3e4db2eb2c80" points="42.37 338.26 88.94 338.26 79.77 344.6 41.97 344.52 42.37 338.26" />
         <polygon class="stripe-3 acc38d96-6f17-4e90-9e17-0378d598bd10" points="142.02 338.27 95 338.29 103.89 344.6 142.33 344.6 142.02 338.27" />
         <polygon class="stripe-3 acc38d96-6f17-4e90-9e17-0378d598bd10" points="79.81 344.6 103.89 344.57 100.1 350.76 83.73 350.76 79.81 344.6" />
         <polygon class="stripe-3 acc38d96-6f17-4e90-9e17-0378d598bd10" points="41.74 350.84 88.94 350.85 79.65 357.18 41.33 357.1 41.74 350.84" />
         <polygon class="stripe-2 ecf11356-f0ef-42db-badf-3e4db2eb2c80" points="142.54 350.85 95 350.87 103.99 357.18 142.86 357.18 142.54 350.85" />
         <polygon class="stripe-3 acc38d96-6f17-4e90-9e17-0378d598bd10" points="79.81 357.18 103.89 357.16 100.1 363.35 83.73 363.35 79.81 357.18" />
         <polygon class="stripe-2 ecf11356-f0ef-42db-badf-3e4db2eb2c80" points="38.51 452.87 88.75 452.87 78.86 459.21 38.08 459.13 38.51 452.87" />
         <polygon class="stripe-3 acc38d96-6f17-4e90-9e17-0378d598bd10" points="146.02 452.88 95.29 452.9 104.88 459.21 146.36 459.21 146.02 452.88" />
         <polygon class="stripe-3 acc38d96-6f17-4e90-9e17-0378d598bd10" points="78.9 459.21 104.89 459.19 100.8 465.37 83.14 465.37 78.9 459.21" />
         <polygon class="stripe-3 acc38d96-6f17-4e90-9e17-0378d598bd10" points="37.83 465.46 88.75 465.46 78.73 471.8 37.39 471.71 37.83 465.46" />
         <polygon class="stripe-2 ecf11356-f0ef-42db-badf-3e4db2eb2c80" points="146.59 465.46 95.29 465.49 104.99 471.8 146.93 471.8 146.59 465.46" />
         <polygon class="stripe-3 acc38d96-6f17-4e90-9e17-0378d598bd10" points="78.9 471.8 104.89 471.77 100.8 477.96 83.14 477.96 78.9 471.8" />
         <polygon class="stripe-2 ecf11356-f0ef-42db-badf-3e4db2eb2c80" points="37.28 477.97 88.43 477.97 78.36 484.31 36.84 484.23 37.28 477.97" />
         <polygon class="stripe-3 acc38d96-6f17-4e90-9e17-0378d598bd10" points="146.74 477.98 95.09 478 104.86 484.31 147.08 484.31 146.74 477.98" />
         <polygon class="stripe-3 acc38d96-6f17-4e90-9e17-0378d598bd10" points="78.41 484.31 104.86 484.28 100.7 490.47 82.72 490.47 78.41 484.31" />
         <polygon class="stripe-2 ecf11356-f0ef-42db-badf-3e4db2eb2c80" points="37.28 503.29 88.43 503.29 78.36 509.63 36.84 509.55 37.28 503.29" />
         <polygon class="stripe-3 acc38d96-6f17-4e90-9e17-0378d598bd10" points="146.74 503.3 95.09 503.32 104.86 509.63 147.08 509.63 146.74 503.3" />
         <polygon class="stripe-3 acc38d96-6f17-4e90-9e17-0378d598bd10" points="78.41 509.63 104.86 509.6 100.7 515.79 82.72 515.79 78.41 509.63" />
         <polygon class="stripe-3 acc38d96-6f17-4e90-9e17-0378d598bd10" points="36.59 490.55 88.43 490.56 78.23 496.89 36.14 496.81 36.59 490.55" />
         <polygon class="stripe-2 ecf11356-f0ef-42db-badf-3e4db2eb2c80" points="147.32 490.56 95.09 490.58 104.97 496.89 147.67 496.89 147.32 490.56" />
         <polygon class="stripe-3 acc38d96-6f17-4e90-9e17-0378d598bd10" points="78.41 496.89 104.86 496.87 100.7 503.06 82.72 503.06 78.41 496.89" />
         <polygon class="stripe-1 a8504367-3378-49f4-aa68-7e92432f3cdf" points="340.53 363.35 239.14 363.42 247.44 136.11 330.94 136.12 340.53 363.35" />
         <polygon class="stripe-1 a8504367-3378-49f4-aa68-7e92432f3cdf" points="233.09 518.38 345.57 518.38 343.52 452.76 235.61 452.76 233.09 518.38" />
         <polygon class="stripe-2 ecf11356-f0ef-42db-badf-3e4db2eb2c80" points="247.44 136.11 286.46 136.11 278.78 142.45 247.11 142.37 247.44 136.11" />
         <polygon class="stripe-3 acc38d96-6f17-4e90-9e17-0378d598bd10" points="330.94 136.12 291.54 136.14 298.99 142.45 331.2 142.45 330.94 136.12" />
         <polygon class="stripe-3 acc38d96-6f17-4e90-9e17-0378d598bd10" points="278.81 142.45 298.99 142.42 295.82 148.61 282.1 148.61 278.81 142.45" />
         <polygon class="stripe-3 acc38d96-6f17-4e90-9e17-0378d598bd10" points="246.91 148.69 286.46 148.7 278.68 155.03 246.57 154.95 246.91 148.69" />
         <polygon class="stripe-2 ecf11356-f0ef-42db-badf-3e4db2eb2c80" points="331.38 148.7 291.54 148.72 299.07 155.03 331.65 155.03 331.38 148.7" />
         <polygon class="stripe-3 acc38d96-6f17-4e90-9e17-0378d598bd10" points="278.81 155.03 298.99 155.01 295.82 161.2 282.1 161.2 278.81 155.03" />
         <polygon class="stripe-2 ecf11356-f0ef-42db-badf-3e4db2eb2c80" points="246.47 161.27 286.34 161.27 278.5 167.61 246.13 167.53 246.47 161.27" />
         <polygon class="stripe-3 acc38d96-6f17-4e90-9e17-0378d598bd10" points="331.8 161.28 291.54 161.3 299.15 167.61 332.06 167.61 331.8 161.28" />
         <polygon class="stripe-3 acc38d96-6f17-4e90-9e17-0378d598bd10" points="278.53 167.61 299.15 167.58 295.91 173.77 281.89 173.77 278.53 167.61" />
         <polygon class="stripe-3 acc38d96-6f17-4e90-9e17-0378d598bd10" points="245.93 173.85 286.34 173.86 278.39 180.19 245.58 180.11 245.93 173.85" />
         <polygon class="stripe-2 ecf11356-f0ef-42db-badf-3e4db2eb2c80" points="332.25 173.86 291.54 173.88 299.23 180.19 332.52 180.19 332.25 173.86" />
         <polygon class="stripe-3 acc38d96-6f17-4e90-9e17-0378d598bd10" points="278.53 180.19 299.15 180.17 295.91 186.36 281.89 186.36 278.53 180.19" />
         <polygon class="stripe-2 ecf11356-f0ef-42db-badf-3e4db2eb2c80" points="245.53 186.5 286.57 186.5 278.49 192.84 245.18 192.76 245.53 186.5" />
         <polygon class="stripe-3 acc38d96-6f17-4e90-9e17-0378d598bd10" points="333.36 186.51 291.92 186.53 299.75 192.84 333.63 192.84 333.36 186.51" />
         <polygon class="stripe-3 acc38d96-6f17-4e90-9e17-0378d598bd10" points="278.52 192.84 299.75 192.81 296.42 199 281.99 199 278.52 192.84" />
         <polygon class="stripe-3 acc38d96-6f17-4e90-9e17-0378d598bd10" points="244.97 199.08 286.57 199.09 278.38 205.42 244.61 205.34 244.97 199.08" />
         <polygon class="stripe-2 ecf11356-f0ef-42db-badf-3e4db2eb2c80" points="333.82 199.09 291.92 199.11 299.84 205.42 334.1 205.42 333.82 199.09" />
         <polygon class="stripe-3 acc38d96-6f17-4e90-9e17-0378d598bd10" points="278.52 205.42 299.75 205.4 296.42 211.59 281.99 211.59 278.52 205.42" />
         <polygon class="stripe-2 ecf11356-f0ef-42db-badf-3e4db2eb2c80" points="244.9 212.3 286.79 212.3 278.55 218.64 244.54 218.56 244.9 212.3" />
         <polygon class="stripe-3 acc38d96-6f17-4e90-9e17-0378d598bd10" points="334.55 212.31 292.25 212.33 300.25 218.64 334.83 218.64 334.55 212.31" />
         <polygon class="stripe-3 acc38d96-6f17-4e90-9e17-0378d598bd10" points="278.58 218.64 300.25 218.62 296.84 224.8 282.11 224.8 278.58 218.64" />
         <polygon class="stripe-3 acc38d96-6f17-4e90-9e17-0378d598bd10" points="244.33 224.88 286.79 224.89 278.44 231.23 243.97 231.14 244.33 224.88" />
         <polygon class="stripe-2 ecf11356-f0ef-42db-badf-3e4db2eb2c80" points="335.02 224.89 292.25 224.91 300.33 231.23 335.31 231.23 335.02 224.89" />
         <polygon class="stripe-3 acc38d96-6f17-4e90-9e17-0378d598bd10" points="278.58 231.23 300.25 231.2 296.84 237.39 282.11 237.39 278.58 231.23" />
         <polygon class="stripe-2 ecf11356-f0ef-42db-badf-3e4db2eb2c80" points="243.63 237.46 286.55 237.46 278.1 243.8 243.26 243.72 243.63 237.46" />
         <polygon class="stripe-3 acc38d96-6f17-4e90-9e17-0378d598bd10" points="335.48 237.47 292.14 237.49 300.33 243.8 335.77 243.8 335.48 237.47" />
         <polygon class="stripe-3 acc38d96-6f17-4e90-9e17-0378d598bd10" points="278.14 243.8 300.34 243.78 296.85 249.96 281.76 249.96 278.14 243.8" />
         <polygon class="stripe-3 acc38d96-6f17-4e90-9e17-0378d598bd10" points="243.05 250.04 286.55 250.05 277.99 256.38 242.67 256.3 243.05 250.04" />
         <polygon class="stripe-2 ecf11356-f0ef-42db-badf-3e4db2eb2c80" points="335.97 250.05 292.14 250.07 300.43 256.38 336.26 256.38 335.97 250.05" />
         <polygon class="stripe-3 acc38d96-6f17-4e90-9e17-0378d598bd10" points="278.14 256.38 300.34 256.36 296.85 262.55 281.76 262.55 278.14 256.38" />
         <polygon class="stripe-2 ecf11356-f0ef-42db-badf-3e4db2eb2c80" points="242.68 262.69 286.5 262.69 277.87 269.03 242.3 268.95 242.68 262.69" />
         <polygon class="stripe-3 acc38d96-6f17-4e90-9e17-0378d598bd10" points="336.44 262.7 292.2 262.72 300.56 269.03 336.74 269.03 336.44 262.7" />
         <polygon class="stripe-3 acc38d96-6f17-4e90-9e17-0378d598bd10" points="277.91 269.03 300.57 269.01 297 275.19 281.6 275.19 277.91 269.03" />
         <polygon class="stripe-3 acc38d96-6f17-4e90-9e17-0378d598bd10" points="242.08 275.27 286.5 275.28 277.75 281.62 241.7 281.53 242.08 275.27" />
         <polygon class="stripe-2 ecf11356-f0ef-42db-badf-3e4db2eb2c80" points="336.94 275.28 292.2 275.3 300.66 281.62 337.24 281.62 336.94 275.28" />
         <polygon class="stripe-3 acc38d96-6f17-4e90-9e17-0378d598bd10" points="277.91 281.62 300.57 281.59 297 287.78 281.6 287.78 277.91 281.62" />
         <polygon class="stripe-2 ecf11356-f0ef-42db-badf-3e4db2eb2c80" points="242.05 287.77 286.73 287.77 277.94 294.11 241.67 294.03 242.05 287.77" />
         <polygon class="stripe-3 acc38d96-6f17-4e90-9e17-0378d598bd10" points="337.67 287.78 292.55 287.8 301.08 294.11 337.97 294.11 337.67 287.78" />
         <polygon class="stripe-3 acc38d96-6f17-4e90-9e17-0378d598bd10" points="277.97 294.11 301.09 294.08 297.45 300.27 281.74 300.27 277.97 294.11" />
         <polygon class="stripe-3 acc38d96-6f17-4e90-9e17-0378d598bd10" points="241.44 300.35 286.73 300.36 277.82 306.69 241.06 306.61 241.44 300.35" />
         <polygon class="stripe-2 ecf11356-f0ef-42db-badf-3e4db2eb2c80" points="338.17 300.36 292.55 300.38 301.18 306.69 338.48 306.69 338.17 300.36" />
         <polygon class="stripe-3 acc38d96-6f17-4e90-9e17-0378d598bd10" points="277.97 306.69 301.09 306.67 297.45 312.86 281.74 312.86 277.97 306.69" />
         <polygon class="stripe-2 ecf11356-f0ef-42db-badf-3e4db2eb2c80" points="240.82 313 286.55 313 277.55 319.34 240.43 319.26 240.82 313" />
         <polygon class="stripe-3 acc38d96-6f17-4e90-9e17-0378d598bd10" points="338.68 313.01 292.5 313.03 301.23 319.34 338.98 319.34 338.68 313.01" />
         <polygon class="stripe-3 acc38d96-6f17-4e90-9e17-0378d598bd10" points="277.58 319.34 301.24 319.31 297.52 325.5 281.44 325.5 277.58 319.34" />
         <polygon class="stripe-3 acc38d96-6f17-4e90-9e17-0378d598bd10" points="240.2 325.58 286.55 325.59 277.43 331.92 239.8 331.84 240.2 325.58" />
         <polygon class="stripe-2 ecf11356-f0ef-42db-badf-3e4db2eb2c80" points="339.19 325.59 292.5 325.61 301.33 331.92 339.5 331.92 339.19 325.59" />
         <polygon class="stripe-3 acc38d96-6f17-4e90-9e17-0378d598bd10" points="277.58 331.92 301.24 331.9 297.52 338.09 281.44 338.09 277.58 331.92" />
         <polygon class="stripe-2 ecf11356-f0ef-42db-badf-3e4db2eb2c80" points="239.85 338.26 286.42 338.26 277.25 344.6 239.46 344.52 239.85 338.26" />
         <polygon class="stripe-3 acc38d96-6f17-4e90-9e17-0378d598bd10" points="339.5 338.27 292.48 338.29 301.37 344.6 339.81 344.6 339.5 338.27" />
         <polygon class="stripe-3 acc38d96-6f17-4e90-9e17-0378d598bd10" points="277.29 344.6 301.38 344.57 297.59 350.76 281.22 350.76 277.29 344.6" />
         <polygon class="stripe-3 acc38d96-6f17-4e90-9e17-0378d598bd10" points="239.22 350.84 286.42 350.85 277.13 357.18 238.82 357.1 239.22 350.84" />
         <polygon class="stripe-2 ecf11356-f0ef-42db-badf-3e4db2eb2c80" points="340.03 350.85 292.48 350.87 301.47 357.18 340.34 357.18 340.03 350.85" />
         <polygon class="stripe-3 acc38d96-6f17-4e90-9e17-0378d598bd10" points="277.29 357.18 301.38 357.16 297.59 363.35 281.22 363.35 277.29 357.18" />
         <polygon class="stripe-2 ecf11356-f0ef-42db-badf-3e4db2eb2c80" points="235.99 452.87 286.24 452.87 276.35 459.21 235.56 459.13 235.99 452.87" />
         <polygon class="stripe-3 acc38d96-6f17-4e90-9e17-0378d598bd10" points="343.5 452.88 292.78 452.9 302.37 459.21 343.84 459.21 343.5 452.88" />
         <polygon class="stripe-3 acc38d96-6f17-4e90-9e17-0378d598bd10" points="276.38 459.21 302.37 459.19 298.28 465.37 280.62 465.37 276.38 459.21" />
         <polygon class="stripe-3 acc38d96-6f17-4e90-9e17-0378d598bd10" points="235.31 465.46 286.24 465.46 276.21 471.8 234.88 471.71 235.31 465.46" />
         <polygon class="stripe-2 ecf11356-f0ef-42db-badf-3e4db2eb2c80" points="344.07 465.46 292.78 465.49 302.47 471.8 344.42 471.8 344.07 465.46" />
         <polygon class="stripe-3 acc38d96-6f17-4e90-9e17-0378d598bd10" points="276.38 471.8 302.37 471.77 298.28 477.96 280.62 477.96 276.38 471.8" />
         <polygon class="stripe-2 ecf11356-f0ef-42db-badf-3e4db2eb2c80" points="234.77 477.97 285.92 477.97 275.85 484.31 234.33 484.23 234.77 477.97" />
         <polygon class="stripe-3 acc38d96-6f17-4e90-9e17-0378d598bd10" points="344.23 477.98 292.58 478 302.34 484.31 344.57 484.31 344.23 477.98" />
         <polygon class="stripe-3 acc38d96-6f17-4e90-9e17-0378d598bd10" points="275.89 484.31 302.35 484.28 298.19 490.47 280.2 490.47 275.89 484.31" />
         <polygon class="stripe-2 ecf11356-f0ef-42db-badf-3e4db2eb2c80" points="234.77 503.29 285.92 503.29 275.85 509.63 234.33 509.55 234.77 503.29" />
         <polygon class="stripe-3 acc38d96-6f17-4e90-9e17-0378d598bd10" points="344.23 503.3 292.58 503.32 302.34 509.63 344.57 509.63 344.23 503.3" />
         <polygon class="stripe-3 acc38d96-6f17-4e90-9e17-0378d598bd10" points="275.89 509.63 302.35 509.6 298.19 515.79 280.2 515.79 275.89 509.63" />
         <polygon class="stripe-3 acc38d96-6f17-4e90-9e17-0378d598bd10" points="234.07 490.55 285.92 490.56 275.71 496.89 233.63 496.81 234.07 490.55" />
         <polygon class="stripe-2 ecf11356-f0ef-42db-badf-3e4db2eb2c80" points="344.8 490.56 292.58 490.58 302.45 496.89 345.15 496.89 344.8 490.56" />
         <polygon class="stripe-3 acc38d96-6f17-4e90-9e17-0378d598bd10" points="275.89 496.89 302.35 496.87 298.19 503.06 280.2 503.06 275.89 496.89" />
       
         <path class="symbol-left a8504367-3378-49f4-aa68-7e92432f3cdf" d="M77,427.07c.29-4.49.7-8.91.77-13.34,0-1-1-2.22-1.82-3-1.3-1.17-3-1.86-4.27-3.07a3.3,3.3,0,0,1-.76-2.89,2.43,2.43,0,0,1,3.59-1.18c1.33.71,2.63,1.46,4,2.07,9.82,4.37,19.22,3.4,28.22-2.33,1-.65,2-1.57,3.24-.14,1.76,1.94,2,3-.22,4.46-3.89,2.45-4.79,5.8-4.32,10a27.48,27.48,0,0,1,0,6.28c-.27,2.33.83,3.13,2.86,3.44a24.1,24.1,0,0,1,3.39.87c1.28.4,2.76.71,2.42,2.59s-1.61,2.64-3.44,2.57c-3.68-.16-7.36-.53-11-.46-8.12.16-16.24.55-24.37.82a16,16,0,0,1-4.74-.13,4.48,4.48,0,0,1-2.29-2.49c-.17-.38.88-1.72,1.61-2C72,428.34,74.38,427.8,77,427.07Zm5.6-13.58c0,4.44,0,8.34,0,12.25,0,.23.12.66.22.68a18,18,0,0,0,4.36.35,2.77,2.77,0,0,0,1.9-1.84,87.77,87.77,0,0,0-.07-9,1.88,1.88,0,0,0-1.1-1.34C86.47,414.14,85,414,82.57,413.49Zm17.29.21c-5.13.34-5.27.52-5.1,4.8.09,2.08.16,4.17.08,6.25-.08,1.85,1.21,1.95,2.44,2.14s2.51-.1,2.55-1.63C99.93,421.47,99.86,417.67,99.86,413.7Z" />
         <path class="symbol-left a8504367-3378-49f4-aa68-7e92432f3cdf" d="M122.85,401.47c.09,1.46-2.27,2.89-3.66,2.4a22.54,22.54,0,0,1-3.17-1.53c-7.43-4-14.87-8.07-22.26-12.17a5.12,5.12,0,0,0-5.24-.33q-11.05,5.73-22.11,11.45c-1.12.57-2.29,1.46-3.43,1.44a7.17,7.17,0,0,1-3.55-1.53,4.09,4.09,0,0,1,1-2.48,151.45,151.45,0,0,1,27.86-17c1.32-.63,3.55-.83,4.68-.14,9.34,5.76,18.54,11.76,27.74,17.74A12.37,12.37,0,0,1,122.85,401.47Z" />
         <path class="symbol-left a8504367-3378-49f4-aa68-7e92432f3cdf" d="M95.35,399a4.74,4.74,0,0,1-4.26,4.5c-2.15.05-4.55-2-4.54-3.88a4,4,0,0,1,4-4.24C93.44,395.33,95.29,396.73,95.35,399Z" />

         <path class="symbol-right a8504367-3378-49f4-aa68-7e92432f3cdf" d="M277.22,427.07c.29-4.49.71-8.91.78-13.34,0-1-1-2.22-1.82-3-1.3-1.17-3-1.86-4.27-3.07a3.24,3.24,0,0,1-.76-2.89,2.43,2.43,0,0,1,3.59-1.18c1.32.71,2.63,1.46,4,2.07,9.83,4.37,19.22,3.4,28.23-2.33,1-.65,2-1.57,3.24-.14,1.75,1.94,2,3-.23,4.46-3.89,2.45-4.79,5.8-4.31,10a28.06,28.06,0,0,1-.05,6.28c-.26,2.33.84,3.13,2.86,3.44a23.42,23.42,0,0,1,3.39.87c1.29.4,2.76.71,2.43,2.59s-1.62,2.64-3.45,2.57c-3.68-.16-7.36-.53-11-.46-8.13.16-16.25.55-24.37.82a15.93,15.93,0,0,1-4.74-.13,4.49,4.49,0,0,1-2.3-2.49c-.17-.38.88-1.72,1.61-2C272.27,428.34,274.64,427.8,277.22,427.07Zm5.61-13.58c0,4.44,0,8.34,0,12.25,0,.23.11.66.22.68a18,18,0,0,0,4.36.35,2.77,2.77,0,0,0,1.9-1.84,87.77,87.77,0,0,0-.08-9,1.87,1.87,0,0,0-1.09-1.34C286.73,414.14,285.24,414,282.83,413.49Zm17.29.21c-5.13.34-5.28.52-5.1,4.8.08,2.08.15,4.17.07,6.25-.07,1.85,1.22,1.95,2.45,2.14s2.5-.1,2.54-1.63C300.18,421.47,300.12,417.67,300.12,413.7Z" />
         <path class="symbol-right a8504367-3378-49f4-aa68-7e92432f3cdf" d="M323.1,401.47c.09,1.46-2.26,2.89-3.66,2.4a22.42,22.42,0,0,1-3.16-1.53c-7.43-4-14.87-8.07-22.27-12.17a5.1,5.1,0,0,0-5.23-.33q-11.05,5.73-22.12,11.45c-1.11.57-2.28,1.46-3.42,1.44a7.2,7.2,0,0,1-3.56-1.53,4.09,4.09,0,0,1,1.05-2.48,151.45,151.45,0,0,1,27.86-17c1.32-.63,3.56-.83,4.69-.14,9.34,5.76,18.53,11.76,27.73,17.74A12,12,0,0,1,323.1,401.47Z" />
         <path class="symbol-right a8504367-3378-49f4-aa68-7e92432f3cdf" d="M295.6,399a4.73,4.73,0,0,1-4.25,4.5c-2.15.05-4.55-2-4.55-3.88a4,4,0,0,1,4-4.24C293.7,395.33,295.55,396.73,295.6,399Z" />
      </g>
   </g>
</svg>