<?xml version="1.0" encoding="UTF-8"?>
<svg xmlns="http://www.w3.org/2000/svg" xmlns:xlink="http://www.w3.org/1999/xlink" viewBox="0 0 382.08 562.32">
   <defs>
      <style>.fdecf1b9-f9a6-43bb-a8d6-e32a3060ab99{opacity:0.53;}.ec33dede-eb58-47c4-8e6d-98335603972f{fill:#40449a;}.a6e6cb10-7276-4938-acb5-3b939a64a73e,.b64a0ccc-52a1-4744-9553-2e6bc42143d3,.f26a6a25-aa2b-4c20-ab10-fbddbffd69e5{fill:#d54756;}.f26a6a25-aa2b-4c20-ab10-fbddbffd69e5{font-size:17.15px;}.b64a0ccc-52a1-4744-9553-2e6bc42143d3,.f26a6a25-aa2b-4c20-ab10-fbddbffd69e5{font-family:Montserrat-Black, Montserrat;font-weight:800;}.a3c053d9-3a52-45dd-8376-b50be8abadc7{letter-spacing:0.01em;}.e7212b83-9332-4439-8233-d353acd27bf3{letter-spacing:-0.01em;}.b64a0ccc-52a1-4744-9553-2e6bc42143d3{writing-mode:tb;text-orientation:upright;glyph-orientation-vertical:0deg;font-size:25.84px;}</style>
   </defs>
   <title>Asset 11</title>
   <g id="e503777f-7e77-41d3-90db-d6bbb130b298" data-name="Layer 2">
      <g id="ecab32b8-d826-4529-8b7b-8eb1118f9566" data-name="Layer 1">
         <g class="fdecf1b9-f9a6-43bb-a8d6-e32a3060ab99" />
         <path class="base-stole ec33dede-eb58-47c4-8e6d-98335603972f" d="M346.06,520.06H233.69c5.26-133.66,10.68-268,15.65-401.66.39-10.3-1.11-38.12-1.63-42.65-1.63-14.39-6.18-28.51-4.54-43.24,9.29-.1,86.83,43.19,87.29,57.68C334.4,213.65,346.67,518.11,346.06,520.06Z" />
         <path class="base-stole ec33dede-eb58-47c4-8e6d-98335603972f" d="M36.32,520.06H148.68C143.43,386.4,138,252.07,133,118.4c-.38-10.3,1.12-38.12,1.63-42.65,1.63-14.39,6.19-28.51,4.54-43.24-9.28-.1-86.83,43.19-87.28,57.68C48,213.65,35.7,518.11,36.32,520.06Z" />
         <path d="M194.05,87.33l54.79,0s-3.37-35.13-5.67-54.77c-.17-5-38.6-.94-52-.3-13.39-.64-51.82-4.67-52,.3-2.3,19.64-5.67,54.77-5.67,54.77l54.8,0h5.72Z" />
         <polygon class="stripe-1 a6e6cb10-7276-4938-acb5-3b939a64a73e" points="133.19 107.09 51.35 107.08 51.4 104.93 133.09 104.73 133.19 107.09" />
         <polygon class="stripe-2 a6e6cb10-7276-4938-acb5-3b939a64a73e" points="133 114.05 51.1 114.05 51.19 111.89 132.98 111.89 133 114.05" />
         <polygon class="stripe-3 a6e6cb10-7276-4938-acb5-3b939a64a73e" points="133.13 121.01 50.86 121.01 50.96 118.85 133.05 118.85 133.13 121.01" />
         <polygon class="stripe-4 a6e6cb10-7276-4938-acb5-3b939a64a73e" points="133.4 127.97 50.6 127.97 50.71 125.81 133.34 125.81 133.4 127.97" />
         <polygon class="stripe-5 a6e6cb10-7276-4938-acb5-3b939a64a73e" points="133.71 134.93 50.37 134.93 50.5 132.77 133.59 132.77 133.71 134.93" />
         <polygon class="stripe-6 a6e6cb10-7276-4938-acb5-3b939a64a73e" points="133.99 141.89 50.15 141.89 50.24 139.73 133.84 139.73 133.99 141.89" />
         
         <polygon class="stripe-1 a6e6cb10-7276-4938-acb5-3b939a64a73e" points="138.39 238.89 46.17 238.88 46.24 236.73 138.28 236.54 138.39 238.89" />
         <polygon class="stripe-2 a6e6cb10-7276-4938-acb5-3b939a64a73e" points="138.17 245.85 45.89 245.85 45.99 243.69 138.15 243.69 138.17 245.85" />
         <polygon class="stripe-3 a6e6cb10-7276-4938-acb5-3b939a64a73e" points="138.32 252.81 45.62 252.81 45.74 250.65 138.23 250.65 138.32 252.81" />
         <polygon class="stripe-4 a6e6cb10-7276-4938-acb5-3b939a64a73e" points="138.62 259.77 45.33 259.77 45.46 257.61 138.55 257.61 138.62 259.77" />
         <polygon class="stripe-5 a6e6cb10-7276-4938-acb5-3b939a64a73e" points="138.97 266.73 45.07 266.73 45.22 264.57 138.84 264.57 138.97 266.73" />
         <polygon class="stripe-6 a6e6cb10-7276-4938-acb5-3b939a64a73e" points="139.29 273.69 44.82 273.69 44.92 271.53 139.12 271.53 139.29 273.69" />
         
         <polygon class="stripe-1 a6e6cb10-7276-4938-acb5-3b939a64a73e" points="146.83 462.11 38.15 462.1 38.23 459.95 146.7 459.75 146.83 462.11" />
         <polygon class="stripe-2 a6e6cb10-7276-4938-acb5-3b939a64a73e" points="146.57 469.06 37.82 469.06 37.94 466.91 146.55 466.91 146.57 469.06" />
         <polygon class="stripe-3 a6e6cb10-7276-4938-acb5-3b939a64a73e" points="146.75 476.02 37.5 476.02 37.64 473.87 146.64 473.87 146.75 476.02" />
         <polygon class="stripe-4 a6e6cb10-7276-4938-acb5-3b939a64a73e" points="147.1 482.99 37.16 482.99 37.31 480.83 147.02 480.83 147.1 482.99" />
         <polygon class="stripe-5 a6e6cb10-7276-4938-acb5-3b939a64a73e" points="147.51 489.94 36.85 489.94 37.03 487.79 147.35 487.79 147.51 489.94" />
         <polygon class="stripe-6 a6e6cb10-7276-4938-acb5-3b939a64a73e" points="147.89 496.9 36.55 496.9 36.68 494.75 147.68 494.75 147.89 496.9" />
         
         <polygon class="stripe-1 a6e6cb10-7276-4938-acb5-3b939a64a73e" points="330.51 107.09 248.66 107.08 248.72 104.93 330.41 104.73 330.51 107.09" />
         <polygon class="stripe-2 a6e6cb10-7276-4938-acb5-3b939a64a73e" points="330.31 114.05 248.41 114.05 248.5 111.89 330.3 111.89 330.31 114.05" />
         <polygon class="stripe-3 a6e6cb10-7276-4938-acb5-3b939a64a73e" points="330.45 121.01 248.17 121.01 248.27 118.85 330.37 118.85 330.45 121.01" />
         <polygon class="stripe-4 a6e6cb10-7276-4938-acb5-3b939a64a73e" points="330.71 127.97 247.91 127.97 248.03 125.81 330.65 125.81 330.71 127.97" />
         <polygon class="stripe-5 a6e6cb10-7276-4938-acb5-3b939a64a73e" points="331.02 134.93 247.68 134.93 247.82 132.77 330.9 132.77 331.02 134.93" />
         <polygon class="stripe-6 a6e6cb10-7276-4938-acb5-3b939a64a73e" points="331.3 141.89 247.46 141.89 247.55 139.73 331.15 139.73 331.3 141.89" />
         
         <polygon class="stripe-1 a6e6cb10-7276-4938-acb5-3b939a64a73e" points="335.7 238.89 243.49 238.88 243.55 236.73 335.59 236.54 335.7 238.89" />
         <polygon class="stripe-2 a6e6cb10-7276-4938-acb5-3b939a64a73e" points="335.48 245.85 243.21 245.85 243.31 243.69 335.47 243.69 335.48 245.85" />
         <polygon class="stripe-3 a6e6cb10-7276-4938-acb5-3b939a64a73e" points="335.64 252.81 242.94 252.81 243.05 250.65 335.55 250.65 335.64 252.81" />
         <polygon class="stripe-4 a6e6cb10-7276-4938-acb5-3b939a64a73e" points="335.93 259.77 242.64 259.77 242.77 257.61 335.87 257.61 335.93 259.77" />
         <polygon class="stripe-5 a6e6cb10-7276-4938-acb5-3b939a64a73e" points="336.28 266.73 242.38 266.73 242.54 264.57 336.15 264.57 336.28 266.73" />
         <polygon class="stripe-6 a6e6cb10-7276-4938-acb5-3b939a64a73e" points="336.6 273.69 242.13 273.69 242.24 271.53 336.43 271.53 336.6 273.69" />
         
         <polygon class="stripe-1 a6e6cb10-7276-4938-acb5-3b939a64a73e" points="344.14 462.11 235.47 462.1 235.54 459.95 344.01 459.75 344.14 462.11" />
         <polygon class="stripe-2 a6e6cb10-7276-4938-acb5-3b939a64a73e" points="343.88 469.06 235.14 469.06 235.25 466.91 343.86 466.91 343.88 469.06" />
         <polygon class="stripe-3 a6e6cb10-7276-4938-acb5-3b939a64a73e" points="344.07 476.02 234.82 476.02 234.95 473.87 343.96 473.87 344.07 476.02" />
         <polygon class="stripe-4 a6e6cb10-7276-4938-acb5-3b939a64a73e" points="344.42 482.99 234.47 482.99 234.62 480.83 344.33 480.83 344.42 482.99" />
         <polygon class="stripe-5 a6e6cb10-7276-4938-acb5-3b939a64a73e" points="344.83 489.94 234.16 489.94 234.35 487.79 344.67 487.79 344.83 489.94" />
         <polygon class="stripe-6 a6e6cb10-7276-4938-acb5-3b939a64a73e" points="345.2 496.9 233.87 496.9 233.99 494.75 345 494.75 345.2 496.9" />
     
         <path class="symbol-left a6e6cb10-7276-4938-acb5-3b939a64a73e" d="M116.69,218.65H96.77V206.14h-10v12.49H67.2V198.86H79.3v-10H66.45v-20H86.61v12.85H96.75V168.88h19.94v20H103.77v10.18h12.92ZM83.42,202.31l-.63,0H71.19v12.2H83.44c0-.13,0-.22,0-.31V202.68a2.63,2.63,0,0,0-.06-.39l4.57.05h1.82v-6.5H83.42Zm0-16.53V192H89.8V185.8H83.4a3.47,3.47,0,0,0,.06-.45v-12c0-.15,0-.29,0-.45h-13v12.91H74Zm16.3-13v13H93.78V192h6v-6.28h12.94v-13Zm0,29.33v12.44h13V202.08h-13v-6h-6v6Z" />
         <path class="symbol-right a6e6cb10-7276-4938-acb5-3b939a64a73e" d="M314.47,218.65H294.55V206.14h-10v12.49H265V198.86h12.1v-10H264.23v-20h20.16v12.85h10.15V168.88h19.93v20H301.55v10.18h12.92ZM281.2,202.31l-.63,0H269v12.2h12.25c0-.13,0-.22,0-.31V202.68a2.63,2.63,0,0,0-.06-.39l4.57.05h1.83v-6.5H281.2Zm0-16.53V192h6.38V185.8h-6.4a3.47,3.47,0,0,0,.06-.45v-12c0-.15,0-.29,0-.45h-13v12.91h3.59Zm16.3-13v13h-5.94V192h6v-6.28h12.94v-13Zm0,29.33v12.44h13V202.08h-13v-6h-6v6Z" />
      </g>
   </g>
</svg>