<svg width="168" height="261" viewBox="0 0 168 261" fill="none" xmlns="http://www.w3.org/2000/svg">
<g filter="url(#filter0_d_66_64)">
<path d="M11.75 29C11.75 29 25.5802 16.72 34.75 11.5001C43.2905 6.6385 56.25 0 56.25 0L82.5 1.5L109.25 0C109.25 0 126.019 4.84164 136.25 11.5001C145.965 17.823 156.25 29 156.25 29L163.75 253H105.25L112.75 30H54.25L62.25 253H4L11.75 29Z" fill="#FBFBFB"/>
<path d="M155.757 29.2033L163.233 252.5H105.767L113.25 30.0168L113.267 29.5H112.75H54.25H53.7317L53.7503 30.0179L61.7317 252.5H4.5176L12.2423 29.2323C12.3452 29.1416 12.4963 29.0089 12.6911 28.8387C13.0861 28.4937 13.6609 27.9947 14.3794 27.3795C15.8167 26.1489 17.8283 24.4539 20.1257 22.5963C24.7278 18.8752 30.4507 14.5228 34.9974 11.9347C39.2602 9.50806 44.6293 6.63614 48.9356 4.3694C51.0881 3.23636 52.9739 2.25515 54.3216 1.55722C54.9954 1.20826 55.5346 0.930141 55.9053 0.739292C56.0907 0.643868 56.2339 0.570262 56.3308 0.520531L56.3572 0.506944L82.4715 1.99919L82.4997 2.0008L82.528 1.99922L109.192 0.504028L109.299 0.535446C109.423 0.572205 109.607 0.627119 109.845 0.699448C110.321 0.844112 111.014 1.05842 111.877 1.33646C113.603 1.89261 116.012 2.7034 118.739 3.72155C124.201 5.76083 130.909 8.6206 135.977 11.9192C140.797 15.0561 145.771 19.4068 149.549 22.9842C151.436 24.7709 153.021 26.3607 154.133 27.5035C154.689 28.0749 155.127 28.5343 155.426 28.8506C155.569 29.0022 155.68 29.1209 155.757 29.2033Z" stroke="#656565"/>
</g>
<defs>
<filter id="filter0_d_66_64" x="0" y="0" width="167.75" height="261" filterUnits="userSpaceOnUse" color-interpolation-filters="sRGB">
<feFlood flood-opacity="0" result="BackgroundImageFix"/>
<feColorMatrix in="SourceAlpha" type="matrix" values="0 0 0 0 0 0 0 0 0 0 0 0 0 0 0 0 0 0 127 0" result="hardAlpha"/>
<feOffset dy="4"/>
<feGaussianBlur stdDeviation="2"/>
<feComposite in2="hardAlpha" operator="out"/>
<feColorMatrix type="matrix" values="0 0 0 0 0 0 0 0 0 0 0 0 0 0 0 0 0 0 0.25 0"/>
<feBlend mode="normal" in2="BackgroundImageFix" result="effect1_dropShadow_66_64"/>
<feBlend mode="normal" in="SourceGraphic" in2="effect1_dropShadow_66_64" result="shape"/>
</filter>
</defs>
</svg>
