<?xml version="1.0" standalone="no"?>
<!DOCTYPE svg PUBLIC "-//W3C//DTD SVG 20010904//EN"
 "http://www.w3.org/TR/2001/REC-SVG-20010904/DTD/svg10.dtd">
<svg version="1.0" xmlns="http://www.w3.org/2000/svg"
 width="197.000000pt" height="181.000000pt" viewBox="0 0 197.000000 181.000000"
 preserveAspectRatio="xMidYMid meet">

<g transform="translate(0.000000,181.000000) scale(0.100000,-0.100000)"
fill="#000000" stroke="none">
<path d="M814 1521 c-171 -84 -305 -161 -449 -256 -135 -90 -295 -212 -295
-226 0 -18 61 -69 83 -69 11 0 122 53 246 119 124 65 296 153 380 196 185 92
193 92 309 17 131 -84 657 -352 692 -352 24 0 70 42 70 64 0 20 -240 200 -413
309 -140 89 -457 267 -475 267 -5 0 -72 -31 -148 -69z"/>
<path d="M903 1170 c-60 -24 -78 -117 -32 -166 49 -52 125 -54 179 -4 24 23
30 36 30 70 0 34 -6 48 -34 76 -29 29 -41 34 -77 33 -24 0 -54 -4 -66 -9z"/>
<path d="M1385 947 c-38 -22 -110 -58 -160 -80 l-90 -41 -152 -4 c-179 -4
-239 9 -412 89 -93 44 -106 48 -129 36 -15 -6 -32 -23 -39 -37 -16 -33 -4 -52
78 -113 35 -26 77 -57 92 -70 l28 -22 -13 -210 -13 -209 -70 -17 c-120 -28
-175 -54 -175 -82 0 -29 32 -77 55 -82 30 -6 128 0 235 14 93 13 589 20 824
12 95 -3 111 -1 135 16 31 24 40 73 16 93 -10 8 -63 26 -118 40 l-102 27 -3
214 -2 214 80 80 c44 44 80 85 80 91 0 15 -37 62 -58 73 -12 6 -36 -2 -87 -32z
m-173 -308 c5 -19 9 -86 10 -149 2 -172 -27 -222 -107 -184 l-35 16 0 122 c0
66 -3 137 -6 157 l-6 37 58 20 c33 11 63 19 69 18 5 -1 13 -18 17 -37z m-366
11 l62 -12 6 -46 c3 -24 6 -87 6 -138 0 -115 -17 -142 -95 -154 -89 -13 -85
-22 -85 179 0 98 3 181 7 184 4 4 14 5 22 3 9 -2 44 -9 77 -16z"/>
</g>
</svg>
