<svg xmlns="http://www.w3.org/2000/svg" viewBox="0 0 38.16 38.14"><defs><style>.bc636e50-224e-47d9-b443-5bbd9e757101{fill:#1e1e1e;}</style></defs><title>Asset 15</title><g id="bc848ed9-86cf-40c8-9e0c-e5af5dcce439" data-name="Layer 2"><g id="b690c615-852c-4b90-8456-ac6176788efd" data-name="Layer 1"><path class="bc636e50-224e-47d9-b443-5bbd9e757101" d="M6.32,0a9.64,9.64,0,0,1,7.11,3.2,1,1,0,0,1,0,1,31.18,31.18,0,0,1-2.53,2.48c-.36.32-.46.55-.1.91,1.35,1.34,2.68,2.69,4.06,4a1.11,1.11,0,0,0,1,.15,7.83,7.83,0,0,1,6.67,0,1.37,1.37,0,0,0,1.23-.17C25,10.46,26.16,9.24,27.37,8c.45-.45.18-.86-.16-1.21-.79-.8-1.57-1.61-2.39-2.39-.52-.5-.44-.86.06-1.36a9.85,9.85,0,0,1,6.42-3A6.37,6.37,0,0,1,38.1,6.5a9.86,9.86,0,0,1-3.15,7,.67.67,0,0,1-1.11,0c-.79-.81-1.61-1.58-2.39-2.4-.31-.33-.58-.46-.94-.11-1.37,1.35-2.75,2.7-4.1,4.07a.69.69,0,0,0,0,.63,7.19,7.19,0,0,1,.29,6.26c-.5,1.15-.08,1.56.59,2.2,1,1,2,2,3,3.08.44.46.75.6,1.25,0,.74-.87,1.61-1.64,2.42-2.46a.63.63,0,0,1,1,0c2.39,2.38,3.64,5.22,3,8.59a5.44,5.44,0,0,1-3.27,4.17c-3.66,1.58-7.48.14-10-2.48a.68.68,0,0,1,0-1.11c.87-.84,1.7-1.71,2.59-2.53a.61.61,0,0,0,0-1c-1.26-1.27-2.53-2.54-3.8-3.79a.9.9,0,0,0-1.16-.1,6.54,6.54,0,0,1-5.35.48c-.5-.2-1-.41-1.52-.57a.76.76,0,0,0-.61.12c-1.29,1.23-2.58,2.47-3.82,3.74a.73.73,0,0,0,.09,1.19c.81.7,1.52,1.5,2.31,2.23.48.44.54.83.05,1.3-2.39,2.31-5.19,3.64-8.53,3a5.65,5.65,0,0,1-4.41-4c-1.22-3.71.34-6.61,2.68-9.28.43-.5.92-.37,1.35.07L6.83,27c.65.69.87.69,1.53,0,1.07-1.09,2.2-2.13,3.23-3.26a1.35,1.35,0,0,0,.19-1.2,7.4,7.4,0,0,1,.08-6.95.93.93,0,0,0-.11-.84c-1.29-1.36-2.62-2.69-3.95-4-.34-.33-.64-.37-1,.06a34.35,34.35,0,0,1-2.54,2.58,1,1,0,0,1-1,0C.74,11-.52,8.12.2,4.68A5.85,5.85,0,0,1,6.32,0"/></g></g></svg>