<svg xmlns="http://www.w3.org/2000/svg" viewBox="0 0 29.42 38.14"><defs><style>.ae9c730d-103b-4d40-8172-20d821ee5a30{fill:#1e1e1e;}</style></defs><title>Asset 18</title><g id="e03e5b93-56fd-4e24-8b83-b2980a9b660a" data-name="Layer 2"><g id="e7455e21-b980-4c80-8d38-4cc9ed04b371" data-name="Layer 1"><path class="ae9c730d-103b-4d40-8172-20d821ee5a30" d="M.05,19.09c0-3.22-.08-6.43,0-9.64A9.81,9.81,0,0,1,4.61,1.09a6.94,6.94,0,0,1,8.28.63c.53.46,1,1,1.5,1.49s.56.38.9-.08A7.19,7.19,0,0,1,21.12,0a7.57,7.57,0,0,1,6.34,3.42,10.57,10.57,0,0,1,1.93,6.46c0,5.4,0,10.81,0,16.21a24.32,24.32,0,0,1-.22,4.36c-.58,3.15-2,5.78-5.2,7.05-3.75,1.52-6.65.13-8.65-2.43-.45-.58-.64-.49-1,0a8.09,8.09,0,0,1-3.44,2.6,7,7,0,0,1-5.17,0,7.89,7.89,0,0,1-4.38-4.22A13,13,0,0,1,.1,28.87C-.08,25.62,0,22.35,0,19.09ZM8.54,9.35v0h3.6c.75,0,1-.26.73-1a16.56,16.56,0,0,0-1.11-2.64A3.91,3.91,0,0,0,7,4.23,5.4,5.4,0,0,0,4.21,8.62c-.06.56.21.74.73.74,1.2,0,2.4,0,3.6,0M21,9.35c1.2,0,2.4,0,3.6,0,.68,0,.95-.3.72-.91a15.08,15.08,0,0,0-1.18-2.77,3.89,3.89,0,0,0-4.62-1.48,5.54,5.54,0,0,0-2.83,4.32c-.1.63.18.86.79.84,1.17,0,2.34,0,3.52,0m.07,19.54v0c-1.2,0-2.4,0-3.6,0-.59,0-.85.21-.78.85a5.67,5.67,0,0,0,2,3.68,3.49,3.49,0,0,0,4.05.38,6.34,6.34,0,0,0,2.64-4c.21-.73,0-.94-.76-.94H21.07m-12.56,0v0H4.92c-.57,0-.78.23-.71.83A6.12,6.12,0,0,0,5.6,32.8a3.67,3.67,0,0,0,4.82.89,6.26,6.26,0,0,0,2.51-4.06c.12-.56-.25-.72-.75-.72H8.51m1.58-9.75h0V21c0,.62,0,1.25,0,1.87,0,2,.13,2.12,2.11,1.89a.71.71,0,0,0,.73-.81c0-3.13,0-6.25,0-9.38,0-.83-.23-1.07-1.06-1.09-.23,0-.47,0-.7,0-.73,0-1.09.3-1.06,1.09,0,1.54,0,3.08,0,4.62m9.24,0h0c0-1.59,0-3.18,0-4.78,0-.7-.27-1-1-1a4.42,4.42,0,0,1-.63,0c-.73,0-1,.27-1,1,0,2.85,0,5.69,0,8.54,0,1.86-.16,1.68,1.65,1.74.72,0,1-.21,1-.93,0-1.54,0-3.08,0-4.62m-12.57,0h0V14.5c0-.88-.15-1-1-1.07H5.17c-.81,0-1,.19-1,1,0,2.9,0,5.79,0,8.69,0,2,.16,1.61,1.68,1.61.67,0,.92-.24.9-.93,0-1.53,0-3.07,0-4.61M22.87,19h0c0,1.38,0,2.76,0,4.14,0,1.66,0,1.6,1.57,1.55.93,0,1-.09,1-1.05,0-3.07,0-6.15,0-9.22,0-.76-.28-1.06-1-1-.24,0-.47,0-.71,0-.64,0-.87.32-.86.93,0,1.56,0,3.12,0,4.69"/></g></g></svg>