<svg xmlns="http://www.w3.org/2000/svg" viewBox="0 0 41.56 38.14"><defs><style>.ea856dd0-7555-47c4-ace7-6e3633eda8ff{fill:#1e1e1e;}</style></defs><title>Asset 21</title><g id="f2025887-be03-4dff-a924-892e5bc7b186" data-name="Layer 2"><g id="b1badd01-ff84-4694-a9f8-5c254f2bf9bd" data-name="Layer 1"><path class="ea856dd0-7555-47c4-ace7-6e3633eda8ff" d="M9.72,0A11.36,11.36,0,0,1,16,2.26a11.85,11.85,0,0,1,3.91,5.18,1.8,1.8,0,0,0,.17.34c.58.8.92.82,1.45,0S22.5,6,23,5.07a10.56,10.56,0,0,1,4.42-3.89A10.43,10.43,0,0,1,32.86.07a9.54,9.54,0,0,1,3.51,1.06A10.86,10.86,0,0,1,40.77,5a10.37,10.37,0,0,1,.79,1.56A13.59,13.59,0,0,1,40,6.76a24,24,0,0,0-8.58,1.77,18,18,0,0,0-6.94,5c-.92,1.14-.93,1.45-.19,2.77a17.22,17.22,0,0,1,1,2,1.34,1.34,0,0,0,1.27.93,4.58,4.58,0,0,1,4,2.42,3.94,3.94,0,0,1,0,3.6,5,5,0,0,0-.39,1,.93.93,0,0,0,.9,1.16c.43,0,.86,0,1.29,0a4.26,4.26,0,0,1,4.07,4.77,12.67,12.67,0,0,0-.44,2,4.45,4.45,0,0,0,.49,1.62,11.61,11.61,0,0,1,.61,1.29,1.2,1.2,0,0,1-.25,1c-.15.13-.68,0-.93-.15a5.4,5.4,0,0,1-1.16-1.08,1.84,1.84,0,0,0-1.77-.64,4.36,4.36,0,0,1-4.68-2.39,4.53,4.53,0,0,1,0-4,1.85,1.85,0,0,0,.15-1.25,1.16,1.16,0,0,0-1.27-.76,4.15,4.15,0,0,1-4.37-2.37,2.78,2.78,0,0,1-.41-2.8,2.53,2.53,0,0,0,.28-1.18,3.65,3.65,0,0,0-.27-1.35,4.19,4.19,0,0,0-.78-.92c-.66-.72-1.08-.69-1.66.12-.16.23-.33.45-.5.66a1.65,1.65,0,0,0-.31,1.86,4.29,4.29,0,0,1-2,5.47,4.12,4.12,0,0,1-2.55.53,1.1,1.1,0,0,0-1.24.68,1.78,1.78,0,0,0,.09,1.28,4.38,4.38,0,0,1-2.23,6,5.26,5.26,0,0,1-2.74.38,2.17,2.17,0,0,0-1.32.54c-.49.35-.84.89-1.34,1.22a1.16,1.16,0,0,1-1,0c-.36-.17-.47-.54-.19-1a13.79,13.79,0,0,0,.83-1.51,3.68,3.68,0,0,0-.11-2.75A4.24,4.24,0,0,1,7.4,28a6.32,6.32,0,0,1,2.78-.61,1.61,1.61,0,0,0,1.21-.54,1.57,1.57,0,0,0-.22-1.28,4.42,4.42,0,0,1,.58-4.75,4.74,4.74,0,0,1,3.13-1.5,1.69,1.69,0,0,0,1.61-1.26c.3-.91.79-1.75,1.16-2.63a1.54,1.54,0,0,0-.39-1.72,17.59,17.59,0,0,0-5.39-4.36A17.86,17.86,0,0,0,5.16,7.15l-4.7-.3c-.52,0-.53-.39-.36-.7A12.29,12.29,0,0,1,3,2.57,10.76,10.76,0,0,1,7.18.39C8,.18,8.87.13,9.72,0M9.56,34.19a2.15,2.15,0,0,0,2.16-2.32,2.11,2.11,0,0,0-2.33-2.21A2.44,2.44,0,0,0,7.16,32a2.58,2.58,0,0,0,2.4,2.2m22.59-4.55a2.26,2.26,0,0,0-2.32,2.18,2.35,2.35,0,0,0,2.39,2.34,2.53,2.53,0,0,0,2.22-2.39,2.29,2.29,0,0,0-2.29-2.13M29.65,3.46a1.41,1.41,0,0,0-1.2,1.06c0,.45.66,1.07,1.18,1.09a1.46,1.46,0,0,0,1.24-1c0-.46-.68-1.11-1.22-1.12m5.76,1.21a1,1,0,0,0-1-1.1,1.24,1.24,0,0,0-1.17,1.16,1,1,0,0,0,1.09,1,1,1,0,0,0,1.09-1.07M16.49,6.82a1.07,1.07,0,0,0-2.13-.07A1.38,1.38,0,0,0,15.44,8a1.31,1.31,0,0,0,1-1.13M11.93,5.6a1.16,1.16,0,0,0,1.11-1A1.13,1.13,0,0,0,12,3.48,1.2,1.2,0,0,0,10.8,4.55a1.29,1.29,0,0,0,1.13,1M27.34,6.75a1.14,1.14,0,0,0-1.11-1,1,1,0,0,0-1.05,1.06A1.26,1.26,0,0,0,26.27,8a1.42,1.42,0,0,0,1.07-1.2M7.24,5.69a1.19,1.19,0,0,0,1.15-1A1.37,1.37,0,0,0,7.28,3.55a1.26,1.26,0,0,0-1.13,1.1,1.09,1.09,0,0,0,1.09,1"/></g></g></svg>