<svg xmlns="http://www.w3.org/2000/svg" viewBox="0 0 37.55 38.14"><defs><style>.aa1f1307-632a-4528-a28c-7e6c061a04f2{fill:#1e1e1e;}</style></defs><title>Asset 17</title><g id="f6b5197f-7373-4e04-abc8-2a99c41fe6fa" data-name="Layer 2"><g id="f8c6a48d-943a-42a2-83d8-aa4238ae8fc1" data-name="Layer 1"><path class="aa1f1307-632a-4528-a28c-7e6c061a04f2" d="M9.6,5.21A6.13,6.13,0,0,1,13.85,6.7c.6.52,1.08.45,1.44-.23.74-1.41,1.5-2.81,2.22-4.23.29-.58.43-1.25.77-1.79s.88-.58,1.19.11c.62,1.38,1.18,2.79,1.83,4.16a18.57,18.57,0,0,0,1.29,2.13c.35.52.73.24,1.09,0A6.1,6.1,0,0,1,28,5.27a6.08,6.08,0,0,1,5.19,4.45A5.69,5.69,0,0,1,32,14.87.65.65,0,0,0,32.2,16c1,.58,2,1.15,3.08,1.67.59.3,1.25.44,1.83.74a.93.93,0,0,1,.44.72,1.29,1.29,0,0,1-.59.81c-1.38.68-2.81,1.26-4.19,1.92-1.12.54-1.16.87-.46,1.86a5.8,5.8,0,0,1-2.72,8.85c-2.23.91-4.08.28-5.83-1.06-.58-.44-1-.55-1.34.22-.94,1.95-1.91,3.89-2.88,5.82-.13.26-.39.63-.59.63a1.08,1.08,0,0,1-.8-.48c-.34-.63-.51-1.33-.82-2-.66-1.36-1.36-2.7-2.06-4a.78.78,0,0,0-1.34-.22,5.57,5.57,0,0,1-8.59-1.05,5.3,5.3,0,0,1,.4-7.12c.34-.38.29-.69-.1-.91-1.09-.62-2.19-1.22-3.31-1.78-.56-.28-1.19-.41-1.74-.7-.27-.15-.62-.54-.59-.76a1.27,1.27,0,0,1,.68-.78c1.36-.67,2.75-1.26,4.12-1.9a4.86,4.86,0,0,0,.85-.57c.39-.28.37-.56.06-.93C3,11.7,4.17,8,7.32,6A8.22,8.22,0,0,1,9.6,5.21m22,6a4.1,4.1,0,0,0-3.81-4.34c-2.39-.3-4.53,2.22-4.57,4-.06,2.74,1.56,4.34,4.49,4.41,2.23.05,3.82-1.59,3.89-4M10.15,31.35a4.36,4.36,0,0,0,4.26-4.19,4,4,0,0,0-4.18-4.26A4,4,0,0,0,5.9,27c0,2.35,1.66,4,4.25,4.32m13.08-4.3c-.25,2,2.3,4.43,4.32,4.31a4.51,4.51,0,0,0,4.12-4.23,4.21,4.21,0,0,0-4.1-4.24,4.14,4.14,0,0,0-4.34,4.16M10.05,15.28a4,4,0,0,0,4.35-4,4.25,4.25,0,1,0-8.5,0,4,4,0,0,0,4.15,4.08m11-3.56A1.64,1.64,0,0,0,21,11.3c-.55-1-1.06-2-1.67-3a.56.56,0,0,0-1,0c-.41.72-.81,1.44-1.2,2.17A1.69,1.69,0,0,0,17,12.45c.42.64.74,1.35,1.14,2a9.56,9.56,0,0,0,.6.82,4.26,4.26,0,0,0,.86-.77,23.32,23.32,0,0,0,1.18-2.06,4.17,4.17,0,0,0,.27-.73m.09,14.86c-.67-1.16-1.32-2.32-2-3.44a1,1,0,0,0-.79.2,22.09,22.09,0,0,0-1.4,2.74,1.47,1.47,0,0,0,0,1.09c.36.8.83,1.56,1.27,2.33.14.23.36.64.47.61a1.38,1.38,0,0,0,.82-.5c.38-.57.66-1.2,1-1.81.19-.36.4-.73.67-1.22m5.57-5.51a4.61,4.61,0,0,0,.62-.18c.91-.47,1.84-.91,2.72-1.44.44-.26.23-.57-.15-.77-.6-.32-1.23-.61-1.8-1a2.18,2.18,0,0,0-2.35-.16,13.22,13.22,0,0,0-1.27.71c-.41.26-.8.58-1.19.88a11,11,0,0,0,1.2.86c.75.41,1.53.75,2.22,1.09m-16-.05a2.71,2.71,0,0,0,.58-.09c1-.49,2-1,2.95-1.53a.75.75,0,0,0-.11-.63c-.74-.47-1.52-.87-2.3-1.29a2,2,0,0,0-2,.08l-1.12.61c-1.4.74-1.42.93-.1,1.73.74.46,1.54.81,2.15,1.12"/></g></g></svg>