<svg xmlns="http://www.w3.org/2000/svg" viewBox="0 0 38.29 38.14"><defs><style>.a4d477f6-281f-4b2b-8586-742d7f91660f{fill:#1e1e1e;}</style></defs><title>Asset 20</title><g id="e2a55a6e-43a7-4c83-9bf1-9dfe5a3458e5" data-name="Layer 2"><g id="b34441b8-ff10-48b4-8eec-64d5175552f9" data-name="Layer 1"><path class="a4d477f6-281f-4b2b-8586-742d7f91660f" d="M12.37,0A20.27,20.27,0,0,1,15.2.83c1.24.51,2.38,1.26,3.6,1.83a1.42,1.42,0,0,0,1-.17,30.48,30.48,0,0,1,3.8-2A10.49,10.49,0,0,1,27.37.1,9.78,9.78,0,0,1,32.3,1.6,12.72,12.72,0,0,1,37,6.47a12.49,12.49,0,0,1,1.22,7,15,15,0,0,1-1.46,5.13A26.85,26.85,0,0,1,31.09,27c-.87.83-1.53,1.88-2.39,2.73-1.54,1.52-3.15,3-4.76,4.42-1.39,1.26-2.81,2.47-4.21,3.7-.33.29-.58.37-1,0A92.15,92.15,0,0,1,7.84,27.66c-1.26-1.47-2.51-2.95-3.64-4.52a24.84,24.84,0,0,1-3.11-5.93,14.65,14.65,0,0,1-1-6.36A11.83,11.83,0,0,1,2.28,5,13.45,13.45,0,0,1,7,1.12,11.31,11.31,0,0,1,12.37,0m6.78,9.09c-.16-.31-.23-.39-.26-.48a6,6,0,0,0-4.6-4.08C11.74,4,9.09,4,6.8,5.7,3.77,8,3,10.41,3.68,13.93a18.69,18.69,0,0,0,2.68,6,41.79,41.79,0,0,0,7.11,8.29c1.69,1.59,3.44,3.11,5.14,4.68a.81.81,0,0,0,1.22,0c3-2.88,6.38-5.45,9-8.72a42.77,42.77,0,0,0,3.84-5.32A14,14,0,0,0,34.86,13a7.37,7.37,0,0,0-1.43-5.62,7.73,7.73,0,0,0-4.88-2.93,9.63,9.63,0,0,0-5.45.49A5.76,5.76,0,0,0,19.79,8a10.27,10.27,0,0,1-.64,1.08"/></g></g></svg>