<?xml version="1.0" encoding="UTF-8"?>
<svg xmlns="http://www.w3.org/2000/svg" xmlns:xlink="http://www.w3.org/1999/xlink" width="24px" height="24px" viewBox="0 0 24 24" version="1.1">
<g id="surface1">
<path style=" stroke:none;fill-rule:nonzero;fill:rgb(100%,89.411765%,70.980394%);fill-opacity:1;" d="M 8.984375 15.507812 L 2.621094 15.511719 L 3.140625 5.808594 L 8.382812 5.808594 "/>
<path style=" stroke:none;fill-rule:nonzero;fill:rgb(39.215687%,80.000001%,96.078432%);fill-opacity:1;" d="M 3.140625 5.808594 L 5.589844 5.808594 L 5.109375 6.078125 L 3.121094 6.078125 Z M 3.140625 5.808594 "/>
<path style=" stroke:none;fill-rule:nonzero;fill:rgb(0%,16.862746%,22.745098%);fill-opacity:1;" d="M 8.382812 5.808594 L 5.910156 5.808594 L 6.378906 6.078125 L 8.402344 6.078125 Z M 8.382812 5.808594 "/>
<path style=" stroke:none;fill-rule:nonzero;fill:rgb(0%,16.862746%,22.745098%);fill-opacity:1;" d="M 5.109375 6.078125 L 6.378906 6.078125 L 6.179688 6.34375 L 5.316406 6.34375 Z M 3.109375 6.347656 L 5.589844 6.347656 L 5.101562 6.617188 L 3.085938 6.613281 Z M 3.109375 6.347656 "/>
<path style=" stroke:none;fill-rule:nonzero;fill:rgb(39.215687%,80.000001%,96.078432%);fill-opacity:1;" d="M 8.410156 6.347656 L 5.910156 6.347656 L 6.382812 6.617188 L 8.429688 6.617188 Z M 8.410156 6.347656 "/>
<path style=" stroke:none;fill-rule:nonzero;fill:rgb(0%,16.862746%,22.745098%);fill-opacity:1;" d="M 5.109375 6.617188 L 6.378906 6.617188 L 6.179688 6.878906 L 5.316406 6.878906 Z M 5.109375 6.617188 "/>
<path style=" stroke:none;fill-rule:nonzero;fill:rgb(39.215687%,80.000001%,96.078432%);fill-opacity:1;" d="M 3.082031 6.882812 L 5.582031 6.882812 L 5.089844 7.152344 L 3.058594 7.148438 Z M 3.082031 6.882812 "/>
<path style=" stroke:none;fill-rule:nonzero;fill:rgb(0%,16.862746%,22.745098%);fill-opacity:1;" d="M 8.4375 6.882812 L 5.910156 6.882812 L 6.386719 7.152344 L 8.453125 7.152344 Z M 8.4375 6.882812 "/>
<path style=" stroke:none;fill-rule:nonzero;fill:rgb(0%,16.862746%,22.745098%);fill-opacity:1;" d="M 5.09375 7.152344 L 6.386719 7.152344 L 6.183594 7.417969 L 5.304688 7.417969 Z M 3.046875 7.421875 L 5.582031 7.421875 L 5.085938 7.691406 L 3.023438 7.6875 Z M 3.046875 7.421875 "/>
<path style=" stroke:none;fill-rule:nonzero;fill:rgb(39.215687%,80.000001%,96.078432%);fill-opacity:1;" d="M 8.464844 7.421875 L 5.910156 7.421875 L 6.394531 7.691406 L 8.484375 7.691406 Z M 8.464844 7.421875 "/>
<path style=" stroke:none;fill-rule:nonzero;fill:rgb(0%,16.862746%,22.745098%);fill-opacity:1;" d="M 5.09375 7.691406 L 6.386719 7.691406 L 6.183594 7.953125 L 5.304688 7.953125 Z M 5.09375 7.691406 "/>
<path style=" stroke:none;fill-rule:nonzero;fill:rgb(39.215687%,80.000001%,96.078432%);fill-opacity:1;" d="M 3.019531 7.960938 L 5.597656 7.960938 L 5.089844 8.230469 L 3 8.226562 Z M 3.019531 7.960938 "/>
<path style=" stroke:none;fill-rule:nonzero;fill:rgb(0%,16.862746%,22.745098%);fill-opacity:1;" d="M 8.535156 7.960938 L 5.933594 7.960938 L 6.425781 8.230469 L 8.554688 8.230469 Z M 8.535156 7.960938 "/>
<path style=" stroke:none;fill-rule:nonzero;fill:rgb(0%,16.862746%,22.745098%);fill-opacity:1;" d="M 5.09375 8.230469 L 6.425781 8.230469 L 6.214844 8.492188 L 5.308594 8.492188 Z M 2.984375 8.496094 L 5.597656 8.496094 L 5.085938 8.765625 L 2.964844 8.765625 Z M 2.984375 8.496094 "/>
<path style=" stroke:none;fill-rule:nonzero;fill:rgb(39.215687%,80.000001%,96.078432%);fill-opacity:1;" d="M 8.566406 8.496094 L 5.933594 8.5 L 6.429688 8.765625 L 8.582031 8.765625 Z M 8.566406 8.496094 "/>
<path style=" stroke:none;fill-rule:nonzero;fill:rgb(0%,16.862746%,22.745098%);fill-opacity:1;" d="M 5.09375 8.765625 L 6.425781 8.765625 L 6.214844 9.03125 L 5.308594 9.03125 Z M 5.09375 8.765625 "/>
<path style=" stroke:none;fill-rule:nonzero;fill:rgb(39.215687%,80.000001%,96.078432%);fill-opacity:1;" d="M 2.980469 9.0625 L 5.613281 9.0625 L 5.09375 9.332031 L 2.960938 9.328125 Z M 2.980469 9.0625 "/>
<path style=" stroke:none;fill-rule:nonzero;fill:rgb(0%,16.862746%,22.745098%);fill-opacity:1;" d="M 8.609375 9.0625 L 5.953125 9.0625 L 6.457031 9.332031 L 8.628906 9.332031 Z M 8.609375 9.0625 "/>
<path style=" stroke:none;fill-rule:nonzero;fill:rgb(0%,16.862746%,22.745098%);fill-opacity:1;" d="M 5.097656 9.332031 L 6.457031 9.332031 L 6.242188 9.59375 L 5.320312 9.59375 Z M 2.945312 9.597656 L 5.613281 9.597656 L 5.085938 9.867188 L 2.921875 9.863281 Z M 2.945312 9.597656 "/>
<path style=" stroke:none;fill-rule:nonzero;fill:rgb(39.215687%,80.000001%,96.078432%);fill-opacity:1;" d="M 8.640625 9.597656 L 5.953125 9.597656 L 6.460938 9.867188 L 8.660156 9.867188 Z M 8.640625 9.597656 "/>
<path style=" stroke:none;fill-rule:nonzero;fill:rgb(0%,16.862746%,22.745098%);fill-opacity:1;" d="M 5.097656 9.867188 L 6.457031 9.867188 L 6.242188 10.132812 L 5.320312 10.132812 Z M 5.097656 9.867188 "/>
<path style=" stroke:none;fill-rule:nonzero;fill:rgb(39.215687%,80.000001%,96.078432%);fill-opacity:1;" d="M 2.902344 10.136719 L 5.597656 10.136719 L 5.066406 10.40625 L 2.878906 10.402344 Z M 2.902344 10.136719 "/>
<path style=" stroke:none;fill-rule:nonzero;fill:rgb(0%,16.862746%,22.745098%);fill-opacity:1;" d="M 8.667969 10.136719 L 5.949219 10.136719 L 6.460938 10.40625 L 8.6875 10.40625 Z M 8.667969 10.136719 "/>
<path style=" stroke:none;fill-rule:nonzero;fill:rgb(0%,16.862746%,22.745098%);fill-opacity:1;" d="M 5.070312 10.40625 L 6.460938 10.40625 L 6.242188 10.667969 L 5.296875 10.667969 Z M 2.863281 10.671875 L 5.597656 10.671875 L 5.058594 10.941406 L 2.84375 10.9375 Z M 2.863281 10.671875 "/>
<path style=" stroke:none;fill-rule:nonzero;fill:rgb(39.215687%,80.000001%,96.078432%);fill-opacity:1;" d="M 8.699219 10.671875 L 5.949219 10.671875 L 6.46875 10.941406 L 8.71875 10.941406 Z M 8.699219 10.671875 "/>
<path style=" stroke:none;fill-rule:nonzero;fill:rgb(0%,16.862746%,22.745098%);fill-opacity:1;" d="M 5.070312 10.941406 L 6.460938 10.941406 L 6.242188 11.207031 L 5.296875 11.207031 Z M 5.070312 10.941406 "/>
<path style=" stroke:none;fill-rule:nonzero;fill:rgb(39.215687%,80.000001%,96.078432%);fill-opacity:1;" d="M 2.84375 11.210938 L 5.59375 11.210938 L 5.050781 11.480469 L 2.820312 11.480469 Z M 2.84375 11.210938 "/>
<path style=" stroke:none;fill-rule:nonzero;fill:rgb(0%,16.862746%,22.745098%);fill-opacity:1;" d="M 8.730469 11.210938 L 5.953125 11.214844 L 6.476562 11.480469 L 8.746094 11.480469 Z M 8.730469 11.210938 "/>
<path style=" stroke:none;fill-rule:nonzero;fill:rgb(0%,16.862746%,22.745098%);fill-opacity:1;" d="M 5.054688 11.480469 L 6.476562 11.480469 L 6.253906 11.746094 L 5.285156 11.746094 Z M 2.804688 11.75 L 5.59375 11.75 L 5.042969 12.019531 L 2.78125 12.015625 Z M 2.804688 11.75 "/>
<path style=" stroke:none;fill-rule:nonzero;fill:rgb(39.215687%,80.000001%,96.078432%);fill-opacity:1;" d="M 8.761719 11.75 L 5.953125 11.75 L 6.484375 12.019531 L 8.78125 12.019531 Z M 8.761719 11.75 "/>
<path style=" stroke:none;fill-rule:nonzero;fill:rgb(0%,16.862746%,22.745098%);fill-opacity:1;" d="M 5.054688 12.019531 L 6.476562 12.019531 L 6.253906 12.28125 L 5.285156 12.28125 Z M 5.054688 12.019531 "/>
<path style=" stroke:none;fill-rule:nonzero;fill:rgb(39.215687%,80.000001%,96.078432%);fill-opacity:1;" d="M 2.804688 12.28125 L 5.609375 12.28125 L 5.054688 12.550781 L 2.777344 12.550781 Z M 2.804688 12.28125 "/>
<path style=" stroke:none;fill-rule:nonzero;fill:rgb(0%,16.862746%,22.745098%);fill-opacity:1;" d="M 8.804688 12.28125 L 5.972656 12.285156 L 6.507812 12.550781 L 8.824219 12.550781 Z M 8.804688 12.28125 "/>
<path style=" stroke:none;fill-rule:nonzero;fill:rgb(0%,16.862746%,22.745098%);fill-opacity:1;" d="M 5.058594 12.550781 L 6.507812 12.550781 L 6.28125 12.816406 L 5.296875 12.816406 Z M 2.765625 12.820312 L 5.609375 12.820312 L 5.046875 13.089844 L 2.738281 13.085938 Z M 2.765625 12.820312 "/>
<path style=" stroke:none;fill-rule:nonzero;fill:rgb(39.215687%,80.000001%,96.078432%);fill-opacity:1;" d="M 8.839844 12.820312 L 5.972656 12.820312 L 6.515625 13.089844 L 8.855469 13.089844 Z M 8.839844 12.820312 "/>
<path style=" stroke:none;fill-rule:nonzero;fill:rgb(0%,16.862746%,22.745098%);fill-opacity:1;" d="M 5.058594 13.089844 L 6.507812 13.089844 L 6.28125 13.351562 L 5.296875 13.351562 Z M 5.058594 13.089844 "/>
<path style=" stroke:none;fill-rule:nonzero;fill:rgb(39.215687%,80.000001%,96.078432%);fill-opacity:1;" d="M 2.726562 13.359375 L 5.597656 13.359375 L 5.03125 13.628906 L 2.699219 13.625 Z M 2.726562 13.359375 "/>
<path style=" stroke:none;fill-rule:nonzero;fill:rgb(0%,16.862746%,22.745098%);fill-opacity:1;" d="M 8.871094 13.359375 L 5.972656 13.359375 L 6.519531 13.628906 L 8.890625 13.628906 Z M 8.871094 13.359375 "/>
<path style=" stroke:none;fill-rule:nonzero;fill:rgb(0%,16.862746%,22.745098%);fill-opacity:1;" d="M 5.035156 13.628906 L 6.519531 13.628906 L 6.285156 13.890625 L 5.277344 13.890625 Z M 2.6875 13.894531 L 5.597656 13.894531 L 5.023438 14.167969 L 2.660156 14.164062 Z M 2.6875 13.894531 "/>
<path style=" stroke:none;fill-rule:nonzero;fill:rgb(39.215687%,80.000001%,96.078432%);fill-opacity:1;" d="M 8.902344 13.894531 L 5.972656 13.898438 L 6.523438 14.167969 L 8.921875 14.167969 Z M 8.902344 13.894531 "/>
<path style=" stroke:none;fill-rule:nonzero;fill:rgb(0%,16.862746%,22.745098%);fill-opacity:1;" d="M 5.035156 14.167969 L 6.519531 14.164062 L 6.285156 14.429688 L 5.277344 14.429688 Z M 5.035156 14.167969 "/>
<path style=" stroke:none;fill-rule:nonzero;fill:rgb(39.215687%,80.000001%,96.078432%);fill-opacity:1;" d="M 2.664062 14.4375 L 5.589844 14.4375 L 5.011719 14.707031 L 2.640625 14.703125 Z M 2.664062 14.4375 "/>
<path style=" stroke:none;fill-rule:nonzero;fill:rgb(0%,16.862746%,22.745098%);fill-opacity:1;" d="M 8.921875 14.4375 L 5.96875 14.4375 L 6.527344 14.707031 L 8.941406 14.707031 Z M 8.921875 14.4375 "/>
<path style=" stroke:none;fill-rule:nonzero;fill:rgb(0%,16.862746%,22.745098%);fill-opacity:1;" d="M 5.015625 14.707031 L 6.527344 14.707031 L 6.289062 14.96875 L 5.261719 14.96875 Z M 2.625 14.972656 L 5.589844 14.972656 L 5.003906 15.246094 L 2.597656 15.242188 Z M 2.625 14.972656 "/>
<path style=" stroke:none;fill-rule:nonzero;fill:rgb(39.215687%,80.000001%,96.078432%);fill-opacity:1;" d="M 8.953125 14.972656 L 5.96875 14.976562 L 6.535156 15.246094 L 8.976562 15.246094 Z M 8.953125 14.972656 "/>
<path style=" stroke:none;fill-rule:nonzero;fill:rgb(0%,16.862746%,22.745098%);fill-opacity:1;" d="M 5.015625 15.246094 L 6.527344 15.242188 L 6.289062 15.507812 L 5.261719 15.507812 Z M 5.015625 15.246094 "/>
</g>
</svg>
