<?xml version="1.0" encoding="UTF-8"?>
<svg xmlns="http://www.w3.org/2000/svg" xmlns:xlink="http://www.w3.org/1999/xlink" width="24px" height="24px" viewBox="0 0 24 24" version="1.1">
<g id="surface1">
<path style=" stroke:none;fill-rule:nonzero;fill:rgb(87.450981%,12.941177%,15.294118%);fill-opacity:1;" d="M 9.234375 20.148438 L 2.375 20.148438 L 2.414062 19.476562 L 9.183594 19.476562 Z M 9.234375 20.148438 "/>
<path style=" stroke:none;fill-rule:nonzero;fill:rgb(88.235295%,57.647061%,14.901961%);fill-opacity:1;" d="M 9.277344 20.820312 L 2.335938 20.820312 L 2.375 20.148438 L 9.242188 20.148438 Z M 9.277344 20.820312 "/>
<path style=" stroke:none;fill-rule:nonzero;fill:rgb(16.862746%,60.000002%,28.235295%);fill-opacity:1;" d="M 9.28125 21.484375 L 2.300781 21.492188 L 2.339844 20.820312 L 9.277344 20.820312 Z M 9.28125 21.484375 "/>
<path style=" stroke:none;fill-rule:nonzero;fill:rgb(11.764706%,11.764706%,11.764706%);fill-opacity:1;" d="M 2.339844 20.453125 L 9.261719 20.453125 L 9.261719 20.507812 L 2.339844 20.507812 Z M 2.339844 20.453125 "/>
<path style=" stroke:none;fill-rule:nonzero;fill:rgb(99.215686%,99.607843%,99.607843%);fill-opacity:1;" d="M 9.1875 19.542969 L 2.410156 19.542969 L 2.425781 19.476562 L 9.183594 19.476562 Z M 9.285156 21.558594 L 2.292969 21.5625 L 2.300781 21.492188 L 9.277344 21.492188 Z M 9.285156 21.558594 "/>
</g>
</svg>
