<?xml version="1.0" encoding="UTF-8"?>
<svg xmlns="http://www.w3.org/2000/svg" xmlns:xlink="http://www.w3.org/1999/xlink" width="24px" height="24px" viewBox="0 0 24 24" version="1.1">
<g id="surface1">
<path style=" stroke:none;fill-rule:nonzero;fill:rgb(100%,89.411765%,70.980394%);fill-opacity:1;" d="M 8.503906 8.066406 L 2.996094 8.058594 L 2.890625 10.1875 L 8.613281 10.1875 "/>
<path style=" stroke:none;fill-rule:nonzero;fill:rgb(0%,0%,0%);fill-opacity:1;" d="M 2.996094 8.058594 L 5.578125 8.058594 L 5.070312 8.332031 L 2.972656 8.328125 Z M 2.996094 8.058594 "/>
<path style=" stroke:none;fill-rule:nonzero;fill:rgb(0%,16.862746%,22.745098%);fill-opacity:1;" d="M 8.523438 8.0625 L 5.917969 8.0625 L 6.410156 8.332031 L 8.542969 8.332031 Z M 8.523438 8.0625 "/>
<path style=" stroke:none;fill-rule:nonzero;fill:rgb(0%,16.862746%,22.745098%);fill-opacity:1;" d="M 5.074219 8.332031 L 6.410156 8.328125 L 6.199219 8.59375 L 5.292969 8.59375 Z M 2.960938 8.597656 L 5.578125 8.597656 L 5.0625 8.867188 L 2.9375 8.863281 Z M 2.960938 8.597656 "/>
<path style=" stroke:none;fill-rule:nonzero;fill:rgb(0%,0%,0%);fill-opacity:1;" d="M 8.554688 8.597656 L 5.917969 8.597656 L 6.414062 8.867188 L 8.570312 8.867188 Z M 8.554688 8.597656 "/>
<path style=" stroke:none;fill-rule:nonzero;fill:rgb(0%,16.862746%,22.745098%);fill-opacity:1;" d="M 5.074219 8.867188 L 6.410156 8.867188 L 6.199219 9.132812 L 5.292969 9.132812 Z M 5.074219 8.867188 "/>
<path style=" stroke:none;fill-rule:nonzero;fill:rgb(0%,0%,0%);fill-opacity:1;" d="M 2.996094 9.121094 L 5.578125 9.121094 L 5.070312 9.394531 L 2.972656 9.390625 Z M 2.996094 9.121094 "/>
<path style=" stroke:none;fill-rule:nonzero;fill:rgb(0%,16.862746%,22.745098%);fill-opacity:1;" d="M 8.523438 9.125 L 5.917969 9.125 L 6.410156 9.394531 L 8.542969 9.394531 Z M 8.523438 9.125 "/>
<path style=" stroke:none;fill-rule:nonzero;fill:rgb(0%,16.862746%,22.745098%);fill-opacity:1;" d="M 5.074219 9.394531 L 6.410156 9.394531 L 6.199219 9.65625 L 5.292969 9.65625 Z M 2.960938 9.660156 L 5.578125 9.660156 L 5.0625 9.929688 L 2.9375 9.925781 Z M 2.960938 9.660156 "/>
<path style=" stroke:none;fill-rule:nonzero;fill:rgb(0%,0%,0%);fill-opacity:1;" d="M 8.554688 9.660156 L 5.917969 9.660156 L 6.414062 9.929688 L 8.570312 9.929688 Z M 8.554688 9.660156 "/>
<path style=" stroke:none;fill-rule:nonzero;fill:rgb(0%,16.862746%,22.745098%);fill-opacity:1;" d="M 5.074219 9.929688 L 6.410156 9.929688 L 6.199219 10.195312 L 5.292969 10.195312 Z M 5.074219 9.929688 "/>
</g>
</svg>
