<svg xmlns="http://www.w3.org/2000/svg" viewBox="0 0 35.54 38.14"><defs><style>.e889ab52-a58b-45c8-865b-10ada593085c{fill:#1e1e1e;}</style></defs><title>Asset 14</title><g id="bffc684f-be2f-400a-b00d-d34bd9192005" data-name="Layer 2"><g id="e5078fb8-c7f0-4cdc-af95-a6631258b60a" data-name="Layer 1"><path class="e889ab52-a58b-45c8-865b-10ada593085c" d="M35.06,18.53q-3.81-2.13-7.61-4.27a2.61,2.61,0,0,1-.71-3.71,22.64,22.64,0,0,0,4-6.4A21.29,21.29,0,0,0,31.71.78.88.88,0,0,0,31.3,0a1.33,1.33,0,0,0-.94.24c-.2.12-.3.43-.42.66A19.16,19.16,0,0,1,25,7.4a11.4,11.4,0,0,1-6.77,2.74C13.83,10.23,10.54,8,8,4.64,7,3.36,6.27,1.88,5.38.53,5.2.26,4.54,0,4.43.05a1.72,1.72,0,0,0-.62,1.12c0,.4.29.81.43,1.23A21,21,0,0,0,8.6,10.19c1.07,1.19,1.13,3,.09,3.72a26.77,26.77,0,0,1-2.44,1.42c-1.94,1.1-3.9,2.17-5.83,3.28-.56.33-.57.69,0,1,2.26,1.25,4.46,2.63,6.77,3.79C10,24.81,10,26.35,8.66,27.82a26.29,26.29,0,0,0-4.8,8.75A1.08,1.08,0,0,0,4.29,38c.57.31.86-.16,1.13-.56,1.06-1.62,2-3.33,3.21-4.84A12.3,12.3,0,0,1,17.76,28,11,11,0,0,1,23,29.4a14.42,14.42,0,0,1,5.73,5.65c.53.87,1,1.78,1.6,2.62a1.05,1.05,0,0,0,.94.36,1.08,1.08,0,0,0,.41-1,12.15,12.15,0,0,0-.63-2.27,19.27,19.27,0,0,0-3.1-5.7c-.86-1.05-2-2.05-1.62-3.65A2.25,2.25,0,0,1,27,24.2a21,21,0,0,1,2.46-1.37c1.87-1,3.74-2.08,5.61-3.14.64-.37.62-.81,0-1.16M9.38,20.92a.76.76,0,0,1-1.19.67c-1-.58-2.08-1.18-3.12-1.77a.79.79,0,0,1,0-1.42c1-.58,2-1.14,3.06-1.71.62-.34,1.13-.06,1.26.69a1.09,1.09,0,0,1,0,.18v1.68h0c0,.56,0,1.12,0,1.68m5.53,1.89c.29.44.19.71-.23.93a20.43,20.43,0,0,1-2.21,1.07c-.67.25-.7-.33-.7-.78,0-1.63,0-3.26,0-4.88h0V14.62c0-1.28.21-1.41,1.36-.92.54.23,1.09.45,1.61.71s.5.5.22.94a2.52,2.52,0,0,0,.06,3,1.48,1.48,0,0,1,0,1.36,2.55,2.55,0,0,0-.08,3m2.75,0c-.48-.64-1.06-1.09-1-1.44s.74-1,1.09-1,.83.64,1.24,1l-1.32,1.4m.06-4.52c-.53-.63-1.13-1-1.14-1.45s.74-1,1.07-1c.49.07.91.65,1.36,1-.36.41-.73.81-1.29,1.43m4.73,6.13c-.45-.21-.93-.35-1.39-.56s-.64-.54-.39-1.13a2.67,2.67,0,0,0-.32-3.06,1.15,1.15,0,0,1,0-1.11,2.58,2.58,0,0,0,.21-3.14c-.29-.55-.19-.81.31-1,.71-.33,1.42-.69,2.16-1,.46-.17.94.47.9,1.38,0,2.71,0,5.66,0,8.61,0,1.2-.41,1.51-1.49,1m7.6-4.46c-.93.56-1.86,1.11-2.81,1.63-.49.27-.76-.06-.79-.49-.06-.65,0-1.3,0-1.95h0a17.4,17.4,0,0,1,0-1.77c.08-.75.41-.87,1.06-.51.84.48,1.7.93,2.54,1.41,1,.59,1,1.09.05,1.68"/></g></g></svg>