<svg xmlns="http://www.w3.org/2000/svg" viewBox="0 0 42.66 38.14"><defs><style>.a80ca12c-2939-4fa2-b28a-4887ee6a4ae7{fill:#1e1e1e;}</style></defs><title>Asset 16</title><g id="b60f1ca8-3de3-4033-a826-b0c59f057599" data-name="Layer 2"><g id="a957b6b6-2947-4e83-9553-720abf801427" data-name="Layer 1"><path class="a80ca12c-2939-4fa2-b28a-4887ee6a4ae7" d="M0,38.14V22.26c.28,0,.53,0,.78,0H8.67A1.06,1.06,0,0,0,9.87,21v-4.6c-.4,0-.76-.06-1.12-.06-2.64,0-5.28,0-7.93,0-.56,0-.82-.2-.82-.74Q0,8,0,.27A.92.92,0,0,1,.08.05h16.4V3.46c0,1.72,0,3.43,0,5.15,0,.45.15.7.63.7h8.62c0-.37.06-.7.06-1,0-2.48,0-5,0-7.44,0-.6.2-.83.78-.83L42.2,0a4.53,4.53,0,0,1,.46,0V15.78a2.37,2.37,0,0,1-.56.37,1,1,0,0,1-.71,0,1.18,1.18,0,0,0-1.51,0,1.16,1.16,0,0,1-.58.17c-1.2,0-2.41,0-3.61,0-.31,0-.62-.21-.88-.2l-2.1.32c0,1.26,0,2.55,0,3.84,0,1.89,0,1.9,1.91,1.9h8V38.11H25.81c0-.3,0-.53,0-.75,0-2.53,0-5,0-7.58,0-1,0-1.06-1-1.06-2.32,0-4.64,0-7,0a1.18,1.18,0,0,0-1.35,1.33v7.44c0,.2,0,.4,0,.65Zm13.26-3.82.17,0c0-2.52,0-5,0-7.56,0-1.05,0-1.06-1.07-1.06H4.27l-.69,0v9.36h9l.75-.81m16.07-8.54c-.06.07-.09.09-.09.11q0,4.13,0,8.26c0,.34.75,1,1.11,1h7.77a.76.76,0,0,0,.5-.14,2.08,2.08,0,0,0,.59-1.61c-.06-2.13,0-4.26,0-6.39V25.78ZM39.17,3.55H29.29v8.72h9.88Zm-35.62,0v8.67H13.66a5.25,5.25,0,0,1-.54-.83,1.34,1.34,0,0,1,0-.74c.07-.3.34-.58.35-.87,0-1.34,0-2.69,0-4V3.55ZM22.85,13v3.41a1.14,1.14,0,0,0,1,1.09c1.59,0,3.18,0,4.78,0,.17,0,.49-.25.5-.39,0-1.36,0-2.71,0-4.1Zm-3,0h-6.3a1.12,1.12,0,0,0,0,.19c0,.91,0,1.81,0,2.71,0,1.66,0,1.75,1.63,1.52a3.51,3.51,0,0,1,1.82,0,3.68,3.68,0,0,0,1.92,0c.37-.08.9-.51.93-.83.11-1.16,0-2.35,0-3.6m-.05,8.15H13.57v4h6.24Zm3.09,4h6.25v-4H22.9Z"/></g></g></svg>