<svg xmlns="http://www.w3.org/2000/svg" viewBox="0 0 31.84 38.14"><defs><style>.b47d3bb1-8b79-4e55-b15b-7b77050367d0{fill:#1e1e1e;}</style></defs><title>Asset 19</title><g id="a25696b0-edc7-463a-8d91-9135f010b694" data-name="Layer 2"><g id="baf7bd4a-7446-4b46-b975-5b3d0da0c714" data-name="Layer 1"><path class="b47d3bb1-8b79-4e55-b15b-7b77050367d0" d="M15.93,38.14c-.22-.38-.32-.57-.42-.75C14.64,36,14.63,36,13,36.23c-.38.07-.77.07-1.36.12.21-.39.33-.57.41-.77s.25-.55.17-.72a.87.87,0,0,0-.68-.27A5.16,5.16,0,0,1,7.33,32.7,5.47,5.47,0,0,1,6.2,28.17a4.48,4.48,0,0,1,2.57-3.52c1.24-.6,3.77-.25,4.52,1.53s.39,3.15-1.14,4A1.66,1.66,0,0,1,10,29.83c-.4-.59-.22-1.23.5-1.89a2.33,2.33,0,0,0,.37-.68c-.32,0-.75-.22-1-.08a2.31,2.31,0,0,0-.07,4.09,2.83,2.83,0,0,0,4.24-1.49c1-2.26.3-4.07-1.22-5.79a27.16,27.16,0,0,0-4.95-3.93,22.82,22.82,0,0,1-5.8-5.37,9.44,9.44,0,0,1-2-7.17A8.8,8.8,0,0,1,4.73.94,7,7,0,0,1,11,.58a7.51,7.51,0,0,1,4.52,4.7c.06.17.26.3.39.45.13-.15.33-.28.39-.45A8,8,0,0,1,24.24,0a7.86,7.86,0,0,1,5.84,3.4A8.62,8.62,0,0,1,31.74,10a11.18,11.18,0,0,1-2.49,5.39,26.07,26.07,0,0,1-6.08,5.2c-1.91,1.3-3.87,2.59-5.06,4.63a4.28,4.28,0,0,0-.56,3.81,4.1,4.1,0,0,0,2,2.45,2.15,2.15,0,0,0,2.54-.27c1.41-1.19,1.77-2.79-.09-4-.21-.14-.63,0-1,.06a2.28,2.28,0,0,0,.34.68c.84.78,1,1.24.47,1.93a1.58,1.58,0,0,1-2.1.38,3,3,0,0,1-1.31-3.78c1-2.72,4.68-2.69,6.24-.61a5.47,5.47,0,0,1-1.36,8,9.37,9.37,0,0,1-2.83.77l-.88.25a7.12,7.12,0,0,1,.31.76,1,1,0,0,1,.1.58c0,.1-.32.17-.49.16a3.33,3.33,0,0,1-1.19-.16c-.88-.41-1.28.12-1.68.74-.22.35-.43.71-.75,1.22m-5-23.8A8.81,8.81,0,0,1,9,14a6.33,6.33,0,0,1-3.54-3.53,4.88,4.88,0,0,1,.59-4.35,1.7,1.7,0,0,1,2.64.16A2.72,2.72,0,0,1,9,8.51a1.75,1.75,0,0,0,1.76,2.05A1.85,1.85,0,0,0,12.87,8.8a5.67,5.67,0,0,0-.57-3A4.83,4.83,0,0,0,5.86,4c-3,1.77-3.3,5-1.62,7.67A15.31,15.31,0,0,0,7.75,15.6c2.5,2,5.2,3.65,7.84,5.43a.77.77,0,0,0,.68,0c1.57-1,3.1-2.08,4.67-3.1a24.32,24.32,0,0,0,6.13-5.25A5.93,5.93,0,0,0,28,6a4.89,4.89,0,0,0-6.78-1.85A4.77,4.77,0,0,0,19,8.83a2.07,2.07,0,0,0,2.26,1.8A1.83,1.83,0,0,0,23,8.53c0-.38-.15-.75-.16-1.12A1.75,1.75,0,0,1,24,5.67,1.63,1.63,0,0,1,26,6.48a4.55,4.55,0,0,1,0,4.66,5.46,5.46,0,0,1-4.84,3.17,6.06,6.06,0,0,1-4.73-2c-.4-.41-.59-.43-1,0a5.73,5.73,0,0,1-4.5,2"/></g></g></svg>